{
DisplayStrings = (
"/en-cy l/en-cy b/en-cy/en-cy k/en-cy/en-cy/iu-cy.loclBGR/en-cy/en-cy"
);
classes = (
{
automatic = 1;
code = "A Aacute Abreve Acircumflex Adieresis Agrave Amacron Aogonek Aring Atilde AE B C Cacute Ccaron Ccedilla Ccircumflex D Eth Dcaron Dcroat E Eacute Ecaron Ecircumflex Edieresis Edotaccent Egrave Emacron Eogonek F G Gbreve Gcircumflex Gcommaaccent H Hcircumflex I Iacute Icircumflex Idieresis Idotaccent Igrave Imacron Iogonek J Jcircumflex K Kcommaaccent L Lacute Lcaron Lcommaaccent Lslash M N Nacute Ncaron Ncommaaccent Ntilde O Oacute Ocircumflex Odieresis Ograve Ohungarumlaut Omacron Oslash Otilde OE P Thorn Q R Racute Rcaron Rcommaaccent S Sacute Scaron Scedilla Scircumflex Scommaaccent T Tcaron U Uacute Ubreve Ucircumflex Udieresis Ugrave Uhungarumlaut Umacron Uogonek Uring V W X Y Yacute Ydieresis Z Zacute Zcaron Zdotaccent uni0162 uni021A A-cy Be-cy Ve-cy Ge-cy Gje-cy Gheupturn-cy De-cy Ie-cy Iegrave-cy Io-cy Zhe-cy Ze-cy Ii-cy Iishort-cy Igrave-cy Ka-cy Kje-cy El-cy Em-cy En-cy O-cy Pe-cy Er-cy Es-cy Te-cy U-cy Ushort-cy Ef-cy Ha-cy Che-cy Tse-cy Sha-cy Shcha-cy Dzhe-cy Softsign-cy Hardsign-cy Yeru-cy Lje-cy Nje-cy Dze-cy E-cy Ereversed-cy I-cy Yi-cy Je-cy Tshe-cy Iu-cy Ia-cy Dje-cy Ustraitstroke-cy Gamma Delta Pi Omega";
name = Uppercase;
}
);
copyright = "Copyright \UFFC2\UFFA9 2011 by Cyreal";
customParameters = (
{
name = trademark;
value = "Lora is a trademark of Cyreal (www.cyreal.org).";
},
{
name = description;
value = "Lora is designed by Olga Karpushina, and Alexei Vanyashin for Cyreal.\012\012This Font Software is licensed under the SIL Open Font License, Version 1.1. \012";
},
{
name = licenseURL;
value = "http://scripts.sil.org/OFL";
},
{
name = fsType;
value = (
);
}
);
date = "2016-07-16 04:51:06 +0000";
designer = "Cyreal. Olga Karpushina, Alexei Vanyashin (Cyrillic)";
designerURL = "http://cyreal.org";
familyName = "Lora";
featurePrefixes = (
{
automatic = 1;

glyphs = (
{
glyphname = A;
layers = (
{
anchors = (
{
name = ogonek;
position = "{555, 5}";
},
{
name = top;
position = "{322, 702}";
}
);
layerId = "13AA25AE-C1F8-404A-9DC4-1A2868689295";
name = "Light Italic";
paths = (
{
closed = 1;
nodes = (
"319 719 LINE",
"93 158 LINE SMOOTH",
"63 83 OFFCURVE",
"37 34 OFFCURVE",
"-13 33 CURVE",
"-14 0 LINE",
"169 0 LINE",
"171 44 LINE",
"96 40 LINE",
"108 62 OFFCURVE",
"115 77 OFFCURVE",
"127 109 CURVE SMOOTH",
"139 140 OFFCURVE",
"152 175 OFFCURVE",
"167 216 CURVE",
"423 222 LINE",
"452 128 LINE SMOOTH",
"463 91 OFFCURVE",
"475 35 OFFCURVE",
"400 33 CURVE",
"399 0 LINE",
"616 0 LINE",
"618 44 LINE",
"553 40 LINE",
"556 70 OFFCURVE",
"542 122 OFFCURVE",
"532 150 CURVE SMOOTH",
"341 719 LINE"
);
},
{
closed = 1;
nodes = (
"344 471 OFFCURVE",
"379 363 OFFCURVE",
"412 259 CURVE",
"183 259 LINE",
"204 314 OFFCURVE",
"229 381 OFFCURVE",
"263 468 CURVE",
"305 580 LINE",
"307 580 LINE"
);
}
);
width = 631;
}
);
leftKerningGroup = A;
rightKerningGroup = A;
unicode = 0041;
},
{
glyphname = AE;
layers = (
{
layerId = "13AA25AE-C1F8-404A-9DC4-1A2868689295";
name = "Light Italic";
paths = (
{
closed = 1;
nodes = (
"395 700 LINE",
"393 656 LINE",
"483 660 LINE",
"483 660 OFFCURVE",
"482 659 OFFCURVE",
"482 659 CURVE",
"94 125 LINE SMOOTH",
"65 85 OFFCURVE",
"30 33 OFFCURVE",
"-22 33 CURVE",
"-24 0 LINE",
"162 0 LINE",
"164 44 LINE",
"87 40 LINE",
"87 41 LINE",
"214 216 LINE",
"458 221 LINE",
"453 130 LINE SMOOTH",
"450 69 OFFCURVE",
"439 37 OFFCURVE",
"379 36 CURVE",
"377 0 LINE",
"889 0 LINE",
"905 195 LINE",
"871 195 LINE",
"865 77 OFFCURVE",
"808 36 OFFCURVE",
"721 37 CURVE SMOOTH",
"528 40 LINE",
"531 57 OFFCURVE",
"533 82 OFFCURVE",
"535 118 CURVE SMOOTH",
"547 345 LINE",
"571 346 OFFCURVE",
"596 347 OFFCURVE",
"621 347 CURVE SMOOTH",
"705 347 OFFCURVE",
"739 347 OFFCURVE",
"735 259 CURVE",
"768 259 LINE",
"779 477 LINE",
"746 477 LINE",
"742 389 OFFCURVE",
"707 383 OFFCURVE",
"623 383 CURVE SMOOTH",
"549 383 LINE",
"558 544 LINE SMOOTH",
"563 625 OFFCURVE",
"565 661 OFFCURVE",
"640 663 CURVE SMOOTH",
"726 665 LINE SMOOTH",
"801 667 OFFCURVE",
"860 643 OFFCURVE",
"854 525 CURVE",
"887 525 LINE",
"891 700 LINE"
);
},
{
closed = 1;
nodes = (
"460 259 LINE",
"245 259 LINE",
"475 582 LINE",
"476 582 LINE"
);
}
);
width = 955;
}
);
leftKerningGroup = A;
rightKerningGroup = E;
unicode = 00C6;
},
{
glyphname = B;
layers = (
{
layerId = "13AA25AE-C1F8-404A-9DC4-1A2868689295";
name = "Light Italic";
paths = (
{
closed = 1;
nodes = (
"220 702 OFFCURVE",
"150 700 OFFCURVE",
"77 700 CURVE",
"74 656 LINE",
"147 660 LINE",
"144 643 OFFCURVE",
"141 617 OFFCURVE",
"140 581 CURVE SMOOTH",
"118 161 LINE",
"114 86 OFFCURVE",
"117 35 OFFCURVE",
"42 33 CURVE",
"40 0 LINE",
"329 0 LINE SMOOTH",
"464 0 OFFCURVE",
"566 73 OFFCURVE",
"572 196 CURVE SMOOTH",
"578 299 OFFCURVE",
"510 374 OFFCURVE",
"363 374 CURVE",
"363 376 LINE",
"474 396 OFFCURVE",
"529 466 OFFCURVE",
"533 531 CURVE SMOOTH",
"541 649 OFFCURVE",
"455 702 OFFCURVE",
"300 702 CURVE SMOOTH"
);
},
{
closed = 1;
nodes = (
"405 347 OFFCURVE",
"484 308 OFFCURVE",
"478 190 CURVE SMOOTH",
"473 90 OFFCURVE",
"401 39 OFFCURVE",
"298 39 CURVE SMOOTH",
"285 39 OFFCURVE",
"223 38 OFFCURVE",
"192 41 CURVE",
"195 58 OFFCURVE",
"197 83 OFFCURVE",
"199 119 CURVE SMOOTH",
"211 344 LINE",
"243 346 OFFCURVE",
"274 347 OFFCURVE",
"314 347 CURVE SMOOTH"
);
},
{
closed = 1;
nodes = (
"369 666 OFFCURVE",
"449 644 OFFCURVE",
"445 536 CURVE SMOOTH",
"442 462 OFFCURVE",
"400 390 OFFCURVE",
"286 385 CURVE SMOOTH",
"264 384 OFFCURVE",
"238 383 OFFCURVE",
"213 383 CURVE",
"223 569 LINE SMOOTH",
"227 642 OFFCURVE",
"238 666 OFFCURVE",
"303 666 CURVE SMOOTH"
);
}
);
width = 619;
}
);
leftKerningGroup = I;
unicode = 0042;
},
{
glyphname = C;
layers = (
{
anchors = (
{
name = bottom;
position = "{389, 0}";
},
{
name = top;
position = "{429, 702}";
}
);
layerId = "13AA25AE-C1F8-404A-9DC4-1A2868689295";
name = "Light Italic";
paths = (
{
closed = 1;
nodes = (
"179 716 OFFCURVE",
"60 527 OFFCURVE",
"50 339 CURVE",
"40 140 OFFCURVE",
"165 -16 OFFCURVE",
"366 -16 CURVE SMOOTH",
"447 -16 OFFCURVE",
"564 11 OFFCURVE",
"656 127 CURVE",
"631 148 LINE",
"573 74 OFFCURVE",
"481 36 OFFCURVE",
"395 36 CURVE SMOOTH",
"247 36 OFFCURVE",
"134 165 OFFCURVE",
"144 354 CURVE",
"154 550 OFFCURVE",
"274 675 OFFCURVE",
"416 675 CURVE SMOOTH",
"532 675 OFFCURVE",
"607 604 OFFCURVE",
"614 479 CURVE",
"650 479 LINE",
"662 710 LINE",
"608 710 LINE",
"610 656 LINE",
"609 656 LINE",
"550 696 OFFCURVE",
"487 716 OFFCURVE",
"412 716 CURVE SMOOTH"
);
}
);
width = 686;
}
);
leftKerningGroup = O;
rightKerningGroup = C;
unicode = 0043;
},
{
glyphname = Ccedilla;
layers = (
{
layerId = "13AA25AE-C1F8-404A-9DC4-1A2868689295";
name = "Light Italic";
paths = (
{
closed = 1;
nodes = (
"180 716 OFFCURVE",
"61 527 OFFCURVE",
"51 339 CURVE",
"42 165 OFFCURVE",
"137 23 OFFCURVE",
"296 -9 CURVE",
"267 -102 LINE",
"299 -119 LINE",
"311 -110 OFFCURVE",
"324 -106 OFFCURVE",
"338 -104 CURVE SMOOTH",
"365 -101 OFFCURVE",
"382 -113 OFFCURVE",
"381 -137 CURVE SMOOTH",
"379 -176 OFFCURVE",
"317 -206 OFFCURVE",
"249 -218 CURVE",
"255 -251 LINE",
"323 -241 OFFCURVE",
"457 -209 OFFCURVE",
"463 -128 CURVE",
"466 -90 OFFCURVE",
"446 -57 OFFCURVE",
"395 -57 CURVE SMOOTH",
"379 -57 OFFCURVE",
"347 -63 OFFCURVE",
"327 -75 CURVE",
"350 -16 LINE",
"355 -16 OFFCURVE",
"361 -16 OFFCURVE",
"367 -16 CURVE SMOOTH",
"448 -16 OFFCURVE",
"565 11 OFFCURVE",
"657 127 CURVE",
"632 148 LINE",
"574 74 OFFCURVE",
"482 36 OFFCURVE",
"396 36 CURVE SMOOTH",
"248 36 OFFCURVE",
"135 165 OFFCURVE",
"145 354 CURVE",
"155 550 OFFCURVE",
"275 675 OFFCURVE",
"417 675 CURVE SMOOTH",
"533 675 OFFCURVE",
"608 604 OFFCURVE",
"615 479 CURVE",
"651 479 LINE",
"663 710 LINE",
"609 710 LINE",
"611 656 LINE",
"552 697 OFFCURVE",
"489 716 OFFCURVE",
"413 716 CURVE SMOOTH"
);
}
);
width = 689;
}
);
leftKerningGroup = O;
rightKerningGroup = C;
unicode = 00C7;
},
{
glyphname = D;
layers = (
{
anchors = (
{
name = center;
position = "{377, 351}";
},
{
name = top;
position = "{393, 702}";
}
);
layerId = "13AA25AE-C1F8-404A-9DC4-1A2868689295";
name = "Light Italic";
paths = (
{
closed = 1;
nodes = (
"77 700 LINE",
"74 656 LINE",
"148 660 LINE",
"145 640 OFFCURVE",
"143 615 OFFCURVE",
"141 588 CURVE SMOOTH",
"117 156 LINE",
"114 85 OFFCURVE",
"117 36 OFFCURVE",
"42 33 CURVE",
"40 0 LINE",
"299 0 LINE SMOOTH",
"564 0 OFFCURVE",
"695 181 OFFCURVE",
"695 376 CURVE SMOOTH",
"695 599 OFFCURVE",
"541 702 OFFCURVE",
"309 701 CURVE SMOOTH"
);
},
{
closed = 1;
nodes = (
"507 664 OFFCURVE",
"602 552 OFFCURVE",
"602 380 CURVE SMOOTH",
"602 188 OFFCURVE",
"479 38 OFFCURVE",
"298 38 CURVE SMOOTH",
"265 38 OFFCURVE",
"235 38 OFFCURVE",
"191 40 CURVE",
"194 57 OFFCURVE",
"196 82 OFFCURVE",
"198 118 CURVE SMOOTH",
"221 551 LINE",
"225 629 OFFCURVE",
"227 664 OFFCURVE",
"303 664 CURVE SMOOTH"
);
}
);
width = 738;
}
);
leftKerningGroup = I;
rightKerningGroup = D;
unicode = 0044;
},
{
glyphname = Eth;
layers = (
{
layerId = "13AA25AE-C1F8-404A-9DC4-1A2868689295";
name = "Light Italic";
paths = (
{
closed = 1;
nodes = (
"78 700 LINE",
"75 656 LINE",
"149 660 LINE",
"146 640 OFFCURVE",
"144 615 OFFCURVE",
"142 588 CURVE SMOOTH",
"130 377 LINE",
"26 377 LINE",
"23 328 LINE",
"127 329 LINE",
"118 156 LINE",
"115 85 OFFCURVE",
"118 36 OFFCURVE",
"43 33 CURVE",
"41 0 LINE",
"300 0 LINE SMOOTH",
"565 0 OFFCURVE",
"696 181 OFFCURVE",
"696 376 CURVE SMOOTH",
"696 599 OFFCURVE",
"542 702 OFFCURVE",
"310 701 CURVE SMOOTH"
);
},
{
closed = 1;
nodes = (
"508 664 OFFCURVE",
"603 552 OFFCURVE",
"603 380 CURVE SMOOTH",
"603 188 OFFCURVE",
"480 38 OFFCURVE",
"299 38 CURVE SMOOTH",
"266 38 OFFCURVE",
"236 38 OFFCURVE",
"192 40 CURVE",
"195 57 OFFCURVE",
"197 82 OFFCURVE",
"199 118 CURVE SMOOTH",
"210 330 LINE",
"338 332 LINE",
"341 377 LINE",
"213 377 LINE",
"222 551 LINE SMOOTH",
"226 629 OFFCURVE",
"228 664 OFFCURVE",
"304 664 CURVE SMOOTH"
);
}
);
width = 739;
}
);
leftKerningGroup = I;
rightKerningGroup = D;
unicode = 00D0;
},
{
glyphname = E;
layers = (
{
anchors = (
{
name = bottom;
position = "{332, 0}";
},
{
name = ogonek;
position = "{544, 5}";
},
{
name = top;
position = "{363, 702}";
}
);
layerId = "13AA25AE-C1F8-404A-9DC4-1A2868689295";
name = "Light Italic";
paths = (
{
closed = 1;
nodes = (
"78 700 LINE",
"76 656 LINE",
"149 660 LINE",
"146 640 OFFCURVE",
"143 615 OFFCURVE",
"142 588 CURVE SMOOTH",
"118 156 LINE SMOOTH",
"115 85 OFFCURVE",
"118 36 OFFCURVE",
"43 33 CURVE",
"41 0 LINE",
"553 0 LINE",
"569 195 LINE",
"535 195 LINE",
"529 76 OFFCURVE",
"470 41 OFFCURVE",
"383 40 CURVE SMOOTH",
"192 37 LINE",
"195 54 OFFCURVE",
"197 79 OFFCURVE",
"199 115 CURVE SMOOTH",
"211 344 LINE",
"284 347 LINE SMOOTH",
"370 350 OFFCURVE",
"403 347 OFFCURVE",
"399 259 CURVE",
"432 259 LINE",
"443 477 LINE",
"410 477 LINE",
"406 389 OFFCURVE",
"369 382 OFFCURVE",
"285 383 CURVE SMOOTH",
"213 384 LINE",
"222 544 LINE SMOOTH",
"227 625 OFFCURVE",
"229 661 OFFCURVE",
"304 663 CURVE SMOOTH",
"390 665 LINE SMOOTH",
"465 667 OFFCURVE",
"524 643 OFFCURVE",
"518 525 CURVE",
"551 525 LINE",
"555 700 LINE"
);
}
);
width = 619;
}
);
leftKerningGroup = I;
rightKerningGroup = E;
unicode = 0045;
},
{
glyphname = F;
layers = (
{
layerId = "13AA25AE-C1F8-404A-9DC4-1A2868689295";
name = "Light Italic";
paths = (
{
closed = 1;
nodes = (
"78 700 LINE",
"76 656 LINE",
"149 660 LINE",
"146 640 OFFCURVE",
"143 615 OFFCURVE",
"142 588 CURVE SMOOTH",
"118 156 LINE SMOOTH",
"115 85 OFFCURVE",
"118 36 OFFCURVE",
"43 33 CURVE",
"41 0 LINE",
"292 0 LINE",
"294 44 LINE",
"192 40 LINE",
"195 57 OFFCURVE",
"198 83 OFFCURVE",
"199 119 CURVE SMOOTH",
"210 328 LINE",
"236 330 OFFCURVE",
"262 331 OFFCURVE",
"288 331 CURVE SMOOTH",
"359 331 OFFCURVE",
"388 325 OFFCURVE",
"384 243 CURVE",
"417 243 LINE",
"428 462 LINE",
"395 462 LINE",
"391 380 OFFCURVE",
"361 369 OFFCURVE",
"290 368 CURVE SMOOTH",
"212 368 LINE",
"222 552 LINE SMOOTH",
"225 622 OFFCURVE",
"229 661 OFFCURVE",
"297 663 CURVE SMOOTH",
"370 665 LINE SMOOTH",
"445 667 OFFCURVE",
"507 643 OFFCURVE",
"501 525 CURVE",
"534 525 LINE",
"538 700 LINE"
);
}
);
width = 541;
}
);
leftKerningGroup = I;
unicode = 0046;
},
{
glyphname = G;
layers = (
{
anchors = (
{
name = bottom;
position = "{358, 0}";
},
{
name = top;
position = "{430, 702}";
}
);
layerId = "13AA25AE-C1F8-404A-9DC4-1A2868689295";
name = "Light Italic";
paths = (
{
closed = 1;
nodes = (
"180 716 OFFCURVE",
"60 523 OFFCURVE",
"50 335 CURVE SMOOTH",
"38 116 OFFCURVE",
"165 -16 OFFCURVE",
"366 -16 CURVE SMOOTH",
"410 -16 OFFCURVE",
"472 -6 OFFCURVE",
"514 10 CURVE SMOOTH",
"563 29 OFFCURVE",
"601 36 OFFCURVE",
"623 36 CURVE SMOOTH",
"647 36 LINE",
"655 188 LINE SMOOTH",
"657 215 OFFCURVE",
"658 307 OFFCURVE",
"733 307 CURVE",
"735 340 LINE",
"512 340 LINE",
"510 296 LINE",
"580 300 LINE",
"569 82 LINE",
"515 47 OFFCURVE",
"448 32 OFFCURVE",
"395 32 CURVE SMOOTH",
"237 32 OFFCURVE",
"134 169 OFFCURVE",
"144 358 CURVE SMOOTH",
"154 544 OFFCURVE",
"275 676 OFFCURVE",
"417 676 CURVE SMOOTH",
"533 676 OFFCURVE",
"620 605 OFFCURVE",
"622 480 CURVE",
"658 480 LINE",
"670 709 LINE",
"615 709 LINE",
"617 662 LINE",
"562 695 OFFCURVE",
"485 716 OFFCURVE",
"413 716 CURVE SMOOTH"
);
}
);
width = 753;
}
);
leftKerningGroup = O;
rightKerningGroup = G;
unicode = 0047;
},
{
glyphname = H;
lastChange = "2016-09-08 11:40:02 +0000";
layers = (
{
anchors = (
{
name = center;
position = "{395, 351}";
},
{
name = top;
position = "{410, 702}";
}
);
layerId = "13AA25AE-C1F8-404A-9DC4-1A2868689295";
name = "Light Italic";
paths = (
{
closed = 1;
nodes = (
"519 700 LINE",
"517 656 LINE",
"589 660 LINE",
"586 640 OFFCURVE",
"583 615 OFFCURVE",
"582 588 CURVE SMOOTH",
"571 378 LINE",
"212 378 LINE",
"222 556 LINE SMOOTH",
"226 627 OFFCURVE",
"232 664 OFFCURVE",
"297 667 CURVE",
"299 700 LINE",
"78 700 LINE",
"76 656 LINE",
"148 660 LINE",
"145 640 OFFCURVE",
"143 615 OFFCURVE",
"141 588 CURVE SMOOTH",
"118 156 LINE SMOOTH",
"114 85 OFFCURVE",
"118 36 OFFCURVE",
"43 33 CURVE",
"41 0 LINE",
"262 0 LINE",
"264 44 LINE",
"192 40 LINE",
"195 57 OFFCURVE",
"197 83 OFFCURVE",
"199 119 CURVE SMOOTH",
"210 334 LINE",
"569 338 LINE",
"559 156 LINE",
"556 85 OFFCURVE",
"559 36 OFFCURVE",
"484 33 CURVE",
"482 0 LINE",
"703 0 LINE",
"705 44 LINE",
"633 40 LINE",
"636 57 OFFCURVE",
"638 83 OFFCURVE",
"640 119 CURVE SMOOTH",
"663 557 LINE SMOOTH",
"667 628 OFFCURVE",
"673 664 OFFCURVE",
"738 667 CURVE",
"740 700 LINE"
);
}
);
width = 773;
}
);
leftKerningGroup = I;
rightKerningGroup = I;
unicode = 0048;
},
{
glyphname = I;
layers = (
{
anchors = (
{
name = ogonek;
position = "{262, 0}";
},
{
name = top;
position = "{197, 702}";
}
);
layerId = "13AA25AE-C1F8-404A-9DC4-1A2868689295";
name = "Light Italic";
paths = (
{
closed = 1;
nodes = (
"78 700 LINE",
"76 656 LINE",
"148 660 LINE",
"145 640 OFFCURVE",
"142 615 OFFCURVE",
"141 588 CURVE SMOOTH",
"118 156 LINE",
"115 85 OFFCURVE",
"118 36 OFFCURVE",
"43 33 CURVE",
"41 0 LINE",
"262 0 LINE",
"264 44 LINE",
"192 40 LINE",
"195 57 OFFCURVE",
"198 83 OFFCURVE",
"199 119 CURVE SMOOTH",
"222 554 LINE SMOOTH",
"225 625 OFFCURVE",
"227 664 OFFCURVE",
"297 667 CURVE",
"299 700 LINE"
);
}
);
width = 333;
}
);
leftKerningGroup = I;
rightKerningGroup = I;
unicode = 0049;
},
{
glyphname = Icircumflex;
layers = (
{
anchors = (
{
name = _top;
position = "{187, 702}";
}
);
layerId = "13AA25AE-C1F8-404A-9DC4-1A2868689295";
name = "Light Italic";
paths = (
{
closed = 1;
nodes = (
"78 700 LINE",
"76 656 LINE",
"148 660 LINE",
"145 640 OFFCURVE",
"142 615 OFFCURVE",
"141 588 CURVE SMOOTH",
"118 156 LINE",
"115 85 OFFCURVE",
"118 36 OFFCURVE",
"43 33 CURVE",
"41 0 LINE",
"262 0 LINE",
"264 44 LINE",
"192 40 LINE",
"195 57 OFFCURVE",
"198 83 OFFCURVE",
"199 119 CURVE SMOOTH",
"222 554 LINE SMOOTH",
"225 625 OFFCURVE",
"227 664 OFFCURVE",
"297 667 CURVE",
"299 700 LINE"
);
},
{
closed = 1;
nodes = (
"32 792 LINE",
"48 772 LINE",
"189 852 LINE",
"191 852 LINE",
"335 764 LINE",
"354 791 LINE",
"200 932 LINE",
"199 932 LINE"
);
}
);
width = 332;
}
);
leftKerningGroup = I;
rightKerningGroup = I;
unicode = 00CE;
},
{
glyphname = Idieresis;
layers = (
{
layerId = "13AA25AE-C1F8-404A-9DC4-1A2868689295";
name = "Light Italic";
paths = (
{
closed = 1;
nodes = (
"78 700 LINE",
"76 656 LINE",
"148 660 LINE",
"145 640 OFFCURVE",
"142 615 OFFCURVE",
"141 588 CURVE SMOOTH",
"118 156 LINE",
"115 85 OFFCURVE",
"118 36 OFFCURVE",
"43 33 CURVE",
"41 0 LINE",
"262 0 LINE",
"264 44 LINE",
"192 40 LINE",
"195 57 OFFCURVE",
"198 83 OFFCURVE",
"199 119 CURVE SMOOTH",
"222 554 LINE SMOOTH",
"225 625 OFFCURVE",
"227 664 OFFCURVE",
"297 667 CURVE",
"299 700 LINE"
);
},
{
closed = 1;
nodes = (
"97 897 OFFCURVE",
"72 871 OFFCURVE",
"71 837 CURVE SMOOTH",
"70 804 OFFCURVE",
"90 778 OFFCURVE",
"118 778 CURVE SMOOTH",
"143 778 OFFCURVE",
"168 804 OFFCURVE",
"169 837 CURVE SMOOTH",
"170 871 OFFCURVE",
"152 897 OFFCURVE",
"125 897 CURVE SMOOTH"
);
},
{
closed = 1;
nodes = (
"250 897 OFFCURVE",
"225 871 OFFCURVE",
"223 837 CURVE SMOOTH",
"222 804 OFFCURVE",
"243 778 OFFCURVE",
"270 778 CURVE SMOOTH",
"295 778 OFFCURVE",
"320 804 OFFCURVE",
"321 837 CURVE SMOOTH",
"323 871 OFFCURVE",
"304 897 OFFCURVE",
"277 897 CURVE SMOOTH"
);
}
);
width = 333;
}
);
leftKerningGroup = I;
rightKerningGroup = I;
unicode = 00CF;
},
{
glyphname = J;
layers = (
{
anchors = (
{
name = top;
position = "{227, 702}";
}
);
layerId = "13AA25AE-C1F8-404A-9DC4-1A2868689295";
name = "Light Italic";
paths = (
{
closed = 1;
nodes = (
"99 700 LINE",
"97 656 LINE",
"199 660 LINE",
"173 153 LINE SMOOTH",
"167 34 OFFCURVE",
"129 25 OFFCURVE",
"106 24 CURVE SMOOTH",
"95 24 OFFCURVE",
"79 29 OFFCURVE",
"73 40 CURVE",
"76 46 OFFCURVE",
"77 56 OFFCURVE",
"77 63 CURVE SMOOTH",
"77 83 OFFCURVE",
"63 109 OFFCURVE",
"30 107 CURVE SMOOTH",
"2 105 OFFCURVE",
"-14 82 OFFCURVE",
"-14 55 CURVE SMOOTH",
"-14 2 OFFCURVE",
"39 -16 OFFCURVE",
"87 -16 CURVE SMOOTH",
"203 -16 OFFCURVE",
"250 56 OFFCURVE",
"260 244 CURVE SMOOTH",
"276 568 LINE SMOOTH",
"279 624 OFFCURVE",
"292 667 OFFCURVE",
"358 667 CURVE",
"361 700 LINE"
);
}
);
width = 367;
}
);
leftKerningGroup = J;
rightKerningGroup = J;
unicode = 004A;
},
{
glyphname = K;
layers = (
{
anchors = (
{
name = bottom;
position = "{320, 0}";
},
{
name = top;
position = "{368, 702}";
}
);
layerId = "13AA25AE-C1F8-404A-9DC4-1A2868689295";
name = "Light Italic";
paths = (
{
closed = 1;
nodes = (
"440 700 LINE",
"438 659 LINE",
"501 661 LINE",
"501 660 LINE",
"469 638 OFFCURVE",
"442 604 OFFCURVE",
"424 577 CURVE SMOOTH",
"291 380 LINE",
"213 380 LINE",
"222 554 LINE SMOOTH",
"226 625 OFFCURVE",
"232 664 OFFCURVE",
"297 667 CURVE",
"299 700 LINE",
"78 700 LINE",
"76 656 LINE",
"148 660 LINE",
"145 640 OFFCURVE",
"143 615 OFFCURVE",
"141 588 CURVE SMOOTH",
"118 156 LINE",
"115 85 OFFCURVE",
"118 36 OFFCURVE",
"43 33 CURVE",
"41 0 LINE",
"262 0 LINE",
"264 44 LINE",
"192 40 LINE",
"195 57 OFFCURVE",
"197 83 OFFCURVE",
"199 119 CURVE SMOOTH",
"211 340 LINE",
"264 341 LINE",
"287 326 OFFCURVE",
"313 293 OFFCURVE",
"335 260 CURVE SMOOTH",
"446 98 LINE",
"483 47 OFFCURVE",
"522 0 OFFCURVE",
"542 0 CURVE SMOOTH",
"660 0 LINE",
"662 33 LINE",
"619 33 OFFCURVE",
"591 41 OFFCURVE",
"521 142 CURVE",
"416 291 LINE SMOOTH",
"394 322 OFFCURVE",
"375 353 OFFCURVE",
"338 376 CURVE",
"444 532 LINE SMOOTH",
"518 641 OFFCURVE",
"569 660 OFFCURVE",
"653 667 CURVE",
"655 700 LINE"
);
}
);
width = 667;
}
);
leftKerningGroup = I;
rightKerningGroup = K;
unicode = 004B;
},
{
glyphname = L;
layers = (
{
anchors = (
{
name = bottom;
position = "{275, 0}";
},
{
name = top;
position = "{192, 702}";
}
);
layerId = "13AA25AE-C1F8-404A-9DC4-1A2868689295";
name = "Light Italic";
paths = (
{
closed = 1;
nodes = (
"77 700 LINE",
"77 656 LINE",
"148 660 LINE",
"144 640 OFFCURVE",
"143 615 OFFCURVE",
"141 588 CURVE SMOOTH",
"117 156 LINE SMOOTH",
"113 85 OFFCURVE",
"117 36 OFFCURVE",
"42 33 CURVE",
"40 0 LINE",
"532 0 LINE",
"549 207 LINE",
"515 207 LINE",
"509 88 OFFCURVE",
"462 42 OFFCURVE",
"378 40 CURVE SMOOTH",
"191 37 LINE",
"194 54 OFFCURVE",
"196 79 OFFCURVE",
"198 115 CURVE SMOOTH",
"221 544 LINE",
"224 615 OFFCURVE",
"226 664 OFFCURVE",
"296 667 CURVE",
"298 700 LINE"
);
}
);
width = 577;
}
);
leftKerningGroup = I;
rightKerningGroup = L;
unicode = 004C;
},
{
glyphname = Lslash;
layers = (
{
layerId = "13AA25AE-C1F8-404A-9DC4-1A2868689295";
name = "Light Italic";
paths = (
{
closed = 1;
nodes = (
"78 700 LINE",
"78 656 LINE",
"149 660 LINE",
"145 640 OFFCURVE",
"144 615 OFFCURVE",
"142 588 CURVE SMOOTH",
"128 343 LINE",
"47 284 LINE",
"44 228 LINE",
"125 288 LINE",
"118 156 LINE SMOOTH",
"114 85 OFFCURVE",
"118 36 OFFCURVE",
"43 33 CURVE",
"41 0 LINE",
"533 0 LINE",
"550 207 LINE",
"516 207 LINE",
"510 88 OFFCURVE",
"463 42 OFFCURVE",
"379 40 CURVE SMOOTH",
"192 37 LINE",
"195 54 OFFCURVE",
"197 79 OFFCURVE",
"199 115 CURVE SMOOTH",
"212 352 LINE",
"314 427 LINE",
"317 481 LINE",
"215 406 LINE",
"222 544 LINE",
"225 615 OFFCURVE",
"227 664 OFFCURVE",
"297 667 CURVE",
"299 700 LINE"
);
}
);
width = 577;
}
);
leftKerningGroup = I;
rightKerningGroup = L;
unicode = 0141;
},
{
glyphname = M;
layers = (
{
layerId = "13AA25AE-C1F8-404A-9DC4-1A2868689295";
name = "Light Italic";
paths = (
{
closed = 1;
nodes = (
"726 700 LINE",
"663 558 OFFCURVE",
"579 395 OFFCURVE",
"515 251 CURVE SMOOTH",
"499 215 OFFCURVE",
"474 158 OFFCURVE",
"457 122 CURVE",
"455 122 LINE",
"380 316 OFFCURVE",
"319 491 OFFCURVE",
"238 700 CURVE",
"89 700 LINE",
"87 657 LINE",
"159 660 LINE",
"105 125 LINE",
"100 76 OFFCURVE",
"94 34 OFFCURVE",
"32 33 CURVE",
"30 0 LINE",
"220 0 LINE",
"223 44 LINE",
"147 40 LINE",
"151 65 OFFCURVE",
"154 95 OFFCURVE",
"157 125 CURVE SMOOTH",
"183 395 LINE SMOOTH",
"188 453 OFFCURVE",
"193 518 OFFCURVE",
"196 593 CURVE",
"198 593 LINE",
"216 531 OFFCURVE",
"223 514 OFFCURVE",
"242 462 CURVE SMOOTH",
"300 305 OFFCURVE",
"353 147 OFFCURVE",
"415 -10 CURVE",
"444 -10 LINE",
"682 503 LINE",
"717 580 LINE",
"719 580 LINE",
"718 551 OFFCURVE",
"718 523 OFFCURVE",
"718 494 CURVE SMOOTH",
"718 152 LINE SMOOTH",
"718 79 OFFCURVE",
"711 38 OFFCURVE",
"656 33 CURVE",
"648 33 LINE",
"646 0 LINE",
"866 0 LINE",
"869 44 LINE",
"795 40 LINE",
"796 58 OFFCURVE",
"797 79 OFFCURVE",
"797 103 CURVE SMOOTH",
"794 558 LINE",
"793 640 OFFCURVE",
"818 668 OFFCURVE",
"868 667 CURVE",
"870 700 LINE"
);
}
);
width = 917;
}
);
unicode = 004D;
},
{
glyphname = N;
layers = (
{
anchors = (
{
name = bottom;
position = "{368, 0}";
},
{
name = top;
position = "{405, 702}";
}
);
layerId = "13AA25AE-C1F8-404A-9DC4-1A2868689295";
name = "Light Italic";
paths = (
{
closed = 1;
nodes = (
"559 700 LINE",
"557 656 LINE",
"629 660 LINE",
"626 641 OFFCURVE",
"624 617 OFFCURVE",
"622 588 CURVE SMOOTH",
"601 128 LINE",
"599 128 LINE",
"197 700 LINE",
"78 700 LINE",
"76 656 LINE",
"143 660 LINE",
"116 112 LINE SMOOTH",
"115 81 OFFCURVE",
"107 33 OFFCURVE",
"46 33 CURVE",
"45 0 LINE",
"228 0 LINE",
"230 44 LINE",
"158 40 LINE",
"163 71 OFFCURVE",
"163 105 OFFCURVE",
"165 139 CURVE SMOOTH",
"181 573 LINE",
"183 573 LINE",
"592 -11 LINE",
"640 -11 LINE",
"668 544 LINE SMOOTH",
"672 615 OFFCURVE",
"666 664 OFFCURVE",
"741 667 CURVE",
"743 700 LINE"
);
}
);
width = 762;
}
);
leftKerningGroup = I;
rightKerningGroup = N;
unicode = 004E;
},
{
glyphname = O;
layers = (
{
anchors = (
{
name = top;
position = "{417, 702}";
}
);
layerId = "13AA25AE-C1F8-404A-9DC4-1A2868689295";
name = "Light Italic";
paths = (
{
closed = 1;
nodes = (
"191 716 OFFCURVE",
"49 533 OFFCURVE",
"49 327 CURVE SMOOTH",
"49 165 OFFCURVE",
"147 -16 OFFCURVE",
"382 -16 CURVE SMOOTH",
"627 -16 OFFCURVE",
"746 199 OFFCURVE",
"746 369 CURVE SMOOTH",
"746 532 OFFCURVE",
"648 716 OFFCURVE",
"413 716 CURVE SMOOTH"
);
},
{
closed = 1;
nodes = (
"567 676 OFFCURVE",
"650 510 OFFCURVE",
"650 353 CURVE SMOOTH",
"650 200 OFFCURVE",
"559 25 OFFCURVE",
"387 25 CURVE SMOOTH",
"208 25 OFFCURVE",
"143 213 OFFCURVE",
"145 349 CURVE SMOOTH",
"146 503 OFFCURVE",
"241 676 OFFCURVE",
"408 676 CURVE SMOOTH"
);
}
);
width = 788;
}
);
leftKerningGroup = O;
rightKerningGroup = O;
unicode = 004F;
},
{
glyphname = Oslash;
layers = (
{
layerId = "13AA25AE-C1F8-404A-9DC4-1A2868689295";
name = "Light Italic";
paths = (
{
closed = 1;
nodes = (
"582 675 LINE",
"536 701 OFFCURVE",
"479 716 OFFCURVE",
"412 716 CURVE SMOOTH",
"190 716 OFFCURVE",
"48 533 OFFCURVE",
"48 327 CURVE SMOOTH",
"48 222 OFFCURVE",
"89 109 OFFCURVE",
"182 42 CURVE",
"124 -50 LINE",
"168 -77 LINE",
"228 16 LINE",
"271 -4 OFFCURVE",
"321 -16 OFFCURVE",
"381 -16 CURVE SMOOTH",
"626 -16 OFFCURVE",
"745 199 OFFCURVE",
"745 369 CURVE SMOOTH",
"745 467 OFFCURVE",
"709 572 OFFCURVE",
"630 641 CURVE",
"682 721 LINE",
"632 755 LINE"
);
},
{
closed = 1;
nodes = (
"463 676 OFFCURVE",
"510 655 OFFCURVE",
"547 621 CURVE",
"220 103 LINE",
"165 170 OFFCURVE",
"142 269 OFFCURVE",
"144 349 CURVE",
"146 503 OFFCURVE",
"240 676 OFFCURVE",
"407 676 CURVE SMOOTH"
);
},
{
closed = 1;
nodes = (
"628 513 OFFCURVE",
"649 432 OFFCURVE",
"649 353 CURVE SMOOTH",
"649 200 OFFCURVE",
"558 25 OFFCURVE",
"386 25 CURVE SMOOTH",
"335 25 OFFCURVE",
"293 40 OFFCURVE",
"259 65 CURVE",
"587 574 LINE"
);
}
);
width = 787;
}
);
leftKerningGroup = O;
rightKerningGroup = O;
unicode = 00D8;
},
{
glyphname = OE;
layers = (
{
layerId = "13AA25AE-C1F8-404A-9DC4-1A2868689295";
name = "Light Italic";
paths = (
{
closed = 1;
nodes = (
"177 710 OFFCURVE",
"59 517 OFFCURVE",
"49 329 CURVE SMOOTH",
"39 130 OFFCURVE",
"163 -16 OFFCURVE",
"366 -16 CURVE SMOOTH",
"405 -16 OFFCURVE",
"452 -11 OFFCURVE",
"504 0 CURVE",
"946 0 LINE",
"962 195 LINE",
"928 195 LINE",
"922 76 OFFCURVE",
"864 34 OFFCURVE",
"777 37 CURVE SMOOTH",
"585 43 LINE",
"588 60 OFFCURVE",
"591 85 OFFCURVE",
"592 121 CURVE",
"604 343 LINE",
"626 346 OFFCURVE",
"655 347 OFFCURVE",
"678 347 CURVE SMOOTH",
"762 347 OFFCURVE",
"796 347 OFFCURVE",
"792 259 CURVE",
"826 259 LINE",
"836 477 LINE",
"803 477 LINE",
"799 389 OFFCURVE",
"765 383 OFFCURVE",
"681 383 CURVE SMOOTH",
"606 383 LINE",
"615 544 LINE SMOOTH",
"620 625 OFFCURVE",
"623 661 OFFCURVE",
"697 663 CURVE SMOOTH",
"783 665 LINE SMOOTH",
"858 667 OFFCURVE",
"917 643 OFFCURVE",
"912 525 CURVE",
"944 525 LINE",
"948 700 LINE",
"542 700 LINE",
"499 708 OFFCURVE",
"451 717 OFFCURVE",
"412 716 CURVE SMOOTH"
);
},
{
closed = 1;
nodes = (
"454 674 OFFCURVE",
"501 666 OFFCURVE",
"539 651 CURVE",
"507 47 LINE",
"466 36 OFFCURVE",
"435 31 OFFCURVE",
"398 31 CURVE SMOOTH",
"227 31 OFFCURVE",
"134 155 OFFCURVE",
"143 344 CURVE SMOOTH",
"151 550 OFFCURVE",
"273 674 OFFCURVE",
"416 674 CURVE SMOOTH"
);
}
);
width = 1012;
}
);
leftKerningGroup = O;
rightKerningGroup = E;
unicode = 0152;
},
{
glyphname = P;
layers = (
{
layerId = "13AA25AE-C1F8-404A-9DC4-1A2868689295";
name = "Light Italic";
paths = (
{
closed = 1;
nodes = (
"219 702 OFFCURVE",
"148 701 OFFCURVE",
"78 700 CURVE",
"75 656 LINE",
"148 660 LINE",
"145 640 OFFCURVE",
"143 615 OFFCURVE",
"141 588 CURVE SMOOTH",
"118 156 LINE",
"115 85 OFFCURVE",
"118 36 OFFCURVE",
"43 33 CURVE",
"41 0 LINE",
"282 0 LINE",
"284 45 LINE",
"192 40 LINE",
"195 57 OFFCURVE",
"197 83 OFFCURVE",
"199 119 CURVE SMOOTH",
"207 264 LINE",
"220 263 OFFCURVE",
"239 263 OFFCURVE",
"246 263 CURVE SMOOTH",
"520 263 OFFCURVE",
"584 402 OFFCURVE",
"585 506 CURVE",
"585 634 OFFCURVE",
"490 702 OFFCURVE",
"297 702 CURVE SMOOTH"
);
},
{
closed = 1;
nodes = (
"415 663 OFFCURVE",
"497 615 OFFCURVE",
"491 489 CURVE SMOOTH",
"485 372 OFFCURVE",
"388 303 OFFCURVE",
"274 303 CURVE SMOOTH",
"250 303 OFFCURVE",
"234 303 OFFCURVE",
"209 306 CURVE",
"222 549 LINE",
"225 620 OFFCURVE",
"230 663 OFFCURVE",
"293 663 CURVE SMOOTH"
);
}
);
width = 597;
}
);
leftKerningGroup = I;
unicode = 0050;
},
{
glyphname = Thorn;
layers = (
{
layerId = "13AA25AE-C1F8-404A-9DC4-1A2868689295";
name = "Light Italic";
paths = (
{
closed = 1;
nodes = (
"78 700 LINE",
"76 656 LINE",
"148 660 LINE",
"145 640 OFFCURVE",
"143 615 OFFCURVE",
"141 588 CURVE SMOOTH",
"118 156 LINE",
"115 85 OFFCURVE",
"118 36 OFFCURVE",
"43 33 CURVE",
"41 0 LINE",
"262 0 LINE",
"264 44 LINE",
"192 40 LINE",
"196 57 OFFCURVE",
"197 71 OFFCURVE",
"199 107 CURVE SMOOTH",
"201 159 LINE",
"217 159 LINE SMOOTH",
"491 159 OFFCURVE",
"559 298 OFFCURVE",
"559 392 CURVE SMOOTH",
"559 508 OFFCURVE",
"468 578 OFFCURVE",
"275 578 CURVE SMOOTH",
"259 578 OFFCURVE",
"241 578 OFFCURVE",
"223 577 CURVE",
"227 633 OFFCURVE",
"235 664 OFFCURVE",
"297 667 CURVE",
"299 700 LINE"
);
},
{
closed = 1;
nodes = (
"389 539 OFFCURVE",
"472 491 OFFCURVE",
"465 375 CURVE SMOOTH",
"459 268 OFFCURVE",
"374 199 OFFCURVE",
"248 198 CURVE SMOOTH",
"231 198 OFFCURVE",
"218 197 OFFCURVE",
"203 198 CURVE",
"221 538 LINE",
"244 539 OFFCURVE",
"262 539 OFFCURVE",
"267 539 CURVE SMOOTH"
);
}
);
width = 577;
}
);
leftKerningGroup = I;
unicode = 00DE;
},
{
glyphname = Q;
layers = (
{
layerId = "13AA25AE-C1F8-404A-9DC4-1A2868689295";
name = "Light Italic";
paths = (
{
closed = 1;
nodes = (
"191 716 OFFCURVE",
"49 533 OFFCURVE",
"49 327 CURVE SMOOTH",
"49 165 OFFCURVE",
"147 -16 OFFCURVE",
"382 -16 CURVE SMOOTH",
"461 -16 OFFCURVE",
"485 -72 OFFCURVE",
"585 -162 CURVE SMOOTH",
"647 -218 OFFCURVE",
"676 -218 OFFCURVE",
"748 -218 CURVE SMOOTH",
"780 -218 LINE",
"780 -185 LINE",
"774 -185 LINE SMOOTH",
"741 -185 OFFCURVE",
"713 -157 OFFCURVE",
"620 -71 CURVE SMOOTH",
"556 -12 OFFCURVE",
"519 -8 OFFCURVE",
"463 -8 CURVE",
"463 -7 LINE",
"653 34 OFFCURVE",
"746 219 OFFCURVE",
"746 369 CURVE SMOOTH",
"746 532 OFFCURVE",
"648 716 OFFCURVE",
"413 716 CURVE SMOOTH"
);
},
{
closed = 1;
nodes = (
"567 676 OFFCURVE",
"650 510 OFFCURVE",
"650 353 CURVE SMOOTH",
"650 200 OFFCURVE",
"559 25 OFFCURVE",
"387 25 CURVE SMOOTH",
"208 25 OFFCURVE",
"143 213 OFFCURVE",
"145 349 CURVE SMOOTH",
"146 503 OFFCURVE",
"241 676 OFFCURVE",
"408 676 CURVE SMOOTH"
);
}
);
width = 788;
}
);
leftKerningGroup = O;
unicode = 0051;
},
{
glyphname = R;
layers = (
{
anchors = (
{
name = bottom;
position = "{312, 0}";
},
{
name = top;
position = "{323, 702}";
}
);
layerId = "13AA25AE-C1F8-404A-9DC4-1A2868689295";
name = "Light Italic";
paths = (
{
closed = 1;
nodes = (
"226 703 OFFCURVE",
"153 701 OFFCURVE",
"78 700 CURVE",
"75 656 LINE",
"148 660 LINE",
"145 640 OFFCURVE",
"142 615 OFFCURVE",
"141 588 CURVE",
"118 156 LINE",
"115 85 OFFCURVE",
"118 36 OFFCURVE",
"43 33 CURVE",
"41 0 LINE",
"262 0 LINE",
"264 44 LINE",
"192 40 LINE",
"195 57 OFFCURVE",
"197 83 OFFCURVE",
"199 119 CURVE SMOOTH",
"209 313 LINE",
"215 313 OFFCURVE",
"239 312 OFFCURVE",
"248 312 CURVE SMOOTH",
"260 312 OFFCURVE",
"271 312 OFFCURVE",
"282 313 CURVE",
"308 287 OFFCURVE",
"328 247 OFFCURVE",
"344 218 CURVE SMOOTH",
"405 111 LINE",
"431 67 OFFCURVE",
"458 25 OFFCURVE",
"488 0 CURVE",
"610 0 LINE",
"612 33 LINE",
"549 33 OFFCURVE",
"526 74 OFFCURVE",
"495 128 CURVE SMOOTH",
"433 235 LINE SMOOTH",
"411 273 OFFCURVE",
"392 302 OFFCURVE",
"367 321 CURVE",
"367 321 OFFCURVE",
"367 322 OFFCURVE",
"367 322 CURVE",
"520 353 OFFCURVE",
"557 443 OFFCURVE",
"561 519 CURVE",
"567 625 OFFCURVE",
"496 699 OFFCURVE",
"303 702 CURVE SMOOTH"
);
},
{
closed = 1;
nodes = (
"420 664 OFFCURVE",
"473 612 OFFCURVE",
"468 511 CURVE SMOOTH",
"462 396 OFFCURVE",
"383 354 OFFCURVE",
"273 350 CURVE SMOOTH",
"250 349 OFFCURVE",
"232 350 OFFCURVE",
"211 352 CURVE",
"222 549 LINE",
"225 620 OFFCURVE",
"227 664 OFFCURVE",
"297 664 CURVE SMOOTH"
);
}
);
width = 625;
}
);
leftKerningGroup = I;
rightKerningGroup = R;
unicode = 0052;
},
{
glyphname = S;
layers = (
{
anchors = (
{
name = bottom;
position = "{292, 0}";
},
{
name = top;
position = "{317, 702}";
}
);
layerId = "13AA25AE-C1F8-404A-9DC4-1A2868689295";
name = "Light Italic";
paths = (
{
closed = 1;
nodes = (
"122 716 OFFCURVE",
"76 607 OFFCURVE",
"72 539 CURVE SMOOTH",
"59 308 OFFCURVE",
"441 349 OFFCURVE",
"431 150 CURVE SMOOTH",
"427 69 OFFCURVE",
"356 26 OFFCURVE",
"278 26 CURVE SMOOTH",
"172 26 OFFCURVE",
"92 82 OFFCURVE",
"91 205 CURVE",
"52 205 LINE",
"47 -8 LINE",
"99 -8 LINE",
"96 27 LINE",
"146 -7 OFFCURVE",
"220 -16 OFFCURVE",
"271 -16 CURVE SMOOTH",
"420 -16 OFFCURVE",
"510 62 OFFCURVE",
"515 173 CURVE",
"528 410 OFFCURVE",
"142 375 OFFCURVE",
"152 558 CURVE SMOOTH",
"155 621 OFFCURVE",
"205 676 OFFCURVE",
"288 676 CURVE SMOOTH",
"405 676 OFFCURVE",
"456 584 OFFCURVE",
"457 488 CURVE",
"493 488 LINE",
"504 708 LINE",
"453 708 LINE",
"455 665 LINE",
"402 705 OFFCURVE",
"335 716 OFFCURVE",
"284 716 CURVE SMOOTH"
);
}
);
width = 566;
}
);
leftKerningGroup = S;
rightKerningGroup = S;
unicode = 0053;
},
{
glyphname = T;
layers = (
{
anchors = (
{
name = bottom;
position = "{320, 0}";
},
{
name = center;
position = "{327, 351}";
},
{
name = top;
position = "{354, 702}";
}
);
layerId = "13AA25AE-C1F8-404A-9DC4-1A2868689295";
name = "Light Italic";
paths = (
{
closed = 1;
nodes = (
"53 700 LINE",
"36 489 LINE",
"73 489 LINE",
"79 607 OFFCURVE",
"113 662 OFFCURVE",
"197 662 CURVE SMOOTH",
"300 663 LINE",
"269 156 LINE SMOOTH",
"265 88 OFFCURVE",
"260 36 OFFCURVE",
"195 33 CURVE",
"193 0 LINE",
"424 0 LINE",
"426 44 LINE",
"343 40 LINE",
"346 57 OFFCURVE",
"348 83 OFFCURVE",
"350 119 CURVE SMOOTH",
"383 663 LINE",
"468 664 LINE SMOOTH",
"571 665 OFFCURVE",
"593 607 OFFCURVE",
"589 489 CURVE",
"627 489 LINE",
"632 700 LINE"
);
}
);
width = 636;
}
);
leftKerningGroup = T;
rightKerningGroup = T;
unicode = 0054;
},
{
glyphname = U;
layers = (
{
anchors = (
{
name = ogonek;
position = "{480, 5}";
},
{
name = top;
position = "{408, 702}";
}
);
layerId = "13AA25AE-C1F8-404A-9DC4-1A2868689295";
name = "Light Italic";
paths = (
{
closed = 1;
nodes = (
"556 700 LINE",
"554 656 LINE",
"626 660 LINE",
"623 640 OFFCURVE",
"621 615 OFFCURVE",
"619 588 CURVE SMOOTH",
"601 306 LINE SMOOTH",
"590 150 OFFCURVE",
"525 41 OFFCURVE",
"381 41 CURVE SMOOTH",
"202 41 OFFCURVE",
"181 186 OFFCURVE",
"189 335 CURVE SMOOTH",
"202 588 LINE SMOOTH",
"204 615 OFFCURVE",
"208 667 OFFCURVE",
"276 667 CURVE",
"278 700 LINE",
"56 700 LINE",
"54 657 LINE",
"126 660 LINE",
"122 634 OFFCURVE",
"120 614 OFFCURVE",
"118 579 CURVE SMOOTH",
"105 340 LINE SMOOTH",
"92 93 OFFCURVE",
"152 -16 OFFCURVE",
"366 -16 CURVE SMOOTH",
"566 -16 OFFCURVE",
"642 137 OFFCURVE",
"652 311 CURVE SMOOTH",
"666 544 LINE",
"670 615 OFFCURVE",
"666 664 OFFCURVE",
"742 667 CURVE",
"743 700 LINE"
);
}
);
width = 744;
}
);
leftKerningGroup = U;
rightKerningGroup = U;
unicode = 0055;
},
{
glyphname = V;
layers = (
{
layerId = "13AA25AE-C1F8-404A-9DC4-1A2868689295";
name = "Light Italic";
paths = (
{
closed = 1;
nodes = (
"493 700 LINE",
"491 656 LINE",
"568 660 LINE",
"559 644 OFFCURVE",
"549 620 OFFCURVE",
"535 586 CURVE SMOOTH",
"511 527 OFFCURVE",
"475 442 OFFCURVE",
"407 275 CURVE SMOOTH",
"383 216 OFFCURVE",
"367 178 OFFCURVE",
"349 132 CURVE",
"347 132 LINE",
"332 177 OFFCURVE",
"305 250 OFFCURVE",
"276 325 CURVE SMOOTH",
"245 410 OFFCURVE",
"222 479 OFFCURVE",
"194 558 CURVE SMOOTH",
"170 624 OFFCURVE",
"183 662 OFFCURVE",
"251 666 CURVE",
"253 700 LINE",
"25 700 LINE",
"23 656 LINE",
"79 658 LINE",
"81 628 OFFCURVE",
"89 590 OFFCURVE",
"115 522 CURVE SMOOTH",
"311 -11 LINE",
"337 -11 LINE",
"562 525 OFFCURVE",
"570 547 OFFCURVE",
"579 569 CURVE SMOOTH",
"609 641 OFFCURVE",
"635 664 OFFCURVE",
"694 667 CURVE",
"696 700 LINE"
);
}
);
width = 665;
}
);
unicode = 0056;
},
{
glyphname = W;
layers = (
{
anchors = (
{
name = top;
position = "{543, 705}";
}
);
layerId = "13AA25AE-C1F8-404A-9DC4-1A2868689295";
name = "Light Italic";
paths = (
{
closed = 1;
nodes = (
"515 702 LINE",
"495 642 OFFCURVE",
"435 482 OFFCURVE",
"363 289 CURVE SMOOTH",
"353 262 OFFCURVE",
"328 197 OFFCURVE",
"312 152 CURVE",
"310 152 LINE",
"292 215 OFFCURVE",
"277 265 OFFCURVE",
"261 325 CURVE SMOOTH",
"240 406 OFFCURVE",
"216 470 OFFCURVE",
"197 558 CURVE SMOOTH",
"179 638 OFFCURVE",
"190 663 OFFCURVE",
"268 667 CURVE",
"270 700 LINE",
"30 700 LINE",
"28 656 LINE",
"84 658 LINE",
"88 628 OFFCURVE",
"99 592 OFFCURVE",
"119 522 CURVE SMOOTH",
"270 -11 LINE",
"296 -11 LINE",
"501 531 LINE",
"505 531 LINE",
"515 491 OFFCURVE",
"525 452 OFFCURVE",
"545 383 CURVE SMOOTH",
"659 -11 LINE",
"685 -11 LINE",
"757 162 OFFCURVE",
"822 338 OFFCURVE",
"893 519 CURVE SMOOTH",
"941 642 OFFCURVE",
"956 659 OFFCURVE",
"1024 667 CURVE",
"1026 700 LINE",
"823 700 LINE",
"821 656 LINE",
"901 659 LINE",
"887 636 OFFCURVE",
"875 608 OFFCURVE",
"867 586 CURVE SMOOTH",
"843 524 OFFCURVE",
"822 474 OFFCURVE",
"749 274 CURVE SMOOTH",
"731 227 OFFCURVE",
"713 181 OFFCURVE",
"698 143 CURVE",
"696 143 LINE",
"680 206 OFFCURVE",
"663 265 OFFCURVE",
"646 325 CURVE SMOOTH",
"625 406 OFFCURVE",
"563 614 OFFCURVE",
"542 702 CURVE"
);
}
);
width = 994;
}
);
unicode = 0057;
},
{
glyphname = X;
layers = (
{
layerId = "13AA25AE-C1F8-404A-9DC4-1A2868689295";
name = "Light Italic";
paths = (
{
closed = 1;
nodes = (
"450 700 LINE",
"448 656 LINE",
"532 660 LINE",
"510 641 OFFCURVE",
"474 592 OFFCURVE",
"438 544 CURVE SMOOTH",
"334 405 LINE",
"286 476 OFFCURVE",
"241 544 OFFCURVE",
"219 584 CURVE SMOOTH",
"198 621 OFFCURVE",
"174 662 OFFCURVE",
"246 665 CURVE SMOOTH",
"290 667 LINE",
"292 700 LINE",
"32 700 LINE",
"30 656 LINE",
"86 658 LINE",
"105 604 OFFCURVE",
"118 581 OFFCURVE",
"284 338 CURVE",
"145 153 LINE SMOOTH",
"96 87 OFFCURVE",
"66 46 OFFCURVE",
"2 33 CURVE",
"0 0 LINE",
"196 0 LINE",
"198 44 LINE",
"115 39 LINE",
"149 77 OFFCURVE",
"176 117 OFFCURVE",
"202 153 CURVE SMOOTH",
"239 203 OFFCURVE",
"274 252 OFFCURVE",
"310 301 CURVE",
"369 215 OFFCURVE",
"417 148 OFFCURVE",
"444 106 CURVE SMOOTH",
"466 72 OFFCURVE",
"470 31 OFFCURVE",
"399 33 CURVE",
"397 0 LINE",
"643 0 LINE",
"645 44 LINE",
"587 42 LINE",
"566 75 OFFCURVE",
"544 105 OFFCURVE",
"523 135 CURVE SMOOTH",
"493 175 OFFCURVE",
"425 271 OFFCURVE",
"359 368 CURVE",
"481 528 LINE SMOOTH",
"527 588 OFFCURVE",
"581 658 OFFCURVE",
"645 667 CURVE",
"647 700 LINE"
);
}
);
width = 652;
}
);
unicode = 0058;
},
{
glyphname = Y;
layers = (
{
anchors = (
{
name = top;
position = "{359, 702}";
}
);
layerId = "13AA25AE-C1F8-404A-9DC4-1A2868689295";
name = "Light Italic";
paths = (
{
closed = 1;
nodes = (
"465 700 LINE",
"463 656 LINE",
"542 659 LINE",
"522 638 OFFCURVE",
"501 602 OFFCURVE",
"490 583 CURVE SMOOTH",
"442 502 OFFCURVE",
"400 432 OFFCURVE",
"348 341 CURVE",
"346 341 LINE",
"293 421 OFFCURVE",
"262 479 OFFCURVE",
"216 558 CURVE SMOOTH",
"180 622 OFFCURVE",
"183 667 OFFCURVE",
"275 667 CURVE",
"277 700 LINE",
"23 700 LINE",
"21 656 LINE",
"83 658 LINE",
"86 633 OFFCURVE",
"99 598 OFFCURVE",
"131 545 CURVE SMOOTH",
"289 270 LINE",
"283 156 LINE SMOOTH",
"280 88 OFFCURVE",
"284 36 OFFCURVE",
"209 33 CURVE",
"207 0 LINE",
"438 0 LINE",
"440 44 LINE",
"357 40 LINE",
"360 57 OFFCURVE",
"363 83 OFFCURVE",
"364 119 CURVE SMOOTH",
"363 120 OFFCURVE",
"372 258 OFFCURVE",
"374 300 CURVE",
"417 373 OFFCURVE",
"462 452 OFFCURVE",
"513 538 CURVE SMOOTH",
"564 623 OFFCURVE",
"601 663 OFFCURVE",
"667 667 CURVE",
"669 700 LINE"
);
}
);
width = 641;
}
);
leftKerningGroup = Y;
rightKerningGroup = Y;
unicode = 0059;
},
{
glyphname = Z;
layers = (
{
anchors = (
{
name = top;
position = "{347, 702}";
}
);
layerId = "13AA25AE-C1F8-404A-9DC4-1A2868689295";
name = "Light Italic";
paths = (
{
closed = 1;
nodes = (
"83 700 LINE",
"66 493 LINE",
"100 493 LINE",
"106 607 OFFCURVE",
"148 656 OFFCURVE",
"227 659 CURVE SMOOTH",
"485 663 LINE",
"458 634 OFFCURVE",
"437 603 OFFCURVE",
"416 573 CURVE SMOOTH",
"237 310 OFFCURVE",
"111 151 OFFCURVE",
"31 46 CURVE",
"28 0 LINE",
"541 0 LINE",
"558 205 LINE",
"524 205 LINE",
"518 93 OFFCURVE",
"448 42 OFFCURVE",
"360 41 CURVE SMOOTH",
"113 37 LINE",
"135 56 OFFCURVE",
"154 77 OFFCURVE",
"185 120 CURVE SMOOTH",
"577 665 LINE",
"579 700 LINE"
);
}
);
width = 612;
}
);
leftKerningGroup = Z;
rightKerningGroup = Z;
unicode = 005A;
},
{
glyphname = a;
layers = (
{
anchors = (
{
name = ogonek;
position = "{472, 5}";
},
{
name = top;
position = "{309, 512}";
}
);
layerId = "13AA25AE-C1F8-404A-9DC4-1A2868689295";
name = "Light Italic";
paths = (
{
closed = 1;
nodes = (
"134 511 OFFCURVE",
"37 350 OFFCURVE",
"37 163 CURVE SMOOTH",
"37 37 OFFCURVE",
"92 -11 OFFCURVE",
"164 -11 CURVE SMOOTH",
"219 -11 OFFCURVE",
"296 16 OFFCURVE",
"359 213 CURVE",
"362 213 LINE",
"352 163 OFFCURVE",
"344 117 OFFCURVE",
"344 79 CURVE SMOOTH",
"344 25 OFFCURVE",
"364 -11 OFFCURVE",
"418 -11 CURVE SMOOTH",
"498 -11 OFFCURVE",
"539 83 OFFCURVE",
"548 130 CURVE",
"520 136 LINE",
"500 65 OFFCURVE",
"469 39 OFFCURVE",
"447 39 CURVE SMOOTH",
"418 39 OFFCURVE",
"419 72 OFFCURVE",
"419 99 CURVE SMOOTH",
"419 164 OFFCURVE",
"442 335 OFFCURVE",
"463 494 CURVE",
"420 505 OFFCURVE",
"369 511 OFFCURVE",
"329 511 CURVE SMOOTH"
);
},
{
closed = 1;
nodes = (
"329 475 OFFCURVE",
"356 471 OFFCURVE",
"376 463 CURVE",
"375 284 OFFCURVE",
"277 33 OFFCURVE",
"186 33 CURVE SMOOTH",
"137 33 OFFCURVE",
"121 95 OFFCURVE",
"121 180 CURVE SMOOTH",
"121 327 OFFCURVE",
"177 475 OFFCURVE",
"298 475 CURVE SMOOTH"
);
}
);
width = 548;
}
);
leftKerningGroup = a;
rightKerningGroup = a;
unicode = 0061;
},
{
glyphname = ae;
layers = (
{
layerId = "13AA25AE-C1F8-404A-9DC4-1A2868689295";
name = "Light Italic";
paths = (
{
closed = 1;
nodes = (
"479 511 OFFCURVE",
"422 479 OFFCURVE",
"383 420 CURVE",
"381 420 LINE",
"360 476 OFFCURVE",
"321 511 OFFCURVE",
"255 511 CURVE SMOOTH",
"140 511 OFFCURVE",
"63 443 OFFCURVE",
"61 385 CURVE SMOOTH",
"60 360 OFFCURVE",
"77 343 OFFCURVE",
"100 342 CURVE SMOOTH",
"124 342 OFFCURVE",
"141 361 OFFCURVE",
"141 381 CURVE SMOOTH",
"141 391 OFFCURVE",
"140 402 OFFCURVE",
"132 412 CURVE",
"143 450 OFFCURVE",
"184 477 OFFCURVE",
"235 477 CURVE SMOOTH",
"322 477 OFFCURVE",
"330 399 OFFCURVE",
"324 316 CURVE SMOOTH",
"321 276 OFFCURVE",
"321 265 OFFCURVE",
"321 264 CURVE",
"185 270 OFFCURVE",
"26 214 OFFCURVE",
"26 97 CURVE SMOOTH",
"26 32 OFFCURVE",
"68 -11 OFFCURVE",
"154 -11 CURVE SMOOTH",
"217 -11 OFFCURVE",
"283 18 OFFCURVE",
"340 81 CURVE",
"376 15 OFFCURVE",
"423 -11 OFFCURVE",
"502 -11 CURVE SMOOTH",
"570 -11 OFFCURVE",
"649 23 OFFCURVE",
"710 141 CURVE",
"678 160 LINE",
"639 92 OFFCURVE",
"583 39 OFFCURVE",
"521 39 CURVE SMOOTH",
"429 39 OFFCURVE",
"396 117 OFFCURVE",
"396 230 CURVE",
"633 256 OFFCURVE",
"687 344 OFFCURVE",
"687 403 CURVE SMOOTH",
"687 428 OFFCURVE",
"676 511 OFFCURVE",
"554 511 CURVE SMOOTH"
);
},
{
closed = 1;
nodes = (
"316 194 OFFCURVE",
"319 151 OFFCURVE",
"327 114 CURVE",
"285 70 OFFCURVE",
"228 40 OFFCURVE",
"175 45 CURVE SMOOTH",
"145 48 OFFCURVE",
"107 64 OFFCURVE",
"109 113 CURVE SMOOTH",
"112 211 OFFCURVE",
"227 229 OFFCURVE",
"318 232 CURVE"
);
},
{
closed = 1;
nodes = (
"565 479 OFFCURVE",
"607 466 OFFCURVE",
"607 405 CURVE SMOOTH",
"607 319 OFFCURVE",
"502 276 OFFCURVE",
"396 266 CURVE",
"408 387 OFFCURVE",
"458 476 OFFCURVE",
"536 478 CURVE SMOOTH"
);
}
);
width = 747;
}
);
leftKerningGroup = a;
rightKerningGroup = e;
unicode = 00E6;
},
{
glyphname = b;
lastChange = "2016-09-09 12:55:20 +0000";
layers = (
{
layerId = "13AA25AE-C1F8-404A-9DC4-1A2868689295";
leftMetricsKey = l;
name = "Light Italic";
paths = (
{
closed = 1;
nodes = (
"185 755 LINE",
"169 741 OFFCURVE",
"146 728 OFFCURVE",
"58 728 CURVE",
"54 688 LINE",
"126 692 LINE",
"123 674 OFFCURVE",
"123 673 OFFCURVE",
"120 639 CURVE SMOOTH",
"100 407 OFFCURVE",
"94 270 OFFCURVE",
"76 10 CURVE",
"117 -6 OFFCURVE",
"174 -11 OFFCURVE",
"207 -11 CURVE SMOOTH",
"405 -11 OFFCURVE",
"484 143 OFFCURVE",
"484 327 CURVE SMOOTH",
"484 424 OFFCURVE",
"451 511 OFFCURVE",
"359 511 CURVE SMOOTH",
"299 511 OFFCURVE",
"219 491 OFFCURVE",
"166 298 CURVE",
"163 298 LINE",
"173 404 OFFCURVE",
"183 498 OFFCURVE",
"192 586 CURVE SMOOTH",
"197 631 OFFCURVE",
"205 699 OFFCURVE",
"214 755 CURVE"
);
},
{
closed = 1;
nodes = (
"377 466 OFFCURVE",
"396 410 OFFCURVE",
"398 319 CURVE SMOOTH",
"400 197 OFFCURVE",
"370 26 OFFCURVE",
"224 24 CURVE SMOOTH",
"198 24 OFFCURVE",
"166 31 OFFCURVE",
"150 47 CURVE",
"154 214 OFFCURVE",
"235 460 OFFCURVE",
"330 464 CURVE SMOOTH"
);
}
);
width = 530;
}
);
leftMetricsKey = l;
unicode = 0062;
},
{
glyphname = c;
layers = (
{
anchors = (
{
name = bottom;
position = "{253, 0}";
},
{
name = top;
position = "{282, 510}";
}
);
layerId = "13AA25AE-C1F8-404A-9DC4-1A2868689295";
name = "Light Italic";
paths = (
{
closed = 1;
nodes = (
"112 511 OFFCURVE",
"39 339 OFFCURVE",
"39 208 CURVE SMOOTH",
"39 58 OFFCURVE",
"114 -11 OFFCURVE",
"232 -11 CURVE SMOOTH",
"310 -11 OFFCURVE",
"386 31 OFFCURVE",
"437 147 CURVE",
"402 164 LINE",
"363 68 OFFCURVE",
"301 38 OFFCURVE",
"249 38 CURVE SMOOTH",
"178 38 OFFCURVE",
"127 91 OFFCURVE",
"127 231 CURVE SMOOTH",
"127 337 OFFCURVE",
"161 476 OFFCURVE",
"277 476 CURVE SMOOTH",
"316 476 OFFCURVE",
"349 460 OFFCURVE",
"356 423 CURVE",
"345 411 OFFCURVE",
"343 397 OFFCURVE",
"343 385 CURVE SMOOTH",
"343 370 OFFCURVE",
"354 344 OFFCURVE",
"386 345 CURVE SMOOTH",
"412 345 OFFCURVE",
"428 365 OFFCURVE",
"428 394 CURVE SMOOTH",
"428 460 OFFCURVE",
"364 511 OFFCURVE",
"278 511 CURVE SMOOTH"
);
}
);
width = 473;
}
);
leftKerningGroup = o;
rightKerningGroup = c;
unicode = 0063;
},
{
glyphname = ccedilla;
layers = (
{
layerId = "13AA25AE-C1F8-404A-9DC4-1A2868689295";
name = "Light Italic";
paths = (
{
closed = 1;
nodes = (
"112 511 OFFCURVE",
"39 339 OFFCURVE",
"39 208 CURVE SMOOTH",
"39 78 OFFCURVE",
"96 8 OFFCURVE",
"187 -7 CURVE",
"157 -100 LINE",
"191 -117 LINE",
"220 -97 OFFCURVE",
"271 -92 OFFCURVE",
"271 -133 CURVE SMOOTH",
"271 -172 OFFCURVE",
"211 -197 OFFCURVE",
"143 -209 CURVE",
"147 -240 LINE",
"216 -230 OFFCURVE",
"338 -204 OFFCURVE",
"345 -123 CURVE SMOOTH",
"348 -87 OFFCURVE",
"323 -58 OFFCURVE",
"279 -58 CURVE SMOOTH",
"256 -58 OFFCURVE",
"231 -65 OFFCURVE",
"212 -77 CURVE",
"235 -11 LINE",
"312 -10 OFFCURVE",
"387 33 OFFCURVE",
"437 147 CURVE",
"402 164 LINE",
"363 68 OFFCURVE",
"301 38 OFFCURVE",
"249 38 CURVE SMOOTH",
"178 38 OFFCURVE",
"127 91 OFFCURVE",
"127 231 CURVE SMOOTH",
"127 337 OFFCURVE",
"161 476 OFFCURVE",
"277 476 CURVE SMOOTH",
"316 476 OFFCURVE",
"349 460 OFFCURVE",
"356 423 CURVE",
"345 411 OFFCURVE",
"343 397 OFFCURVE",
"343 385 CURVE SMOOTH",
"343 370 OFFCURVE",
"354 344 OFFCURVE",
"386 345 CURVE SMOOTH",
"412 345 OFFCURVE",
"428 365 OFFCURVE",
"428 394 CURVE SMOOTH",
"428 460 OFFCURVE",
"364 511 OFFCURVE",
"278 511 CURVE SMOOTH"
);
}
);
width = 474;
}
);
leftKerningGroup = o;
rightKerningGroup = c;
unicode = 00E7;
},
{
glyphname = d;
layers = (
{
anchors = (
{
name = center;
position = "{291, 256}";
},
{
name = topright;
position = "{559, 512}";
}
);
layerId = "13AA25AE-C1F8-404A-9DC4-1A2868689295";
name = "Light Italic";
paths = (
{
closed = 1;
nodes = (
"469 755 LINE",
"453 741 OFFCURVE",
"430 728 OFFCURVE",
"342 728 CURVE",
"338 688 LINE",
"411 692 LINE",
"406 673 OFFCURVE",
"403 655 OFFCURVE",
"400 631 CURVE SMOOTH",
"394 584 OFFCURVE",
"389 543 OFFCURVE",
"385 507 CURVE",
"367 510 OFFCURVE",
"349 511 OFFCURVE",
"329 511 CURVE SMOOTH",
"136 511 OFFCURVE",
"38 374 OFFCURVE",
"38 179 CURVE SMOOTH",
"38 74 OFFCURVE",
"81 -11 OFFCURVE",
"173 -11 CURVE SMOOTH",
"232 -11 OFFCURVE",
"305 25 OFFCURVE",
"360 208 CURVE",
"363 208 LINE",
"353 158 OFFCURVE",
"348 117 OFFCURVE",
"348 79 CURVE SMOOTH",
"348 25 OFFCURVE",
"371 -11 OFFCURVE",
"425 -11 CURVE SMOOTH",
"505 -11 OFFCURVE",
"546 83 OFFCURVE",
"555 130 CURVE",
"526 136 LINE",
"506 65 OFFCURVE",
"476 39 OFFCURVE",
"454 39 CURVE SMOOTH",
"428 39 OFFCURVE",
"427 66 OFFCURVE",
"427 92 CURVE SMOOTH",
"427 164 OFFCURVE",
"442 299 OFFCURVE",
"456 427 CURVE",
"474 583 LINE SMOOTH",
"479 628 OFFCURVE",
"490 705 OFFCURVE",
"498 755 CURVE"
);
},
{
closed = 1;
nodes = (
"335 475 OFFCURVE",
"358 473 OFFCURVE",
"380 465 CURVE",
"372 391 OFFCURVE",
"365 335 OFFCURVE",
"355 289 CURVE SMOOTH",
"326 158 OFFCURVE",
"257 36 OFFCURVE",
"194 36 CURVE SMOOTH",
"142 36 OFFCURVE",
"124 105 OFFCURVE",
"124 196 CURVE SMOOTH",
"124 318 OFFCURVE",
"171 475 OFFCURVE",
"312 475 CURVE SMOOTH"
);
}
);
width = 555;
}
);
leftKerningGroup = o;
rightKerningGroup = d;
unicode = 0064;
},
{
color = 4;
glyphname = eth;
layers = (
{
layerId = "13AA25AE-C1F8-404A-9DC4-1A2868689295";
name = "Light Italic";
paths = (
{
closed = 1;
nodes = (
"273 736 LINE",
"230 755 OFFCURVE",
"179 763 OFFCURVE",
"119 758 CURVE",
"119 725 LINE",
"169 726 OFFCURVE",
"209 717 OFFCURVE",
"242 702 CURVE",
"179 632 LINE",
"213 600 LINE",
"278 679 LINE",
"342 627 OFFCURVE",
"365 541 OFFCURVE",
"372 454 CURVE",
"343 489 OFFCURVE",
"306 501 OFFCURVE",
"264 503 CURVE SMOOTH",
"146 507 OFFCURVE",
"40 392 OFFCURVE",
"40 209 CURVE SMOOTH",
"40 64 OFFCURVE",
"120 -11 OFFCURVE",
"210 -11 CURVE SMOOTH",
"340 -11 OFFCURVE",
"457 78 OFFCURVE",
"457 348 CURVE SMOOTH",
"457 508 OFFCURVE",
"414 648 OFFCURVE",
"310 716 CURVE",
"360 776 LINE",
"331 802 LINE"
);
},
{
closed = 1;
nodes = (
"311 463 OFFCURVE",
"350 442 OFFCURVE",
"375 393 CURVE",
"375 379 OFFCURVE",
"376 365 OFFCURVE",
"376 352 CURVE SMOOTH",
"376 229 OFFCURVE",
"343 27 OFFCURVE",
"228 27 CURVE SMOOTH",
"170 27 OFFCURVE",
"126 96 OFFCURVE",
"126 220 CURVE SMOOTH",
"126 379 OFFCURVE",
"204 463 OFFCURVE",
"264 463 CURVE SMOOTH"
);
}
);
width = 516;
}
);
unicode = 00F0;
},
{
glyphname = dcroat;
layers = (
{
components = (
{
name = d;
transform = "{1, 0, 0, 1, 0, 0}";
}
);
layerId = "13AA25AE-C1F8-404A-9DC4-1A2868689295";
name = "Light Italic";
paths = (
{
closed = 1;
nodes = (
"213 621 LINE",
"210 578 LINE",
"553 582 LINE",
"556 621 LINE"
);
}
);
width = 555;
}
);
leftKerningGroup = o;
rightKerningGroup = d;
unicode = 0111;
},
{
glyphname = e;
layers = (
{
anchors = (
{
name = bottom;
position = "{252, 0}";
},
{
name = ogonek;
position = "{307, 5}";
},
{
name = top;
position = "{277, 512}";
}
);
layerId = "13AA25AE-C1F8-404A-9DC4-1A2868689295";
name = "Light Italic";
paths = (
{
closed = 1;
nodes = (
"118 511 OFFCURVE",
"39 360 OFFCURVE",
"39 205 CURVE SMOOTH",
"39 75 OFFCURVE",
"97 -11 OFFCURVE",
"224 -11 CURVE SMOOTH",
"315 -11 OFFCURVE",
"382 36 OFFCURVE",
"438 141 CURVE",
"405 160 LINE",
"361 76 OFFCURVE",
"299 39 OFFCURVE",
"241 39 CURVE SMOOTH",
"163 39 OFFCURVE",
"127 103 OFFCURVE",
"127 227 CURVE",
"251 241 OFFCURVE",
"422 286 OFFCURVE",
"422 396 CURVE SMOOTH",
"422 481 OFFCURVE",
"353 511 OFFCURVE",
"282 511 CURVE SMOOTH"
);
},
{
closed = 1;
nodes = (
"316 477 OFFCURVE",
"339 443 OFFCURVE",
"339 401 CURVE SMOOTH",
"339 324 OFFCURVE",
"233 277 OFFCURVE",
"128 263 CURVE",
"135 371 OFFCURVE",
"176 477 OFFCURVE",
"268 477 CURVE SMOOTH"
);
}
);
width = 477;
}
);
leftKerningGroup = o;
rightKerningGroup = e;
unicode = 0065;
},
{
glyphname = f;
layers = (
{
layerId = "13AA25AE-C1F8-404A-9DC4-1A2868689295";
name = "Light Italic";
paths = (
{
closed = 1;
nodes = (
"183 757 OFFCURVE",
"138 645 OFFCURVE",
"117 500 CURVE",
"29 500 LINE",
"24 457 LINE",
"112 458 LINE",
"104 390 OFFCURVE",
"100 316 OFFCURVE",
"94 245 CURVE",
"70 -20 OFFCURVE",
"78 -232 OFFCURVE",
"-16 -232 CURVE SMOOTH",
"-28 -232 OFFCURVE",
"-38 -229 OFFCURVE",
"-45 -224 CURVE",
"-45 -197 OFFCURVE",
"-60 -179 OFFCURVE",
"-84 -178 CURVE SMOOTH",
"-114 -177 OFFCURVE",
"-125 -204 OFFCURVE",
"-125 -219 CURVE SMOOTH",
"-125 -253 OFFCURVE",
"-98 -271 OFFCURVE",
"-47 -271 CURVE SMOOTH",
"154 -271 OFFCURVE",
"154 -6 OFFCURVE",
"176 236 CURVE SMOOTH",
"183 313 OFFCURVE",
"186 390 OFFCURVE",
"190 459 CURVE",
"332 461 LINE",
"335 500 LINE",
"193 500 LINE",
"203 625 OFFCURVE",
"221 716 OFFCURVE",
"284 722 CURVE SMOOTH",
"295 723 OFFCURVE",
"309 721 OFFCURVE",
"313 718 CURVE",
"312 689 OFFCURVE",
"328 668 OFFCURVE",
"353 668 CURVE SMOOTH",
"383 667 OFFCURVE",
"393 693 OFFCURVE",
"393 708 CURVE SMOOTH",
"393 742 OFFCURVE",
"365 761 OFFCURVE",
"316 760 CURVE SMOOTH"
);
}
);
width = 325;
}
);
leftKerningGroup = f;
rightKerningGroup = f;
unicode = 0066;
},
{
glyphname = g;
layers = (
{
anchors = (
{
name = top;
position = "{294, 512}";
}
);
layerId = "13AA25AE-C1F8-404A-9DC4-1A2868689295";
name = "Light Italic";
paths = (
{
closed = 1;
nodes = (
"129 511 OFFCURVE",
"38 355 OFFCURVE",
"38 183 CURVE SMOOTH",
"38 72 OFFCURVE",
"80 -11 OFFCURVE",
"173 -11 CURVE SMOOTH",
"233 -11 OFFCURVE",
"302 20 OFFCURVE",
"358 213 CURVE",
"361 213 LINE",
"336 47 OFFCURVE",
"359 -236 OFFCURVE",
"169 -236 CURVE SMOOTH",
"145 -236 OFFCURVE",
"113 -228 OFFCURVE",
"100 -208 CURVE",
"104 -199 OFFCURVE",
"106 -190 OFFCURVE",
"106 -182 CURVE SMOOTH",
"106 -151 OFFCURVE",
"85 -136 OFFCURVE",
"61 -136 CURVE SMOOTH",
"34 -136 OFFCURVE",
"14 -159 OFFCURVE",
"14 -187 CURVE SMOOTH",
"16 -252 OFFCURVE",
"114 -271 OFFCURVE",
"162 -271 CURVE SMOOTH",
"309 -271 OFFCURVE",
"402 -179 OFFCURVE",
"418 14 CURVE SMOOTH",
"430 162 OFFCURVE",
"447 333 OFFCURVE",
"457 494 CURVE",
"425 505 OFFCURVE",
"375 511 OFFCURVE",
"330 511 CURVE SMOOTH"
);
},
{
closed = 1;
nodes = (
"338 475 OFFCURVE",
"362 471 OFFCURVE",
"380 462 CURVE",
"371 291 OFFCURVE",
"288 36 OFFCURVE",
"194 36 CURVE SMOOTH",
"140 36 OFFCURVE",
"122 108 OFFCURVE",
"122 200 CURVE SMOOTH",
"122 312 OFFCURVE",
"167 475 OFFCURVE",
"314 475 CURVE SMOOTH"
);
}
);
width = 518;
}
);
leftKerningGroup = g;
rightKerningGroup = g;
unicode = 0067;
},
{
glyphname = h;
lastChange = "2016-09-09 12:57:43 +0000";
layers = (
{
anchors = (
{
name = center;
position = "{304, 256}";
},
{
name = top;
position = "{168, 697}";
}
);
layerId = "13AA25AE-C1F8-404A-9DC4-1A2868689295";
leftMetricsKey = l;
name = "Light Italic";
paths = (
{
closed = 1;
nodes = (
"185 755 LINE",
"169 741 OFFCURVE",
"146 728 OFFCURVE",
"58 728 CURVE",
"54 688 LINE",
"124 692 LINE",
"121 675 OFFCURVE",
"120 673 OFFCURVE",
"115 639 CURVE SMOOTH",
"92 484 OFFCURVE",
"65 117 OFFCURVE",
"65 26 CURVE SMOOTH",
"65 15 OFFCURVE",
"65 9 OFFCURVE",
"66 0 CURVE",
"148 0 LINE",
"147 17 OFFCURVE",
"146 33 OFFCURVE",
"146 53 CURVE SMOOTH",
"146 238 OFFCURVE",
"248 464 OFFCURVE",
"337 464 CURVE SMOOTH",
"376 464 OFFCURVE",
"385 426 OFFCURVE",
"385 403 CURVE SMOOTH",
"385 298 OFFCURVE",
"356 160 OFFCURVE",
"356 85 CURVE SMOOTH",
"356 23 OFFCURVE",
"374 -11 OFFCURVE",
"437 -11 CURVE SMOOTH",
"517 -11 OFFCURVE",
"555 83 OFFCURVE",
"564 129 CURVE",
"539 136 LINE",
"519 64 OFFCURVE",
"488 39 OFFCURVE",
"466 39 CURVE SMOOTH",
"442 39 OFFCURVE",
"439 61 OFFCURVE",
"439 85 CURVE SMOOTH",
"439 143 OFFCURVE",
"467 271 OFFCURVE",
"467 381 CURVE SMOOTH",
"467 451 OFFCURVE",
"437 511 OFFCURVE",
"357 511 CURVE SMOOTH",
"292 511 OFFCURVE",
"228 470 OFFCURVE",
"160 288 CURVE",
"157 288 LINE",
"162 358 OFFCURVE",
"178 517 OFFCURVE",
"187 585 CURVE SMOOTH",
"193 630 OFFCURVE",
"206 705 OFFCURVE",
"214 755 CURVE"
);
}
);
width = 577;
}
);
leftKerningGroup = h;
leftMetricsKey = l;
rightKerningGroup = h;
unicode = 0068;
},
{
glyphname = i;
layers = (
{
layerId = "13AA25AE-C1F8-404A-9DC4-1A2868689295";
name = "Light Italic";
paths = (
{
closed = 1;
nodes = (
"53 511 OFFCURVE",
"16 417 OFFCURVE",
"7 370 CURVE",
"35 364 LINE",
"55 435 OFFCURVE",
"86 461 OFFCURVE",
"108 461 CURVE SMOOTH",
"131 461 OFFCURVE",
"136 433 OFFCURVE",
"136 416 CURVE SMOOTH",
"136 302 OFFCURVE",
"97 199 OFFCURVE",
"97 83 CURVE SMOOTH",
"97 21 OFFCURVE",
"126 -11 OFFCURVE",
"187 -11 CURVE SMOOTH",
"262 -11 OFFCURVE",
"299 74 OFFCURVE",
"311 130 CURVE",
"283 136 LINE",
"263 65 OFFCURVE",
"232 39 OFFCURVE",
"210 39 CURVE SMOOTH",
"188 39 OFFCURVE",
"179 54 OFFCURVE",
"179 81 CURVE SMOOTH",
"179 193 OFFCURVE",
"217 327 OFFCURVE",
"217 407 CURVE SMOOTH",
"217 469 OFFCURVE",
"189 511 OFFCURVE",
"133 511 CURVE SMOOTH"
);
},
{
closed = 1;
nodes = (
"161 727 OFFCURVE",
"136 704 OFFCURVE",
"136 670 CURVE SMOOTH",
"136 636 OFFCURVE",
"160 614 OFFCURVE",
"189 614 CURVE SMOOTH",
"218 614 OFFCURVE",
"243 636 OFFCURVE",
"243 670 CURVE SMOOTH",
"243 704 OFFCURVE",
"221 727 OFFCURVE",
"190 727 CURVE SMOOTH"
);
}
);
width = 324;
}
);
leftKerningGroup = i;
rightKerningGroup = i;
unicode = 0069;
},
{
glyphname = idotless;
layers = (
{
layerId = "13AA25AE-C1F8-404A-9DC4-1A2868689295";
name = "Light Italic";
paths = (
{
closed = 1;
nodes = (
"53 511 OFFCURVE",
"16 417 OFFCURVE",
"7 370 CURVE",
"35 364 LINE",
"55 435 OFFCURVE",
"86 461 OFFCURVE",
"108 461 CURVE SMOOTH",
"131 461 OFFCURVE",
"136 433 OFFCURVE",
"136 416 CURVE SMOOTH",
"136 302 OFFCURVE",
"97 199 OFFCURVE",
"97 83 CURVE SMOOTH",
"97 21 OFFCURVE",
"126 -11 OFFCURVE",
"187 -11 CURVE SMOOTH",
"262 -11 OFFCURVE",
"299 74 OFFCURVE",
"311 130 CURVE",
"283 136 LINE",
"263 65 OFFCURVE",
"232 39 OFFCURVE",
"210 39 CURVE SMOOTH",
"188 39 OFFCURVE",
"179 54 OFFCURVE",
"179 81 CURVE SMOOTH",
"179 193 OFFCURVE",
"217 327 OFFCURVE",
"217 407 CURVE SMOOTH",
"217 469 OFFCURVE",
"189 511 OFFCURVE",
"133 511 CURVE SMOOTH"
);
}
);
width = 324;
}
);
leftKerningGroup = i;
rightKerningGroup = i;
unicode = 0131;
},
{
glyphname = icircumflex;
layers = (
{
layerId = "13AA25AE-C1F8-404A-9DC4-1A2868689295";
name = "Light Italic";
paths = (
{
closed = 1;
nodes = (
"53 511 OFFCURVE",
"16 417 OFFCURVE",
"7 370 CURVE",
"35 364 LINE",
"55 435 OFFCURVE",
"86 461 OFFCURVE",
"108 461 CURVE SMOOTH",
"131 461 OFFCURVE",
"136 433 OFFCURVE",
"136 416 CURVE SMOOTH",
"136 302 OFFCURVE",
"97 199 OFFCURVE",
"97 83 CURVE SMOOTH",
"97 21 OFFCURVE",
"126 -11 OFFCURVE",
"187 -11 CURVE SMOOTH",
"262 -11 OFFCURVE",
"299 74 OFFCURVE",
"311 130 CURVE",
"283 136 LINE",
"263 65 OFFCURVE",
"232 39 OFFCURVE",
"210 39 CURVE SMOOTH",
"188 39 OFFCURVE",
"179 54 OFFCURVE",
"179 81 CURVE SMOOTH",
"179 193 OFFCURVE",
"217 327 OFFCURVE",
"217 407 CURVE SMOOTH",
"217 469 OFFCURVE",
"189 511 OFFCURVE",
"133 511 CURVE SMOOTH"
);
},
{
closed = 1;
nodes = (
"169 776 LINE",
"11 619 LINE",
"33 593 LINE",
"159 702 LINE",
"161 702 LINE",
"271 589 LINE",
"297 615 LINE",
"171 776 LINE"
);
}
);
width = 324;
}
);
leftKerningGroup = i;
rightKerningGroup = i;
unicode = 00EE;
},
{
glyphname = j;
layers = (
{
layerId = "13AA25AE-C1F8-404A-9DC4-1A2868689295";
name = "Light Italic";
paths = (
{
closed = 1;
nodes = (
"61 511 OFFCURVE",
"26 413 OFFCURVE",
"19 366 CURVE",
"47 360 LINE",
"65 431 OFFCURVE",
"94 458 OFFCURVE",
"114 459 CURVE SMOOTH",
"137 460 OFFCURVE",
"144 436 OFFCURVE",
"145 417 CURVE SMOOTH",
"148 358 OFFCURVE",
"145 274 OFFCURVE",
"139 200 CURVE SMOOTH",
"136 161 OFFCURVE",
"115 -230 OFFCURVE",
"1 -230 CURVE SMOOTH",
"-6 -230 OFFCURVE",
"-14 -228 OFFCURVE",
"-19 -225 CURVE",
"-15 -190 OFFCURVE",
"-34 -170 OFFCURVE",
"-61 -170 CURVE SMOOTH",
"-90 -170 OFFCURVE",
"-104 -194 OFFCURVE",
"-104 -217 CURVE SMOOTH",
"-104 -257 OFFCURVE",
"-62 -271 OFFCURVE",
"-28 -271 CURVE SMOOTH",
"167 -271 OFFCURVE",
"196 -12 OFFCURVE",
"217 192 CURVE SMOOTH",
"225 274 OFFCURVE",
"227 354 OFFCURVE",
"227 409 CURVE SMOOTH",
"227 477 OFFCURVE",
"197 511 OFFCURVE",
"144 511 CURVE SMOOTH"
);
},
{
closed = 1;
nodes = (
"158 728 OFFCURVE",
"134 704 OFFCURVE",
"134 670 CURVE SMOOTH",
"134 636 OFFCURVE",
"158 615 OFFCURVE",
"187 615 CURVE SMOOTH",
"216 615 OFFCURVE",
"241 637 OFFCURVE",
"241 671 CURVE SMOOTH",
"241 705 OFFCURVE",
"218 728 OFFCURVE",
"187 728 CURVE SMOOTH"
);
}
);
width = 297;
}
);
leftKerningGroup = j;
rightKerningGroup = j;
unicode = 006A;
},
{
color = 7;
glyphname = jcircumflex;
layers = (
{
layerId = "13AA25AE-C1F8-404A-9DC4-1A2868689295";
name = "Light Italic";
paths = (
{
closed = 1;
nodes = (
"61 511 OFFCURVE",
"26 413 OFFCURVE",
"19 366 CURVE",
"47 360 LINE",
"65 431 OFFCURVE",
"94 458 OFFCURVE",
"114 459 CURVE SMOOTH",
"137 460 OFFCURVE",
"144 436 OFFCURVE",
"145 417 CURVE SMOOTH",
"148 358 OFFCURVE",
"145 274 OFFCURVE",
"139 200 CURVE SMOOTH",
"136 161 OFFCURVE",
"115 -230 OFFCURVE",
"1 -230 CURVE SMOOTH",
"-6 -230 OFFCURVE",
"-14 -228 OFFCURVE",
"-19 -225 CURVE",
"-15 -190 OFFCURVE",
"-34 -170 OFFCURVE",
"-61 -170 CURVE SMOOTH",
"-90 -170 OFFCURVE",
"-104 -194 OFFCURVE",
"-104 -217 CURVE SMOOTH",
"-104 -257 OFFCURVE",
"-62 -271 OFFCURVE",
"-28 -271 CURVE SMOOTH",
"167 -271 OFFCURVE",
"196 -12 OFFCURVE",
"217 192 CURVE SMOOTH",
"225 274 OFFCURVE",
"227 354 OFFCURVE",
"227 409 CURVE SMOOTH",
"227 477 OFFCURVE",
"197 511 OFFCURVE",
"144 511 CURVE SMOOTH"
);
},
{
closed = 1;
nodes = (
"169 776 LINE",
"11 619 LINE",
"33 593 LINE",
"159 702 LINE",
"161 702 LINE",
"271 589 LINE",
"297 615 LINE",
"171 776 LINE"
);
}
);
width = 293;
}
);
leftKerningGroup = j;
rightKerningGroup = j;
unicode = 0135;
},
{
glyphname = k;
lastChange = "2016-09-09 12:55:07 +0000";
layers = (
{
anchors = (
{
name = bottom;
position = "{271, 0}";
}
);
layerId = "13AA25AE-C1F8-404A-9DC4-1A2868689295";
leftMetricsKey = l;
name = "Light Italic";
paths = (
{
closed = 1;
nodes = (
"183 755 LINE",
"167 741 OFFCURVE",
"146 728 OFFCURVE",
"58 728 CURVE",
"54 688 LINE",
"124 692 LINE",
"121 675 OFFCURVE",
"120 673 OFFCURVE",
"115 639 CURVE SMOOTH",
"91 482 OFFCURVE",
"65 118 OFFCURVE",
"65 26 CURVE SMOOTH",
"65 15 OFFCURVE",
"65 9 OFFCURVE",
"66 0 CURVE",
"148 0 LINE",
"147 17 OFFCURVE",
"146 33 OFFCURVE",
"146 53 CURVE SMOOTH",
"146 102 OFFCURVE",
"155 159 OFFCURVE",
"170 214 CURVE",
"196 215 LINE",
"234 214 OFFCURVE",
"249 186 OFFCURVE",
"274 120 CURVE SMOOTH",
"309 28 OFFCURVE",
"338 -11 OFFCURVE",
"389 -11 CURVE SMOOTH",
"451 -11 OFFCURVE",
"485 45 OFFCURVE",
"497 102 CURVE",
"469 107 LINE",
"457 58 OFFCURVE",
"441 43 OFFCURVE",
"419 45 CURVE SMOOTH",
"391 48 OFFCURVE",
"370 103 OFFCURVE",
"349 150 CURVE SMOOTH",
"327 200 OFFCURVE",
"307 219 OFFCURVE",
"261 220 CURVE",
"261 221 LINE",
"392 245 OFFCURVE",
"454 332 OFFCURVE",
"454 403 CURVE SMOOTH",
"454 457 OFFCURVE",
"426 511 OFFCURVE",
"357 511 CURVE SMOOTH",
"286 511 OFFCURVE",
"221 465 OFFCURVE",
"161 288 CURVE",
"158 288 LINE",
"165 388 OFFCURVE",
"175 492 OFFCURVE",
"187 585 CURVE SMOOTH",
"193 630 OFFCURVE",
"202 705 OFFCURVE",
"212 755 CURVE"
);
},
{
closed = 1;
nodes = (
"367 467 OFFCURVE",
"373 426 OFFCURVE",
"373 401 CURVE SMOOTH",
"373 299 OFFCURVE",
"305 243 OFFCURVE",
"179 243 CURVE SMOOTH",
"178 243 LINE",
"213 358 OFFCURVE",
"272 460 OFFCURVE",
"326 464 CURVE SMOOTH"
);
}
);
width = 525;
}
);
leftKerningGroup = h;
leftMetricsKey = l;
rightKerningGroup = k;
unicode = 006B;
},
{
glyphname = l;
layers = (
{
anchors = (
{
name = bottom;
position = "{164, 0}";
},
{
name = top;
position = "{155, 705}";
},
{
name = topright;
position = "{261, 512}";
}
);
layerId = "13AA25AE-C1F8-404A-9DC4-1A2868689295";
name = "Light Italic";
paths = (
{
closed = 1;
nodes = (
"186 755 LINE",
"169 741 OFFCURVE",
"146 728 OFFCURVE",
"59 728 CURVE",
"54 688 LINE",
"125 692 LINE",
"123 678 OFFCURVE",
"122 674 OFFCURVE",
"116 638 CURVE SMOOTH",
"92 462 OFFCURVE",
"60 154 OFFCURVE",
"62 70 CURVE SMOOTH",
"63 17 OFFCURVE",
"87 -11 OFFCURVE",
"142 -11 CURVE SMOOTH",
"222 -11 OFFCURVE",
"262 83 OFFCURVE",
"271 129 CURVE",
"243 136 LINE",
"223 64 OFFCURVE",
"192 39 OFFCURVE",
"170 39 CURVE SMOOTH",
"145 39 OFFCURVE",
"143 65 OFFCURVE",
"143 91 CURVE SMOOTH",
"143 188 OFFCURVE",
"169 444 OFFCURVE",
"188 585 CURVE SMOOTH",
"193 630 OFFCURVE",
"207 705 OFFCURVE",
"214 755 CURVE"
);
}
);
width = 283;
}
);
leftKerningGroup = l;
rightKerningGroup = l;
unicode = 006C;
},
{
glyphname = lslash;
layers = (
{
layerId = "13AA25AE-C1F8-404A-9DC4-1A2868689295";
name = "Light Italic";
paths = (
{
closed = 1;
nodes = (
"188 755 LINE",
"172 741 OFFCURVE",
"149 728 OFFCURVE",
"61 728 CURVE",
"57 688 LINE",
"128 692 LINE",
"125 678 OFFCURVE",
"124 674 OFFCURVE",
"119 638 CURVE",
"107 556 OFFCURVE",
"94 445 OFFCURVE",
"83 342 CURVE",
"2 285 LINE",
"-1 229 LINE",
"78 285 LINE",
"69 189 OFFCURVE",
"63 107 OFFCURVE",
"64 70 CURVE SMOOTH",
"65 17 OFFCURVE",
"90 -11 OFFCURVE",
"144 -11 CURVE SMOOTH",
"224 -11 OFFCURVE",
"265 83 OFFCURVE",
"274 129 CURVE",
"245 136 LINE",
"225 64 OFFCURVE",
"195 39 OFFCURVE",
"173 39 CURVE SMOOTH",
"147 39 OFFCURVE",
"145 65 OFFCURVE",
"145 91 CURVE SMOOTH",
"145 143 OFFCURVE",
"153 242 OFFCURVE",
"163 344 CURVE",
"258 411 LINE",
"261 465 LINE",
"168 400 LINE",
"176 468 OFFCURVE",
"183 534 OFFCURVE",
"190 585 CURVE SMOOTH",
"196 630 OFFCURVE",
"209 705 OFFCURVE",
"217 755 CURVE"
);
}
);
width = 286;
}
);
leftKerningGroup = l;
rightKerningGroup = l;
unicode = 0142;
},
{
glyphname = m;
layers = (
{
layerId = "13AA25AE-C1F8-404A-9DC4-1A2868689295";
name = "Light Italic";
paths = (
{
closed = 1;
nodes = (
"608 511 OFFCURVE",
"542 473 OFFCURVE",
"476 291 CURVE",
"473 291 LINE",
"485 341 OFFCURVE",
"490 359 OFFCURVE",
"490 397 CURVE SMOOTH",
"490 446 OFFCURVE",
"463 511 OFFCURVE",
"383 511 CURVE SMOOTH",
"328 511 OFFCURVE",
"263 470 OFFCURVE",
"200 288 CURVE",
"197 288 LINE",
"210 361 OFFCURVE",
"244 511 OFFCURVE",
"138 511 CURVE SMOOTH",
"58 511 OFFCURVE",
"17 417 OFFCURVE",
"8 370 CURVE",
"36 364 LINE",
"56 435 OFFCURVE",
"87 461 OFFCURVE",
"109 461 CURVE SMOOTH",
"132 461 OFFCURVE",
"136 440 OFFCURVE",
"136 416 CURVE SMOOTH",
"136 386 OFFCURVE",
"134 382 OFFCURVE",
"116 226 CURVE SMOOTH",
"101 100 OFFCURVE",
"97 60 OFFCURVE",
"97 26 CURVE SMOOTH",
"97 15 OFFCURVE",
"97 9 OFFCURVE",
"98 0 CURVE",
"182 0 LINE",
"181 17 OFFCURVE",
"180 33 OFFCURVE",
"180 53 CURVE SMOOTH",
"180 222 OFFCURVE",
"271 464 OFFCURVE",
"363 464 CURVE SMOOTH",
"402 464 OFFCURVE",
"410 430 OFFCURVE",
"411 407 CURVE SMOOTH",
"413 323 OFFCURVE",
"375 127 OFFCURVE",
"375 26 CURVE SMOOTH",
"375 15 OFFCURVE",
"375 9 OFFCURVE",
"376 0 CURVE",
"460 0 LINE",
"459 17 OFFCURVE",
"458 33 OFFCURVE",
"458 53 CURVE SMOOTH",
"458 222 OFFCURVE",
"547 464 OFFCURVE",
"641 464 CURVE SMOOTH",
"680 464 OFFCURVE",
"689 426 OFFCURVE",
"689 403 CURVE SMOOTH",
"689 297 OFFCURVE",
"653 159 OFFCURVE",
"653 85 CURVE SMOOTH",
"653 23 OFFCURVE",
"670 -11 OFFCURVE",
"733 -11 CURVE SMOOTH",
"813 -11 OFFCURVE",
"855 83 OFFCURVE",
"864 129 CURVE",
"836 136 LINE",
"816 64 OFFCURVE",
"784 39 OFFCURVE",
"762 39 CURVE SMOOTH",
"738 39 OFFCURVE",
"735 61 OFFCURVE",
"735 85 CURVE SMOOTH",
"735 143 OFFCURVE",
"768 271 OFFCURVE",
"768 381 CURVE SMOOTH",
"768 451 OFFCURVE",
"743 511 OFFCURVE",
"663 511 CURVE SMOOTH"
);
}
);
width = 876;
}
);
leftKerningGroup = n;
rightKerningGroup = n;
unicode = 006D;
},
{
glyphname = n;
layers = (
{
anchors = (
{
name = bottom;
position = "{313, 0}";
},
{
name = top;
position = "{339, 512}";
}
);
layerId = "13AA25AE-C1F8-404A-9DC4-1A2868689295";
name = "Light Italic";
paths = (
{
closed = 1;
nodes = (
"331 511 OFFCURVE",
"267 465 OFFCURVE",
"199 283 CURVE",
"196 283 LINE",
"209 356 OFFCURVE",
"243 511 OFFCURVE",
"137 511 CURVE SMOOTH",
"57 511 OFFCURVE",
"16 417 OFFCURVE",
"7 370 CURVE",
"35 364 LINE",
"55 435 OFFCURVE",
"86 461 OFFCURVE",
"108 461 CURVE SMOOTH",
"131 461 OFFCURVE",
"135 440 OFFCURVE",
"135 416 CURVE SMOOTH",
"135 386 OFFCURVE",
"134 382 OFFCURVE",
"116 226 CURVE SMOOTH",
"101 100 OFFCURVE",
"96 60 OFFCURVE",
"96 26 CURVE SMOOTH",
"96 15 OFFCURVE",
"96 9 OFFCURVE",
"97 0 CURVE",
"181 0 LINE",
"180 17 OFFCURVE",
"179 33 OFFCURVE",
"179 53 CURVE SMOOTH",
"179 222 OFFCURVE",
"284 464 OFFCURVE",
"376 464 CURVE SMOOTH",
"415 464 OFFCURVE",
"423 426 OFFCURVE",
"423 403 CURVE SMOOTH",
"423 296 OFFCURVE",
"392 160 OFFCURVE",
"392 85 CURVE SMOOTH",
"392 23 OFFCURVE",
"410 -11 OFFCURVE",
"473 -11 CURVE SMOOTH",
"553 -11 OFFCURVE",
"594 83 OFFCURVE",
"603 129 CURVE",
"575 136 LINE",
"555 64 OFFCURVE",
"524 39 OFFCURVE",
"502 39 CURVE SMOOTH",
"478 39 OFFCURVE",
"475 61 OFFCURVE",
"475 85 CURVE SMOOTH",
"475 143 OFFCURVE",
"505 271 OFFCURVE",
"505 381 CURVE SMOOTH",
"505 451 OFFCURVE",
"476 511 OFFCURVE",
"396 511 CURVE SMOOTH"
);
}
);
width = 615;
}
);
leftKerningGroup = n;
rightKerningGroup = n;
unicode = 006E;
},
{
glyphname = o;
layers = (
{
anchors = (
{
name = top;
position = "{293, 512}";
}
);
layerId = "13AA25AE-C1F8-404A-9DC4-1A2868689295";
name = "Light Italic";
paths = (
{
closed = 1;
nodes = (
"132 511 OFFCURVE",
"39 375 OFFCURVE",
"39 213 CURVE SMOOTH",
"39 89 OFFCURVE",
"99 -11 OFFCURVE",
"231 -11 CURVE SMOOTH",
"386 -11 OFFCURVE",
"476 131 OFFCURVE",
"476 292 CURVE SMOOTH",
"476 432 OFFCURVE",
"394 511 OFFCURVE",
"286 511 CURVE SMOOTH"
);
},
{
closed = 1;
nodes = (
"369 472 OFFCURVE",
"390 355 OFFCURVE",
"388 261 CURVE SMOOTH",
"386 164 OFFCURVE",
"346 25 OFFCURVE",
"240 27 CURVE SMOOTH",
"148 29 OFFCURVE",
"125 154 OFFCURVE",
"127 246 CURVE SMOOTH",
"129 374 OFFCURVE",
"182 475 OFFCURVE",
"271 474 CURVE SMOOTH"
);
}
);
width = 521;
}
);
leftKerningGroup = o;
rightKerningGroup = o;
unicode = 006F;
},
{
glyphname = oslash;
layers = (
{
layerId = "13AA25AE-C1F8-404A-9DC4-1A2868689295";
name = "Light Italic";
paths = (
{
closed = 1;
nodes = (
"393 479 LINE",
"362 500 OFFCURVE",
"326 511 OFFCURVE",
"286 511 CURVE SMOOTH",
"132 511 OFFCURVE",
"39 375 OFFCURVE",
"39 213 CURVE SMOOTH",
"39 144 OFFCURVE",
"58 82 OFFCURVE",
"97 41 CURVE",
"34 -52 LINE",
"66 -77 LINE",
"129 15 LINE",
"157 -2 OFFCURVE",
"190 -11 OFFCURVE",
"231 -11 CURVE SMOOTH",
"386 -11 OFFCURVE",
"476 131 OFFCURVE",
"476 292 CURVE SMOOTH",
"476 357 OFFCURVE",
"458 409 OFFCURVE",
"429 446 CURVE",
"489 533 LINE",
"448 562 LINE"
);
},
{
closed = 1;
nodes = (
"386 336 OFFCURVE",
"389 297 OFFCURVE",
"388 261 CURVE SMOOTH",
"386 164 OFFCURVE",
"346 25 OFFCURVE",
"240 27 CURVE SMOOTH",
"208 27 OFFCURVE",
"184 43 OFFCURVE",
"167 68 CURVE",
"377 372 LINE"
);
},
{
closed = 1;
nodes = (
"311 474 OFFCURVE",
"337 454 OFFCURVE",
"355 424 CURVE",
"145 112 LINE",
"130 153 OFFCURVE",
"126 203 OFFCURVE",
"127 246 CURVE SMOOTH",
"129 374 OFFCURVE",
"182 476 OFFCURVE",
"271 474 CURVE SMOOTH"
);
}
);
width = 521;
}
);
leftKerningGroup = o;
rightKerningGroup = o;
unicode = 00F8;
},
{
glyphname = oe;
layers = (
{
layerId = "13AA25AE-C1F8-404A-9DC4-1A2868689295";
name = "Light Italic";
paths = (
{
closed = 1;
nodes = (
"515 511 OFFCURVE",
"445 455 OFFCURVE",
"417 406 CURVE",
"414 406 LINE",
"391 472 OFFCURVE",
"342 510 OFFCURVE",
"277 511 CURVE SMOOTH",
"123 513 OFFCURVE",
"40 375 OFFCURVE",
"40 213 CURVE SMOOTH",
"40 89 OFFCURVE",
"90 -11 OFFCURVE",
"222 -11 CURVE SMOOTH",
"292 -11 OFFCURVE",
"357 36 OFFCURVE",
"390 89 CURVE",
"392 89 LINE",
"420 21 OFFCURVE",
"479 -11 OFFCURVE",
"543 -11 CURVE SMOOTH",
"634 -11 OFFCURVE",
"705 36 OFFCURVE",
"761 141 CURVE",
"728 160 LINE",
"684 76 OFFCURVE",
"611 34 OFFCURVE",
"555 39 CURVE SMOOTH",
"500 44 OFFCURVE",
"442 92 OFFCURVE",
"447 231 CURVE",
"589 245 OFFCURVE",
"738 294 OFFCURVE",
"738 402 CURVE SMOOTH",
"738 491 OFFCURVE",
"664 511 OFFCURVE",
"593 511 CURVE SMOOTH"
);
},
{
closed = 1;
nodes = (
"371 472 OFFCURVE",
"370 317 OFFCURVE",
"368 248 CURVE SMOOTH",
"365 137 OFFCURVE",
"328 27 OFFCURVE",
"231 28 CURVE SMOOTH",
"139 29 OFFCURVE",
"123 154 OFFCURVE",
"125 246 CURVE SMOOTH",
"127 374 OFFCURVE",
"171 476 OFFCURVE",
"260 474 CURVE SMOOTH"
);
},
{
closed = 1;
nodes = (
"625 481 OFFCURVE",
"658 459 OFFCURVE",
"658 405 CURVE SMOOTH",
"658 315 OFFCURVE",
"542 279 OFFCURVE",
"447 266 CURVE",
"453 374 OFFCURVE",
"509 470 OFFCURVE",
"578 477 CURVE SMOOTH"
);
}
);
width = 797;
}
);
leftKerningGroup = o;
rightKerningGroup = e;
unicode = 0153;
},
{
glyphname = p;
layers = (
{
layerId = "13AA25AE-C1F8-404A-9DC4-1A2868689295";
name = "Light Italic";
paths = (
{
closed = 1;
nodes = (
"332 511 OFFCURVE",
"268 476 OFFCURVE",
"213 292 CURVE",
"210 292 LINE",
"224 364 OFFCURVE",
"252 511 OFFCURVE",
"148 511 CURVE SMOOTH",
"68 511 OFFCURVE",
"27 417 OFFCURVE",
"18 370 CURVE",
"47 364 LINE",
"67 435 OFFCURVE",
"97 461 OFFCURVE",
"119 461 CURVE SMOOTH",
"145 461 OFFCURVE",
"146 434 OFFCURVE",
"146 408 CURVE SMOOTH",
"146 357 OFFCURVE",
"121 145 OFFCURVE",
"103 -85 CURVE SMOOTH",
"97 -163 OFFCURVE",
"98 -225 OFFCURVE",
"42 -225 CURVE",
"42 -255 LINE",
"231 -255 LINE",
"231 -214 LINE",
"168 -217 LINE",
"174 -194 OFFCURVE",
"174 -161 OFFCURVE",
"176 -134 CURVE SMOOTH",
"184 -8 LINE",
"199 -10 OFFCURVE",
"214 -11 OFFCURVE",
"231 -11 CURVE SMOOTH",
"424 -11 OFFCURVE",
"526 123 OFFCURVE",
"526 317 CURVE SMOOTH",
"526 422 OFFCURVE",
"483 511 OFFCURVE",
"391 511 CURVE SMOOTH"
);
},
{
closed = 1;
nodes = (
"425 464 OFFCURVE",
"440 391 OFFCURVE",
"440 299 CURVE SMOOTH",
"440 178 OFFCURVE",
"389 23 OFFCURVE",
"248 23 CURVE SMOOTH",
"226 23 OFFCURVE",
"208 28 OFFCURVE",
"187 35 CURVE",
"190 70 OFFCURVE",
"193 100 OFFCURVE",
"198 130 CURVE SMOOTH",
"223 292 OFFCURVE",
"297 464 OFFCURVE",
"370 464 CURVE SMOOTH"
);
}
);
width = 571;
}
);
unicode = 0070;
},
{
glyphname = thorn;
layers = (
{
layerId = "13AA25AE-C1F8-404A-9DC4-1A2868689295";
name = "Light Italic";
paths = (
{
closed = 1;
nodes = (
"167 755 LINE",
"151 741 OFFCURVE",
"128 728 OFFCURVE",
"40 728 CURVE",
"36 688 LINE",
"108 692 LINE",
"104 669 OFFCURVE",
"103 648 OFFCURVE",
"101 619 CURVE SMOOTH",
"80 350 OFFCURVE",
"69 191 OFFCURVE",
"50 -86 CURVE SMOOTH",
"45 -164 OFFCURVE",
"45 -225 OFFCURVE",
"-11 -225 CURVE",
"-11 -255 LINE",
"178 -255 LINE",
"178 -214 LINE",
"115 -217 LINE",
"121 -194 OFFCURVE",
"121 -161 OFFCURVE",
"123 -134 CURVE",
"129 -7 LINE",
"152 -10 OFFCURVE",
"173 -11 OFFCURVE",
"189 -11 CURVE SMOOTH",
"387 -11 OFFCURVE",
"466 142 OFFCURVE",
"466 326 CURVE SMOOTH",
"466 423 OFFCURVE",
"433 511 OFFCURVE",
"341 511 CURVE SMOOTH",
"281 511 OFFCURVE",
"201 491 OFFCURVE",
"148 298 CURVE",
"145 299 LINE",
"155 405 OFFCURVE",
"165 498 OFFCURVE",
"173 586 CURVE SMOOTH",
"178 631 OFFCURVE",
"187 699 OFFCURVE",
"196 755 CURVE"
);
},
{
closed = 1;
nodes = (
"359 466 OFFCURVE",
"378 409 OFFCURVE",
"380 318 CURVE SMOOTH",
"382 196 OFFCURVE",
"352 26 OFFCURVE",
"206 24 CURVE SMOOTH",
"180 24 OFFCURVE",
"145 31 OFFCURVE",
"129 47 CURVE",
"133 214 OFFCURVE",
"217 460 OFFCURVE",
"312 464 CURVE SMOOTH"
);
}
);
width = 512;
}
);
unicode = 00FE;
},
{
glyphname = q;
layers = (
{
layerId = "13AA25AE-C1F8-404A-9DC4-1A2868689295";
name = "Light Italic";
paths = (
{
closed = 1;
nodes = (
"138 509 OFFCURVE",
"37 369 OFFCURVE",
"38 174 CURVE SMOOTH",
"39 69 OFFCURVE",
"83 -13 OFFCURVE",
"175 -11 CURVE SMOOTH",
"234 -10 OFFCURVE",
"304 24 OFFCURVE",
"357 208 CURVE",
"360 208 LINE",
"348 117 OFFCURVE",
"337 15 OFFCURVE",
"329 -85 CURVE SMOOTH",
"323 -163 OFFCURVE",
"324 -225 OFFCURVE",
"268 -225 CURVE",
"268 -255 LINE",
"457 -255 LINE",
"457 -214 LINE",
"394 -217 LINE",
"400 -194 OFFCURVE",
"402 -161 OFFCURVE",
"404 -134 CURVE SMOOTH",
"416 43 OFFCURVE",
"448 333 OFFCURVE",
"461 501 CURVE",
"431 507 OFFCURVE",
"364 511 OFFCURVE",
"331 511 CURVE SMOOTH"
);
},
{
closed = 1;
nodes = (
"341 477 OFFCURVE",
"366 474 OFFCURVE",
"386 468 CURVE",
"377 290 OFFCURVE",
"291 37 OFFCURVE",
"196 36 CURVE SMOOTH",
"141 36 OFFCURVE",
"125 102 OFFCURVE",
"124 193 CURVE SMOOTH",
"123 315 OFFCURVE",
"174 475 OFFCURVE",
"315 477 CURVE SMOOTH"
);
}
);
width = 518;
}
);
unicode = 0071;
},
{
glyphname = r;
layers = (
{
anchors = (
{
name = bottom;
position = "{173, 0}";
},
{
name = top;
position = "{254, 512}";
}
);
layerId = "13AA25AE-C1F8-404A-9DC4-1A2868689295";
name = "Light Italic";
paths = (
{
closed = 1;
nodes = (
"322 511 OFFCURVE",
"256 466 OFFCURVE",
"198 293 CURVE",
"195 293 LINE",
"219 416 OFFCURVE",
"224 511 OFFCURVE",
"137 511 CURVE SMOOTH",
"57 511 OFFCURVE",
"16 417 OFFCURVE",
"7 370 CURVE",
"35 364 LINE",
"55 435 OFFCURVE",
"86 461 OFFCURVE",
"108 461 CURVE SMOOTH",
"136 461 OFFCURVE",
"136 430 OFFCURVE",
"135 403 CURVE SMOOTH",
"134 382 OFFCURVE",
"130 361 OFFCURVE",
"116 231 CURVE SMOOTH",
"102 105 OFFCURVE",
"100 60 OFFCURVE",
"100 26 CURVE SMOOTH",
"100 15 OFFCURVE",
"100 9 OFFCURVE",
"101 0 CURVE",
"184 0 LINE",
"183 17 OFFCURVE",
"182 23 OFFCURVE",
"182 43 CURVE SMOOTH",
"182 205 OFFCURVE",
"272 468 OFFCURVE",
"365 447 CURVE",
"368 420 OFFCURVE",
"387 405 OFFCURVE",
"411 405 CURVE SMOOTH",
"439 405 OFFCURVE",
"457 429 OFFCURVE",
"457 453 CURVE SMOOTH",
"457 489 OFFCURVE",
"427 511 OFFCURVE",
"387 511 CURVE SMOOTH"
);
}
);
width = 455;
}
);
leftKerningGroup = n;
rightKerningGroup = r;
unicode = 0072;
},
{
glyphname = s;
layers = (
{
anchors = (
{
name = bottom;
position = "{216, 0}";
},
{
name = top;
position = "{228, 512}";
}
);
layerId = "13AA25AE-C1F8-404A-9DC4-1A2868689295";
name = "Light Italic";
paths = (
{
closed = 1;
nodes = (
"124 511 OFFCURVE",
"54 449 OFFCURVE",
"54 376 CURVE SMOOTH",
"54 255 OFFCURVE",
"296 223 OFFCURVE",
"296 121 CURVE SMOOTH",
"296 61 OFFCURVE",
"260 26 OFFCURVE",
"188 26 CURVE SMOOTH",
"152 26 OFFCURVE",
"115 43 OFFCURVE",
"105 72 CURVE",
"112 83 OFFCURVE",
"114 93 OFFCURVE",
"114 103 CURVE SMOOTH",
"114 124 OFFCURVE",
"100 145 OFFCURVE",
"73 145 CURVE SMOOTH",
"49 145 OFFCURVE",
"30 125 OFFCURVE",
"30 96 CURVE SMOOTH",
"30 27 OFFCURVE",
"109 -11 OFFCURVE",
"190 -11 CURVE SMOOTH",
"302 -11 OFFCURVE",
"378 51 OFFCURVE",
"378 135 CURVE SMOOTH",
"378 275 OFFCURVE",
"132 302 OFFCURVE",
"132 399 CURVE SMOOTH",
"132 446 OFFCURVE",
"180 478 OFFCURVE",
"224 478 CURVE SMOOTH",
"269 478 OFFCURVE",
"295 460 OFFCURVE",
"302 438 CURVE",
"295 427 OFFCURVE",
"293 417 OFFCURVE",
"293 407 CURVE SMOOTH",
"293 386 OFFCURVE",
"309 367 OFFCURVE",
"333 367 CURVE SMOOTH",
"357 367 OFFCURVE",
"375 385 OFFCURVE",
"375 413 CURVE SMOOTH",
"375 473 OFFCURVE",
"302 511 OFFCURVE",
"227 511 CURVE SMOOTH"
);
}
);
width = 428;
}
);
leftKerningGroup = s;
rightKerningGroup = s;
unicode = 0073;
},
{
glyphname = germandbls;
layers = (
{
layerId = "13AA25AE-C1F8-404A-9DC4-1A2868689295";
name = "Light Italic";
paths = (
{
closed = 1;
nodes = (
"206 760 OFFCURVE",
"147 649 OFFCURVE",
"120 500 CURVE",
"28 500 LINE",
"23 457 LINE",
"113 458 LINE",
"104 391 OFFCURVE",
"99 318 OFFCURVE",
"93 245 CURVE SMOOTH",
"71 -20 OFFCURVE",
"78 -232 OFFCURVE",
"-16 -232 CURVE SMOOTH",
"-23 -232 OFFCURVE",
"-39 -229 OFFCURVE",
"-46 -224 CURVE",
"-46 -197 OFFCURVE",
"-60 -178 OFFCURVE",
"-84 -177 CURVE SMOOTH",
"-114 -176 OFFCURVE",
"-126 -204 OFFCURVE",
"-126 -219 CURVE SMOOTH",
"-126 -253 OFFCURVE",
"-99 -271 OFFCURVE",
"-48 -271 CURVE SMOOTH",
"147 -273 OFFCURVE",
"155 -6 OFFCURVE",
"175 236 CURVE SMOOTH",
"186 370 OFFCURVE",
"190 486 OFFCURVE",
"209 571 CURVE SMOOTH",
"230 666 OFFCURVE",
"273 727 OFFCURVE",
"370 727 CURVE SMOOTH",
"455 727 OFFCURVE",
"490 669 OFFCURVE",
"485 614 CURVE SMOOTH",
"476 487 OFFCURVE",
"345 487 OFFCURVE",
"337 378 CURVE SMOOTH",
"331 270 OFFCURVE",
"534 223 OFFCURVE",
"534 121 CURVE SMOOTH",
"534 61 OFFCURVE",
"507 26 OFFCURVE",
"446 26 CURVE SMOOTH",
"410 26 OFFCURVE",
"378 43 OFFCURVE",
"368 72 CURVE",
"375 83 OFFCURVE",
"376 93 OFFCURVE",
"376 103 CURVE SMOOTH",
"376 124 OFFCURVE",
"362 145 OFFCURVE",
"336 145 CURVE SMOOTH",
"312 145 OFFCURVE",
"292 125 OFFCURVE",
"292 96 CURVE SMOOTH",
"292 27 OFFCURVE",
"367 -11 OFFCURVE",
"448 -11 CURVE SMOOTH",
"549 -11 OFFCURVE",
"616 51 OFFCURVE",
"616 135 CURVE SMOOTH",
"616 275 OFFCURVE",
"407 319 OFFCURVE",
"407 397 CURVE SMOOTH",
"407 474 OFFCURVE",
"544 491 OFFCURVE",
"560 608 CURVE SMOOTH",
"569 675 OFFCURVE",
"523 760 OFFCURVE",
"375 760 CURVE"
);
}
);
width = 650;
}
);
unicode = 00DF;
},
{
glyphname = t;
layers = (
{
anchors = (
{
name = bottom;
position = "{199, 0}";
},
{
name = center;
position = "{195, 256}";
}
);
layerId = "13AA25AE-C1F8-404A-9DC4-1A2868689295";
name = "Light Italic";
paths = (
{
closed = 1;
nodes = (
"179 641 LINE",
"153 551 OFFCURVE",
"107 500 OFFCURVE",
"25 500 CURVE",
"22 458 LINE",
"111 459 LINE",
"94 315 OFFCURVE",
"85 182 OFFCURVE",
"85 107 CURVE SMOOTH",
"85 44 OFFCURVE",
"111 -11 OFFCURVE",
"189 -11 CURVE SMOOTH",
"253 -11 OFFCURVE",
"294 25 OFFCURVE",
"333 93 CURVE",
"307 110 LINE",
"269 46 OFFCURVE",
"232 40 OFFCURVE",
"213 40 CURVE SMOOTH",
"169 40 OFFCURVE",
"166 88 OFFCURVE",
"166 127 CURVE SMOOTH",
"166 216 OFFCURVE",
"183 348 OFFCURVE",
"195 460 CURVE",
"355 462 LINE",
"358 500 LINE",
"199 500 LINE",
"205 547 OFFCURVE",
"212 602 OFFCURVE",
"217 641 CURVE"
);
}
);
width = 364;
}
);
leftKerningGroup = t;
rightKerningGroup = t;
unicode = 0074;
},
{
glyphname = u;
layers = (
{
anchors = (
{
name = ogonek;
position = "{521, 5}";
},
{
name = top;
position = "{310, 512}";
}
);
layerId = "13AA25AE-C1F8-404A-9DC4-1A2868689295";
name = "Light Italic";
paths = (
{
closed = 1;
nodes = (
"53 511 OFFCURVE",
"15 417 OFFCURVE",
"6 370 CURVE",
"34 364 LINE",
"54 435 OFFCURVE",
"82 461 OFFCURVE",
"104 461 CURVE SMOOTH",
"128 461 OFFCURVE",
"131 439 OFFCURVE",
"131 414 CURVE SMOOTH",
"131 357 OFFCURVE",
"99 230 OFFCURVE",
"99 119 CURVE SMOOTH",
"99 50 OFFCURVE",
"128 -11 OFFCURVE",
"208 -11 CURVE SMOOTH",
"273 -11 OFFCURVE",
"329 31 OFFCURVE",
"397 213 CURVE",
"400 213 LINE",
"390 163 OFFCURVE",
"382 117 OFFCURVE",
"382 79 CURVE SMOOTH",
"382 25 OFFCURVE",
"405 -11 OFFCURVE",
"459 -11 CURVE SMOOTH",
"539 -11 OFFCURVE",
"580 83 OFFCURVE",
"589 130 CURVE",
"561 136 LINE",
"541 65 OFFCURVE",
"510 40 OFFCURVE",
"488 40 CURVE SMOOTH",
"467 40 OFFCURVE",
"461 60 OFFCURVE",
"461 84 CURVE SMOOTH",
"461 114 OFFCURVE",
"462 114 OFFCURVE",
"480 270 CURVE SMOOTH",
"495 396 OFFCURVE",
"500 440 OFFCURVE",
"500 474 CURVE SMOOTH",
"500 485 OFFCURVE",
"500 491 OFFCURVE",
"499 500 CURVE",
"415 500 LINE",
"416 483 OFFCURVE",
"417 467 OFFCURVE",
"417 447 CURVE SMOOTH",
"417 278 OFFCURVE",
"320 36 OFFCURVE",
"228 36 CURVE SMOOTH",
"189 36 OFFCURVE",
"181 76 OFFCURVE",
"181 99 CURVE SMOOTH",
"181 183 OFFCURVE",
"214 338 OFFCURVE",
"214 414 CURVE SMOOTH",
"214 476 OFFCURVE",
"186 511 OFFCURVE",
"133 511 CURVE SMOOTH"
);
}
);
width = 593;
}
);
leftKerningGroup = u;
rightKerningGroup = u;
unicode = 0075;
},
{
glyphname = v;
layers = (
{
layerId = "13AA25AE-C1F8-404A-9DC4-1A2868689295";
name = "Light Italic";
paths = (
{
closed = 1;
nodes = (
"320 511 OFFCURVE",
"306 481 OFFCURVE",
"306 461 CURVE",
"307 431 OFFCURVE",
"330 419 OFFCURVE",
"348 419 CURVE SMOOTH",
"365 419 OFFCURVE",
"380 426 OFFCURVE",
"388 444 CURVE",
"455 416 OFFCURVE",
"439 277 OFFCURVE",
"422 224 CURVE SMOOTH",
"392 128 OFFCURVE",
"306 44 OFFCURVE",
"240 43 CURVE SMOOTH",
"192 42 OFFCURVE",
"191 87 OFFCURVE",
"192 119 CURVE SMOOTH",
"194 187 OFFCURVE",
"212 335 OFFCURVE",
"211 416 CURVE SMOOTH",
"209 478 OFFCURVE",
"181 513 OFFCURVE",
"128 511 CURVE SMOOTH",
"48 509 OFFCURVE",
"12 416 OFFCURVE",
"4 369 CURVE",
"32 362 LINE",
"51 434 OFFCURVE",
"78 460 OFFCURVE",
"100 460 CURVE SMOOTH",
"124 460 OFFCURVE",
"128 439 OFFCURVE",
"128 415 CURVE SMOOTH",
"128 357 OFFCURVE",
"106 228 OFFCURVE",
"108 117 CURVE",
"110 48 OFFCURVE",
"139 -12 OFFCURVE",
"222 -11 CURVE SMOOTH",
"325 -10 OFFCURVE",
"420 95 OFFCURVE",
"460 201 CURVE SMOOTH",
"512 339 OFFCURVE",
"484 511 OFFCURVE",
"363 511 CURVE SMOOTH"
);
}
);
width = 526;
}
);
rightKerningGroup = v;
unicode = 0076;
},
{
glyphname = w;
layers = (
{
anchors = (
{
name = top;
position = "{427, 512}";
}
);
layerId = "13AA25AE-C1F8-404A-9DC4-1A2868689295";
name = "Light Italic";
paths = (
{
closed = 1;
nodes = (
"595 511 OFFCURVE",
"580 484 OFFCURVE",
"580 462 CURVE SMOOTH",
"580 432 OFFCURVE",
"604 419 OFFCURVE",
"622 419 CURVE SMOOTH",
"639 419 OFFCURVE",
"655 426 OFFCURVE",
"663 444 CURVE",
"729 416 OFFCURVE",
"713 277 OFFCURVE",
"696 224 CURVE SMOOTH",
"662 119 OFFCURVE",
"583 40 OFFCURVE",
"507 41 CURVE",
"462 42 OFFCURVE",
"453 80 OFFCURVE",
"453 119 CURVE SMOOTH",
"453 210 OFFCURVE",
"486 321 OFFCURVE",
"486 455 CURVE SMOOTH",
"486 465 OFFCURVE",
"485 489 OFFCURVE",
"482 500 CURVE",
"396 500 LINE",
"432 213 OFFCURVE",
"328 42 OFFCURVE",
"229 42 CURVE SMOOTH",
"195 42 OFFCURVE",
"186 73 OFFCURVE",
"186 102 CURVE SMOOTH",
"186 159 OFFCURVE",
"213 327 OFFCURVE",
"213 414 CURVE SMOOTH",
"213 476 OFFCURVE",
"185 511 OFFCURVE",
"132 511 CURVE SMOOTH",
"52 511 OFFCURVE",
"14 417 OFFCURVE",
"5 370 CURVE",
"33 364 LINE",
"53 435 OFFCURVE",
"81 461 OFFCURVE",
"103 461 CURVE SMOOTH",
"127 461 OFFCURVE",
"130 439 OFFCURVE",
"130 414 CURVE SMOOTH",
"130 357 OFFCURVE",
"104 225 OFFCURVE",
"104 119 CURVE SMOOTH",
"104 48 OFFCURVE",
"130 -11 OFFCURVE",
"208 -11 CURVE SMOOTH",
"281 -11 OFFCURVE",
"353 61 OFFCURVE",
"380 140 CURVE",
"382 140 LINE",
"371 19 OFFCURVE",
"431 -11 OFFCURVE",
"483 -11 CURVE SMOOTH",
"596 -11 OFFCURVE",
"691 82 OFFCURVE",
"735 201 CURVE SMOOTH",
"786 338 OFFCURVE",
"759 511 OFFCURVE",
"640 511 CURVE SMOOTH"
);
}
);
width = 801;
}
);
rightKerningGroup = v;
unicode = 0077;
},
{
glyphname = x;
layers = (
{
layerId = "13AA25AE-C1F8-404A-9DC4-1A2868689295";
name = "Light Italic";
paths = (
{
closed = 1;
nodes = (
"424 511 OFFCURVE",
"355 488 OFFCURVE",
"285 314 CURVE",
"284 314 LINE",
"239 441 OFFCURVE",
"228 511 OFFCURVE",
"155 511 CURVE SMOOTH",
"65 511 OFFCURVE",
"49 404 OFFCURVE",
"49 351 CURVE",
"78 352 LINE",
"82 430 OFFCURVE",
"105 450 OFFCURVE",
"129 450 CURVE SMOOTH",
"165 450 OFFCURVE",
"178 390 OFFCURVE",
"230 252 CURVE",
"175 91 OFFCURVE",
"131 37 OFFCURVE",
"94 45 CURVE",
"93 61 OFFCURVE",
"87 86 OFFCURVE",
"56 86 CURVE SMOOTH",
"34 86 OFFCURVE",
"15 68 OFFCURVE",
"15 40 CURVE SMOOTH",
"15 10 OFFCURVE",
"39 -11 OFFCURVE",
"77 -11 CURVE SMOOTH",
"126 -11 OFFCURVE",
"182 6 OFFCURVE",
"249 202 CURVE",
"250 202 LINE",
"321 21 OFFCURVE",
"341 -11 OFFCURVE",
"407 -11 CURVE SMOOTH",
"474 -11 OFFCURVE",
"498 58 OFFCURVE",
"507 125 CURVE",
"479 129 LINE",
"469 76 OFFCURVE",
"452 50 OFFCURVE",
"428 50 CURVE SMOOTH",
"395 50 OFFCURVE",
"362 111 OFFCURVE",
"309 247 CURVE SMOOTH",
"302 265 LINE",
"359 406 OFFCURVE",
"400 445 OFFCURVE",
"428 449 CURVE",
"434 440 OFFCURVE",
"444 419 OFFCURVE",
"474 419 CURVE SMOOTH",
"497 419 OFFCURVE",
"515 439 OFFCURVE",
"515 462 CURVE SMOOTH",
"515 490 OFFCURVE",
"496 511 OFFCURVE",
"461 511 CURVE SMOOTH"
);
}
);
width = 545;
}
);
unicode = 0078;
},
{
glyphname = y;
layers = (
{
anchors = (
{
name = top;
position = "{257, 512}";
}
);
layerId = "13AA25AE-C1F8-404A-9DC4-1A2868689295";
name = "Light Italic";
paths = (
{
closed = 1;
nodes = (
"362 511 OFFCURVE",
"339 496 OFFCURVE",
"339 467 CURVE SMOOTH",
"339 446 OFFCURVE",
"355 428 OFFCURVE",
"379 428 CURVE SMOOTH",
"389 428 OFFCURVE",
"398 430 OFFCURVE",
"404 434 CURVE",
"412 423 OFFCURVE",
"419 396 OFFCURVE",
"419 363 CURVE SMOOTH",
"419 254 OFFCURVE",
"361 117 OFFCURVE",
"305 19 CURVE",
"303 19 LINE",
"298 61 OFFCURVE",
"295 89 OFFCURVE",
"288 121 CURVE SMOOTH",
"267 214 OFFCURVE",
"244 317 OFFCURVE",
"214 398 CURVE SMOOTH",
"196 447 OFFCURVE",
"168 511 OFFCURVE",
"101 511 CURVE SMOOTH",
"19 511 OFFCURVE",
"3 410 OFFCURVE",
"10 338 CURVE",
"42 342 LINE",
"36 403 OFFCURVE",
"51 443 OFFCURVE",
"76 446 CURVE SMOOTH",
"102 449 OFFCURVE",
"115 417 OFFCURVE",
"125 395 CURVE SMOOTH",
"181 260 OFFCURVE",
"224 80 OFFCURVE",
"247 -75 CURVE",
"226 -111 OFFCURVE",
"152 -224 OFFCURVE",
"94 -221 CURVE SMOOTH",
"86 -221 OFFCURVE",
"80 -218 OFFCURVE",
"72 -214 CURVE",
"73 -181 OFFCURVE",
"57 -162 OFFCURVE",
"29 -162 CURVE SMOOTH",
"11 -162 OFFCURVE",
"-12 -178 OFFCURVE",
"-12 -208 CURVE SMOOTH",
"-12 -243 OFFCURVE",
"18 -269 OFFCURVE",
"64 -271 CURVE SMOOTH",
"148 -274 OFFCURVE",
"233 -198 OFFCURVE",
"333 -17 CURVE SMOOTH",
"401 107 OFFCURVE",
"466 250 OFFCURVE",
"466 383 CURVE SMOOTH",
"466 446 OFFCURVE",
"447 511 OFFCURVE",
"386 511 CURVE SMOOTH"
);
}
);
width = 514;
}
);
leftKerningGroup = y;
rightKerningGroup = y;
unicode = 0079;
},
{
glyphname = z;
layers = (
{
anchors = (
{
name = top;
position = "{261, 512}";
}
);
layerId = "13AA25AE-C1F8-404A-9DC4-1A2868689295";
name = "Light Italic";
paths = (
{
closed = 1;
nodes = (
"367 483 OFFCURVE",
"328 479 OFFCURVE",
"311 479 CURVE SMOOTH",
"251 479 OFFCURVE",
"219 511 OFFCURVE",
"159 511 CURVE SMOOTH",
"101 511 OFFCURVE",
"51 468 OFFCURVE",
"51 404 CURVE SMOOTH",
"51 381 OFFCURVE",
"57 358 OFFCURVE",
"64 338 CURVE",
"91 347 LINE",
"86 361 OFFCURVE",
"84 374 OFFCURVE",
"84 385 CURVE SMOOTH",
"84 432 OFFCURVE",
"116 443 OFFCURVE",
"139 443 CURVE SMOOTH",
"183 443 OFFCURVE",
"214 418 OFFCURVE",
"257 415 CURVE SMOOTH",
"283 412 OFFCURVE",
"316 418 OFFCURVE",
"351 455 CURVE",
"353 455 LINE",
"306 398 OFFCURVE",
"268 352 OFFCURVE",
"213 280 CURVE SMOOTH",
"149 196 OFFCURVE",
"68 87 OFFCURVE",
"18 14 CURVE",
"50 -11 LINE",
"83 20 OFFCURVE",
"112 25 OFFCURVE",
"141 25 CURVE SMOOTH",
"200 25 OFFCURVE",
"258 -11 OFFCURVE",
"318 -11 CURVE SMOOTH",
"376 -11 OFFCURVE",
"423 32 OFFCURVE",
"423 96 CURVE SMOOTH",
"423 119 OFFCURVE",
"418 142 OFFCURVE",
"411 162 CURVE",
"384 153 LINE",
"389 139 OFFCURVE",
"391 125 OFFCURVE",
"391 115 CURVE SMOOTH",
"391 68 OFFCURVE",
"359 61 OFFCURVE",
"336 61 CURVE SMOOTH",
"292 61 OFFCURVE",
"247 94 OFFCURVE",
"198 94 CURVE SMOOTH",
"149 94 OFFCURVE",
"114 78 OFFCURVE",
"83 42 CURVE",
"82 42 LINE",
"130 107 OFFCURVE",
"171 159 OFFCURVE",
"230 235 CURVE SMOOTH",
"313 343 OFFCURVE",
"401 446 OFFCURVE",
"431 484 CURVE",
"401 512 LINE"
);
}
);
width = 471;
}
);
leftKerningGroup = z;
rightKerningGroup = z;
unicode = 007A;
},
{
glyphname = fi;
layers = (
{
layerId = "13AA25AE-C1F8-404A-9DC4-1A2868689295";
name = "Light Italic";
paths = (
{
closed = 1;
nodes = (
"200 756 OFFCURVE",
"140 647 OFFCURVE",
"119 517 CURVE SMOOTH",
"116 500 LINE",
"29 500 LINE",
"24 457 LINE",
"111 458 LINE",
"94 306 OFFCURVE",
"87 78 OFFCURVE",
"69 -69 CURVE SMOOTH",
"58 -166 OFFCURVE",
"36 -232 OFFCURVE",
"-15 -232 CURVE SMOOTH",
"-27 -232 OFFCURVE",
"-38 -229 OFFCURVE",
"-45 -224 CURVE",
"-45 -197 OFFCURVE",
"-60 -179 OFFCURVE",
"-84 -178 CURVE SMOOTH",
"-114 -177 OFFCURVE",
"-125 -204 OFFCURVE",
"-125 -219 CURVE SMOOTH",
"-125 -253 OFFCURVE",
"-98 -271 OFFCURVE",
"-47 -271 CURVE SMOOTH",
"116 -271 OFFCURVE",
"152 -81 OFFCURVE",
"166 110 CURVE SMOOTH",
"190 459 LINE",
"332 461 LINE",
"335 500 LINE",
"193 500 LINE",
"194 512 LINE SMOOTH",
"208 713 OFFCURVE",
"283 727 OFFCURVE",
"337 729 CURVE SMOOTH",
"385 731 OFFCURVE",
"435 706 OFFCURVE",
"443 672 CURVE",
"438 659 OFFCURVE",
"436 646 OFFCURVE",
"437 635 CURVE SMOOTH",
"439 617 OFFCURVE",
"453 601 OFFCURVE",
"477 599 CURVE SMOOTH",
"500 597 OFFCURVE",
"523 614 OFFCURVE",
"524 644 CURVE SMOOTH",
"527 703 OFFCURVE",
"448 759 OFFCURVE",
"352 760 CURVE"
);
},
{
closed = 1;
nodes = (
"373 511 OFFCURVE",
"336 417 OFFCURVE",
"327 370 CURVE",
"355 364 LINE",
"375 435 OFFCURVE",
"406 461 OFFCURVE",
"428 461 CURVE SMOOTH",
"451 461 OFFCURVE",
"456 433 OFFCURVE",
"456 416 CURVE SMOOTH",
"456 302 OFFCURVE",
"417 199 OFFCURVE",
"417 83 CURVE SMOOTH",
"417 21 OFFCURVE",
"446 -11 OFFCURVE",
"507 -11 CURVE SMOOTH",
"582 -11 OFFCURVE",
"619 74 OFFCURVE",
"631 130 CURVE",
"603 136 LINE",
"583 65 OFFCURVE",
"552 39 OFFCURVE",
"530 39 CURVE SMOOTH",
"508 39 OFFCURVE",
"499 54 OFFCURVE",
"499 81 CURVE SMOOTH",
"499 193 OFFCURVE",
"537 327 OFFCURVE",
"537 407 CURVE SMOOTH",
"537 469 OFFCURVE",
"509 511 OFFCURVE",
"453 511 CURVE SMOOTH"
);
}
);
width = 643;
}
);
leftKerningGroup = f;
rightKerningGroup = i;
unicode = FB01;
},
{
glyphname = fl;
layers = (
{
layerId = "13AA25AE-C1F8-404A-9DC4-1A2868689295";
name = "Light Italic";
paths = (
{
closed = 1;
nodes = (
"200 760 OFFCURVE",
"140 647 OFFCURVE",
"119 517 CURVE SMOOTH",
"116 500 LINE",
"29 500 LINE",
"24 457 LINE",
"111 458 LINE",
"93 306 OFFCURVE",
"87 78 OFFCURVE",
"69 -69 CURVE",
"57 -166 OFFCURVE",
"36 -232 OFFCURVE",
"-15 -232 CURVE SMOOTH",
"-27 -232 OFFCURVE",
"-38 -229 OFFCURVE",
"-45 -224 CURVE",
"-45 -197 OFFCURVE",
"-60 -179 OFFCURVE",
"-84 -178 CURVE SMOOTH",
"-114 -177 OFFCURVE",
"-125 -204 OFFCURVE",
"-125 -219 CURVE SMOOTH",
"-125 -253 OFFCURVE",
"-98 -271 OFFCURVE",
"-47 -271 CURVE SMOOTH",
"121 -271 OFFCURVE",
"153 -81 OFFCURVE",
"166 110 CURVE",
"190 459 LINE",
"332 461 LINE",
"335 500 LINE",
"193 500 LINE",
"194 512 LINE SMOOTH",
"208 713 OFFCURVE",
"283 729 OFFCURVE",
"337 728 CURVE SMOOTH",
"382 727 OFFCURVE",
"432 704 OFFCURVE",
"451 686 CURVE",
"426 507 OFFCURVE",
"388 159 OFFCURVE",
"390 70 CURVE SMOOTH",
"391 17 OFFCURVE",
"416 -11 OFFCURVE",
"470 -11 CURVE SMOOTH",
"550 -11 OFFCURVE",
"591 83 OFFCURVE",
"600 129 CURVE",
"571 136 LINE",
"551 64 OFFCURVE",
"521 39 OFFCURVE",
"499 39 CURVE SMOOTH",
"473 39 OFFCURVE",
"471 65 OFFCURVE",
"471 91 CURVE SMOOTH",
"471 188 OFFCURVE",
"498 444 OFFCURVE",
"516 585 CURVE SMOOTH",
"522 630 OFFCURVE",
"535 705 OFFCURVE",
"543 755 CURVE",
"514 755 LINE",
"464 724 OFFCURVE",
"413 760 OFFCURVE",
"342 760 CURVE SMOOTH"
);
}
);
width = 611;
}
);
leftKerningGroup = f;
rightKerningGroup = l;
unicode = FB02;
},
{
glyphname = ordfeminine;
layers = (
{
layerId = "13AA25AE-C1F8-404A-9DC4-1A2868689295";
name = "Light Italic";
paths = (
{
closed = 1;
nodes = (
"121 716 OFFCURVE",
"64 609 OFFCURVE",
"64 490 CURVE SMOOTH",
"64 411 OFFCURVE",
"94 380 OFFCURVE",
"140 380 CURVE SMOOTH",
"175 380 OFFCURVE",
"224 397 OFFCURVE",
"264 522 CURVE",
"266 522 LINE",
"259 490 OFFCURVE",
"254 461 OFFCURVE",
"254 438 CURVE SMOOTH",
"254 402 OFFCURVE",
"266 380 OFFCURVE",
"300 380 CURVE SMOOTH",
"351 380 OFFCURVE",
"369 428 OFFCURVE",
"378 464 CURVE",
"356 469 LINE",
"343 424 OFFCURVE",
"330 417 OFFCURVE",
"318 417 CURVE SMOOTH",
"307 417 OFFCURVE",
"307 433 OFFCURVE",
"307 451 CURVE SMOOTH",
"307 492 OFFCURVE",
"322 604 OFFCURVE",
"335 706 CURVE",
"308 712 OFFCURVE",
"270 716 OFFCURVE",
"245 716 CURVE SMOOTH"
);
},
{
closed = 1;
nodes = (
"245 689 OFFCURVE",
"263 685 OFFCURVE",
"273 680 CURVE",
"269 566 OFFCURVE",
"207 414 OFFCURVE",
"154 420 CURVE SMOOTH",
"133 423 OFFCURVE",
"120 447 OFFCURVE",
"120 501 CURVE SMOOTH",
"120 596 OFFCURVE",
"148 685 OFFCURVE",
"225 688 CURVE SMOOTH"
);
}
);
width = 402;
}
);
unicode = 00AA;
},
{
glyphname = ordmasculine;
layers = (
{
layerId = "13AA25AE-C1F8-404A-9DC4-1A2868689295";
name = "Light Italic";
paths = (
{
closed = 1;
nodes = (
"119 716 OFFCURVE",
"61 625 OFFCURVE",
"61 523 CURVE SMOOTH",
"61 444 OFFCURVE",
"98 375 OFFCURVE",
"181 375 CURVE SMOOTH",
"279 375 OFFCURVE",
"335 472 OFFCURVE",
"335 573 CURVE SMOOTH",
"335 662 OFFCURVE",
"284 716 OFFCURVE",
"216 716 CURVE SMOOTH"
);
},
{
closed = 1;
nodes = (
"264 687 OFFCURVE",
"276 612 OFFCURVE",
"275 554 CURVE SMOOTH",
"273 493 OFFCURVE",
"251 407 OFFCURVE",
"189 407 CURVE SMOOTH",
"133 407 OFFCURVE",
"120 485 OFFCURVE",
"121 543 CURVE SMOOTH",
"123 625 OFFCURVE",
"155 687 OFFCURVE",
"207 687 CURVE SMOOTH"
);
}
);
width = 362;
}
);
unicode = 00BA;
},
{
color = 4;
glyphname = "Be-cy";
layers = (
{
layerId = "13AA25AE-C1F8-404A-9DC4-1A2868689295";
name = "Light Italic";
paths = (
{
closed = 1;
nodes = (
"213 397 LINE",
"222 552 LINE SMOOTH",
"226 622 OFFCURVE",
"227 662 OFFCURVE",
"295 663 CURVE SMOOTH",
"383 665 LINE SMOOTH",
"458 667 OFFCURVE",
"520 643 OFFCURVE",
"514 525 CURVE",
"547 525 LINE",
"551 700 LINE",
"76 700 LINE",
"74 656 LINE",
"147 660 LINE",
"144 640 OFFCURVE",
"141 615 OFFCURVE",
"140 588 CURVE SMOOTH",
"118 161 LINE SMOOTH",
"114 86 OFFCURVE",
"117 35 OFFCURVE",
"42 33 CURVE",
"40 0 LINE",
"329 0 LINE SMOOTH",
"464 0 OFFCURVE",
"572 68 OFFCURVE",
"572 212 CURVE SMOOTH",
"572 335 OFFCURVE",
"496 404 OFFCURVE",
"297 399 CURVE SMOOTH"
);
},
{
closed = 1;
nodes = (
"211 359 LINE",
"243 361 OFFCURVE",
"274 362 OFFCURVE",
"314 362 CURVE SMOOTH",
"405 362 OFFCURVE",
"484 323 OFFCURVE",
"479 202 CURVE SMOOTH",
"474 90 OFFCURVE",
"401 39 OFFCURVE",
"298 39 CURVE SMOOTH",
"285 39 OFFCURVE",
"223 38 OFFCURVE",
"192 41 CURVE",
"195 58 OFFCURVE",
"197 83 OFFCURVE",
"199 119 CURVE SMOOTH"
);
}
);
width = 619;
}
);
unicode = 0411;
},
{
color = 4;
glyphname = "Ge-cy";
layers = (
{
anchors = (
{
name = bottomright;
position = "{181, 0}";
},
{
name = center;
position = "{276, 350}";
},
{
name = top;
position = "{294, 700}";
}
);
layerId = "13AA25AE-C1F8-404A-9DC4-1A2868689295";
name = "Light Italic";
paths = (
{
closed = 1;
nodes = (
"222 552 LINE",
"225 622 OFFCURVE",
"229 661 OFFCURVE",
"297 663 CURVE SMOOTH",
"370 665 LINE SMOOTH",
"445 667 OFFCURVE",
"507 643 OFFCURVE",
"501 525 CURVE",
"534 525 LINE",
"538 700 LINE",
"78 700 LINE",
"76 656 LINE",
"149 660 LINE",
"146 640 OFFCURVE",
"143 615 OFFCURVE",
"142 588 CURVE SMOOTH",
"118 156 LINE SMOOTH",
"115 85 OFFCURVE",
"118 36 OFFCURVE",
"43 33 CURVE",
"41 0 LINE",
"292 0 LINE",
"294 44 LINE",
"192 40 LINE",
"195 57 OFFCURVE",
"198 83 OFFCURVE",
"199 119 CURVE"
);
}
);
width = 541;
}
);
unicode = 0413;
},
{
color = 4;
glyphname = "Gheupturn-cy";
layers = (
{
layerId = "13AA25AE-C1F8-404A-9DC4-1A2868689295";
name = "Light Italic";
paths = (
{
closed = 1;
nodes = (
"514 839 LINE",
"508 721 OFFCURVE",
"447 700 OFFCURVE",
"372 700 CURVE SMOOTH",
"78 700 LINE",
"76 656 LINE",
"149 660 LINE",
"146 640 OFFCURVE",
"143 615 OFFCURVE",
"142 588 CURVE SMOOTH",
"118 156 LINE SMOOTH",
"115 85 OFFCURVE",
"118 36 OFFCURVE",
"43 33 CURVE",
"41 0 LINE",
"292 0 LINE",
"294 44 LINE",
"192 40 LINE",
"195 57 OFFCURVE",
"198 83 OFFCURVE",
"199 119 CURVE SMOOTH",
"222 552 LINE SMOOTH",
"225 622 OFFCURVE",
"229 661 OFFCURVE",
"297 663 CURVE SMOOTH",
"538 663 LINE",
"547 839 LINE"
);
}
);
width = 541;
}
);
unicode = 0490;
},
{
color = 9;
glyphname = "De-cy";
lastChange = "2016-09-05 10:31:55 +0000";
layers = (
{
layerId = "13AA25AE-C1F8-404A-9DC4-1A2868689295";
name = "Light Italic";
paths = (
{
closed = 1;
nodes = (
"-21 44 LINE",
"-33 -178 LINE",
"9 -178 LINE",
"14 -63 OFFCURVE",
"35 0 OFFCURVE",
"101 0 CURVE SMOOTH",
"481 0 LINE SMOOTH",
"546 0 OFFCURVE",
"560 -63 OFFCURVE",
"554 -178 CURVE",
"596 -178 LINE",
"607 44 LINE"
);
},
{
closed = 1;
nodes = (
"446 156 LINE SMOOTH",
"442 84 OFFCURVE",
"437 46 OFFCURVE",
"372 44 CURVE",
"521 44 LINE",
"524 61 OFFCURVE",
"526 83 OFFCURVE",
"527 119 CURVE SMOOTH",
"550 554 LINE SMOOTH",
"553 625 OFFCURVE",
"555 664 OFFCURVE",
"626 667 CURVE",
"628 700 LINE",
"135 700 LINE",
"133 656 LINE",
"477 660 LINE",
"473 640 OFFCURVE",
"470 615 OFFCURVE",
"469 588 CURVE SMOOTH"
);
},
{
closed = 1;
nodes = (
"234 700 LINE",
"201 400 OFFCURVE",
"170 213 OFFCURVE",
"105 105 CURVE SMOOTH",
"69 49 OFFCURVE",
"41 44 OFFCURVE",
"-13 44 CURVE",
"17 0 LINE",
"71 0 OFFCURVE",
"117 31 OFFCURVE",
"153 90 CURVE SMOOTH",
"227 217 OFFCURVE",
"255 450 OFFCURVE",
"284 700 CURVE"
);
},
{
closed = 1;
nodes = (
"237 627 LINE",
"273 605 LINE",
"277 637 OFFCURVE",
"296 658 OFFCURVE",
"342 659 CURVE",
"245 658 LINE"
);
}
);
width = 669;
}
);
unicode = 0414;
},
{
color = 4;
glyphname = "Zhe-cy";
layers = (
{
anchors = (
{
name = bottomright;
position = "{906, 0}";
},
{
name = top;
position = "{493, 700}";
}
);
layerId = "13AA25AE-C1F8-404A-9DC4-1A2868689295";
name = "Light Italic";
paths = (
{
closed = 1;
nodes = (
"737 700 LINE",
"734 659 LINE",
"795 661 LINE",
"767 639 OFFCURVE",
"737 604 OFFCURVE",
"720 577 CURVE SMOOTH",
"594 380 LINE",
"520 380 LINE",
"528 544 LINE SMOOTH",
"532 615 OFFCURVE",
"528 664 OFFCURVE",
"604 667 CURVE",
"605 700 LINE",
"380 700 LINE",
"378 656 LINE",
"450 660 LINE",
"447 640 OFFCURVE",
"444 615 OFFCURVE",
"443 588 CURVE SMOOTH",
"420 156 LINE SMOOTH",
"417 85 OFFCURVE",
"420 36 OFFCURVE",
"345 33 CURVE",
"343 0 LINE",
"568 0 LINE",
"571 44 LINE",
"499 40 LINE",
"502 57 OFFCURVE",
"504 83 OFFCURVE",
"506 119 CURVE SMOOTH",
"518 340 LINE",
"577 341 LINE",
"606 317 OFFCURVE",
"620 291 OFFCURVE",
"637 260 CURVE SMOOTH",
"729 98 LINE SMOOTH",
"765 35 OFFCURVE",
"810 0 OFFCURVE",
"830 0 CURVE SMOOTH",
"932 0 LINE",
"934 33 LINE",
"891 33 OFFCURVE",
"857 52 OFFCURVE",
"803 149 CURVE SMOOTH",
"723 291 LINE SMOOTH",
"700 331 OFFCURVE",
"681 353 OFFCURVE",
"645 376 CURVE",
"744 532 LINE SMOOTH",
"813 644 OFFCURVE",
"865 660 OFFCURVE",
"950 667 CURVE",
"952 700 LINE"
);
},
{
closed = 1;
nodes = (
"35 700 LINE",
"33 667 LINE",
"116 660 OFFCURVE",
"166 644 OFFCURVE",
"225 532 CURVE SMOOTH",
"308 376 LINE",
"269 353 OFFCURVE",
"247 331 OFFCURVE",
"220 291 CURVE SMOOTH",
"125 149 LINE SMOOTH",
"61 52 OFFCURVE",
"25 33 OFFCURVE",
"-18 33 CURVE",
"-20 0 LINE",
"87 0 LINE SMOOTH",
"107 0 OFFCURVE",
"154 34 OFFCURVE",
"196 98 CURVE SMOOTH",
"302 260 LINE SMOOTH",
"323 291 OFFCURVE",
"339 317 OFFCURVE",
"371 341 CURVE",
"431 340 LINE",
"433 380 LINE",
"358 380 LINE",
"253 577 LINE SMOOTH",
"239 604 OFFCURVE",
"213 639 OFFCURVE",
"186 661 CURVE",
"247 659 LINE",
"250 700 LINE"
);
}
);
width = 939;
}
);
leftMetricsKey = "=|Ka-cy";
rightMetricsKey = "Ka-cy";
unicode = 0416;
userData = {
public.markColor = "0.67,0.95,0.38,1";
};
},
{
color = 4;
glyphname = "Ze-cy";
lastChange = "2016-09-05 11:07:19 +0000";
layers = (
{
anchors = (
{
name = bottom;
position = "{285, 0}";
},
{
name = top;
position = "{321, 700}";
}
);
background = {
paths = (
{
closed = 1;
nodes = (
"260 343 LINE",
"393 342 OFFCURVE",
"457 301 OFFCURVE",
"451 202 CURVE SMOOTH",
"445 89 OFFCURVE",
"355 36 OFFCURVE",
"261 36 CURVE SMOOTH",
"180 36 OFFCURVE",
"112 76 OFFCURVE",
"51 151 CURVE",
"24 130 LINE",
"86 31 OFFCURVE",
"178 -12 OFFCURVE",
"280 -12 CURVE SMOOTH",
"408 -12 OFFCURVE",
"540 57 OFFCURVE",
"548 191 CURVE SMOOTH",
"554 291 OFFCURVE",
"488 380 OFFCURVE",
"324 367 CURVE"
);
},
{
closed = 1;
nodes = (
"195 386 LINE",
"193 342 LINE",
"298 343 LINE",
"280 386 LINE"
);
},
{
closed = 1;
nodes = (
"256 716 OFFCURVE",
"209 697 OFFCURVE",
"148 655 CURVE",
"155 709 LINE",
"101 709 LINE",
"89 477 LINE",
"125 477 LINE",
"160 608 OFFCURVE",
"233 675 OFFCURVE",
"320 675 CURVE SMOOTH",
"389 675 OFFCURVE",
"442 637 OFFCURVE",
"437 539 CURVE SMOOTH",
"433 459 OFFCURVE",
"390 383 OFFCURVE",
"267 386 CURVE",
"297 343 LINE",
"354 366 LINE",
"354 369 LINE",
"465 389 OFFCURVE",
"523 466 OFFCURVE",
"529 545 CURVE SMOOTH",
"536 650 OFFCURVE",
"454 716 OFFCURVE",
"325 716 CURVE SMOOTH"
);
}
);
};
layerId = "13AA25AE-C1F8-404A-9DC4-1A2868689295";
name = "Light Italic";
paths = (
{
closed = 1;
nodes = (
"260 343 LINE",
"393 342 OFFCURVE",
"457 301 OFFCURVE",
"451 202 CURVE SMOOTH",
"445 89 OFFCURVE",
"365 31 OFFCURVE",
"261 31 CURVE SMOOTH",
"180 31 OFFCURVE",
"112 71 OFFCURVE",
"51 146 CURVE",
"24 125 LINE",
"86 26 OFFCURVE",
"188 -17 OFFCURVE",
"290 -17 CURVE SMOOTH",
"418 -17 OFFCURVE",
"540 57 OFFCURVE",
"548 191 CURVE SMOOTH",
"554 291 OFFCURVE",
"488 373 OFFCURVE",
"324 367 CURVE"
);
},
{
closed = 1;
nodes = (
"195 386 LINE",
"193 342 LINE",
"298 343 LINE",
"280 386 LINE"
);
},
{
closed = 1;
nodes = (
"266 716 OFFCURVE",
"199 697 OFFCURVE",
"148 655 CURVE",
"155 709 LINE",
"101 709 LINE",
"89 477 LINE",
"125 477 LINE",
"160 608 OFFCURVE",
"233 675 OFFCURVE",
"320 675 CURVE SMOOTH",
"389 675 OFFCURVE",
"442 637 OFFCURVE",
"437 539 CURVE SMOOTH",
"433 459 OFFCURVE",
"390 383 OFFCURVE",
"267 386 CURVE",
"297 343 LINE",
"354 366 LINE",
"354 369 LINE",
"455 379 OFFCURVE",
"523 456 OFFCURVE",
"529 545 CURVE SMOOTH",
"536 650 OFFCURVE",
"454 716 OFFCURVE",
"325 716 CURVE SMOOTH"
);
}
);
width = 595;
}
);
rightMetricsKey = B;
unicode = 0417;
},
{
color = 4;
glyphname = "Ii-cy";
layers = (
{
anchors = (
{
name = bottomright;
position = "{750, 0}";
},
{
name = top;
position = "{415, 700}";
}
);
layerId = "13AA25AE-C1F8-404A-9DC4-1A2868689295";
name = "Light Italic";
paths = (
{
closed = 1;
nodes = (
"222 556 LINE",
"226 627 OFFCURVE",
"232 664 OFFCURVE",
"297 667 CURVE",
"299 700 LINE",
"78 700 LINE",
"76 656 LINE",
"148 660 LINE",
"145 640 OFFCURVE",
"143 615 OFFCURVE",
"141 588 CURVE SMOOTH",
"118 156 LINE SMOOTH",
"114 85 OFFCURVE",
"118 36 OFFCURVE",
"43 33 CURVE",
"41 0 LINE",
"262 0 LINE",
"264 44 LINE",
"192 40 LINE",
"195 57 OFFCURVE",
"197 83 OFFCURVE",
"199 119 CURVE"
);
},
{
closed = 1;
nodes = (
"570 156 LINE",
"567 85 OFFCURVE",
"570 36 OFFCURVE",
"495 33 CURVE",
"493 0 LINE",
"714 0 LINE",
"716 44 LINE",
"644 40 LINE",
"647 57 OFFCURVE",
"649 83 OFFCURVE",
"651 119 CURVE SMOOTH",
"674 557 LINE SMOOTH",
"678 628 OFFCURVE",
"684 664 OFFCURVE",
"749 667 CURVE",
"751 700 LINE",
"530 700 LINE",
"528 656 LINE",
"600 660 LINE",
"597 640 OFFCURVE",
"594 615 OFFCURVE",
"593 588 CURVE"
);
},
{
closed = 1;
nodes = (
"602 657 LINE",
"146 56 LINE",
"179 29 LINE",
"631 631 LINE"
);
}
);
width = 783;
}
);
unicode = 0418;
},
{
color = 4;
glyphname = "El-cy";
lastChange = "2016-09-05 12:16:23 +0000";
layers = (
{
layerId = "13AA25AE-C1F8-404A-9DC4-1A2868689295";
name = "Light Italic";
paths = (
{
closed = 1;
nodes = (
"581 554 LINE SMOOTH",
"583 625 OFFCURVE",
"585 664 OFFCURVE",
"656 667 CURVE",
"658 700 LINE",
"201 700 LINE",
"199 656 LINE",
"279 657 LINE",
"263 222 OFFCURVE",
"175 28 OFFCURVE",
"103 28 CURVE SMOOTH",
"97 28 OFFCURVE",
"93 30 OFFCURVE",
"89 32 CURVE",
"96 39 OFFCURVE",
"99 46 OFFCURVE",
"99 58 CURVE SMOOTH",
"99 84 OFFCURVE",
"82 100 OFFCURVE",
"54 100 CURVE SMOOTH",
"23 100 OFFCURVE",
"3 80 OFFCURVE",
"1 48 CURVE SMOOTH",
"-1 4 OFFCURVE",
"31 -16 OFFCURVE",
"81 -16 CURVE SMOOTH",
"229 -16 OFFCURVE",
"295 191 OFFCURVE",
"325 610 CURVE SMOOTH",
"326 640 OFFCURVE",
"330 656 OFFCURVE",
"370 658 CURVE SMOOTH",
"507 660 LINE",
"503 640 OFFCURVE",
"500 615 OFFCURVE",
"500 588 CURVE SMOOTH",
"477 156 LINE SMOOTH",
"474 85 OFFCURVE",
"477 36 OFFCURVE",
"402 33 CURVE",
"399 0 LINE",
"621 0 LINE",
"623 44 LINE",
"551 40 LINE",
"554 57 OFFCURVE",
"557 83 OFFCURVE",
"558 119 CURVE SMOOTH"
);
}
);
width = 690;
}
);
rightMetricsKey = "En-cy";
unicode = 041B;
},
{
color = 4;
glyphname = "Pe-cy";
layers = (
{
anchors = (
{
name = bottomright;
position = "{720, 0}";
}
);
layerId = "13AA25AE-C1F8-404A-9DC4-1A2868689295";
name = "Light Italic";
paths = (
{
closed = 1;
nodes = (
"644 557 LINE SMOOTH",
"647 628 OFFCURVE",
"653 664 OFFCURVE",
"719 667 CURVE",
"721 700 LINE",
"78 700 LINE",
"76 656 LINE",
"148 660 LINE",
"145 640 OFFCURVE",
"143 615 OFFCURVE",
"141 588 CURVE SMOOTH",
"118 156 LINE SMOOTH",
"114 85 OFFCURVE",
"118 36 OFFCURVE",
"43 33 CURVE",
"41 0 LINE",
"262 0 LINE",
"264 44 LINE",
"192 40 LINE",
"195 57 OFFCURVE",
"197 83 OFFCURVE",
"199 119 CURVE SMOOTH",
"222 546 LINE SMOOTH",
"226 615 OFFCURVE",
"231 651 OFFCURVE",
"289 657 CURVE",
"570 660 LINE",
"567 640 OFFCURVE",
"564 615 OFFCURVE",
"563 588 CURVE SMOOTH",
"540 156 LINE SMOOTH",
"537 85 OFFCURVE",
"540 36 OFFCURVE",
"465 33 CURVE",
"463 0 LINE",
"684 0 LINE",
"686 44 LINE",
"614 40 LINE",
"617 57 OFFCURVE",
"619 83 OFFCURVE",
"621 119 CURVE SMOOTH"
);
}
);
width = 753;
}
);
rightMetricsKey = "En-cy";
unicode = 041F;
},
{
color = 4;
glyphname = "U-cy";
layers = (
{
anchors = (
{
name = top;
position = "{329, 700}";
}
);
layerId = "13AA25AE-C1F8-404A-9DC4-1A2868689295";
name = "Light Italic";
paths = (
{
closed = 1;
nodes = (
"341 236 LINE",
"200 558 LINE SMOOTH",
"171 622 OFFCURVE",
"174 667 OFFCURVE",
"258 667 CURVE",
"260 700 LINE",
"19 700 LINE",
"17 656 LINE",
"79 658 LINE",
"82 633 OFFCURVE",
"90 599 OFFCURVE",
"113 546 CURVE SMOOTH",
"294 147 LINE"
);
},
{
closed = 1;
nodes = (
"277 118 OFFCURVE",
"249 73 CURVE SMOOTH",
"223 31 OFFCURVE",
"208 22 OFFCURVE",
"183 32 CURVE",
"189 39 OFFCURVE",
"192 45 OFFCURVE",
"193 57 CURVE SMOOTH",
"194 78 OFFCURVE",
"181 101 OFFCURVE",
"149 100 CURVE SMOOTH",
"118 99 OFFCURVE",
"97 76 OFFCURVE",
"96 44 CURVE SMOOTH",
"93 -2 OFFCURVE",
"133 -17 OFFCURVE",
"174 -17 CURVE SMOOTH",
"244 -17 OFFCURVE",
"281 39 OFFCURVE",
"333 149 CURVE SMOOTH",
"515 540 LINE SMOOTH",
"553 622 OFFCURVE",
"570 663 OFFCURVE",
"645 667 CURVE",
"646 700 LINE",
"442 700 LINE",
"440 656 LINE",
"519 659 LINE",
"504 642 OFFCURVE",
"483 592 OFFCURVE",
"468 552 CURVE SMOOTH",
"429 454 OFFCURVE"
);
}
);
width = 611;
}
);
unicode = 0423;
},
{
color = 4;
glyphname = "Ef-cy";
lastChange = "2016-09-05 10:39:25 +0000";
layers = (
{
layerId = "13AA25AE-C1F8-404A-9DC4-1A2868689295";
leftMetricsKey = "=O";
rightMetricsKey = "=O";
name = "Light Italic";
paths = (
{
closed = 1;
nodes = (
"175 648 OFFCURVE",
"59 520 OFFCURVE",
"49 335 CURVE SMOOTH",
"40 164 OFFCURVE",
"164 72 OFFCURVE",
"400 72 CURVE",
"402 113 LINE",
"222 113 OFFCURVE",
"138 178 OFFCURVE",
"148 354 CURVE SMOOTH",
"157 520 OFFCURVE",
"251 608 OFFCURVE",
"417 608 CURVE",
"420 648 LINE"
);
},
{
closed = 1;
nodes = (
"320 759 LINE",
"317 715 LINE",
"390 719 LINE",
"386 699 OFFCURVE",
"384 674 OFFCURVE",
"383 647 CURVE SMOOTH",
"354 112 LINE",
"350 41 OFFCURVE",
"354 -8 OFFCURVE",
"279 -11 CURVE",
"277 -44 LINE",
"497 -44 LINE",
"499 0 LINE",
"427 -4 LINE",
"430 13 OFFCURVE",
"433 39 OFFCURVE",
"434 75 CURVE SMOOTH",
"463 603 LINE SMOOTH",
"467 674 OFFCURVE",
"463 723 OFFCURVE",
"538 726 CURVE",
"540 759 LINE"
);
},
{
closed = 1;
nodes = (
"648 72 OFFCURVE",
"766 177 OFFCURVE",
"775 350 CURVE SMOOTH",
"785 534 OFFCURVE",
"659 648 OFFCURVE",
"420 648 CURVE",
"418 607 LINE",
"595 607 OFFCURVE",
"686 520 OFFCURVE",
"676 332 CURVE SMOOTH",
"667 178 OFFCURVE",
"572 112 OFFCURVE",
"403 112 CURVE",
"400 72 LINE"
);
}
);
width = 817;
}
);
leftMetricsKey = O;
rightMetricsKey = O;
unicode = 0424;
},
{
color = 4;
glyphname = "Che-cy";
lastChange = "2016-09-05 12:08:58 +0000";
layers = (
{
anchors = (
{
name = bottomright;
position = "{661, 0}";
},
{
name = center;
position = "{352, 350}";
},
{
name = top;
position = "{370, 700}";
}
);
layerId = "13AA25AE-C1F8-404A-9DC4-1A2868689295";
name = "Light Italic";
paths = (
{
closed = 1;
nodes = (
"585 557 LINE SMOOTH",
"589 628 OFFCURVE",
"595 664 OFFCURVE",
"661 667 CURVE",
"663 700 LINE",
"441 700 LINE",
"439 656 LINE",
"512 660 LINE",
"509 640 OFFCURVE",
"506 615 OFFCURVE",
"504 588 CURVE SMOOTH",
"492 360 LINE",
"456 339 OFFCURVE",
"404 324 OFFCURVE",
"324 324 CURVE SMOOTH",
"239 324 OFFCURVE",
"188 371 OFFCURVE",
"193 451 CURVE SMOOTH",
"199 556 LINE SMOOTH",
"203 627 OFFCURVE",
"209 664 OFFCURVE",
"274 667 CURVE",
"276 700 LINE",
"55 700 LINE",
"53 656 LINE",
"125 660 LINE",
"122 640 OFFCURVE",
"120 615 OFFCURVE",
"118 588 CURVE SMOOTH",
"112 472 LINE SMOOTH",
"105 343 OFFCURVE",
"163 273 OFFCURVE",
"287 273 CURVE SMOOTH",
"375 273 OFFCURVE",
"443 288 OFFCURVE",
"490 311 CURVE",
"481 156 LINE SMOOTH",
"479 85 OFFCURVE",
"481 36 OFFCURVE",
"407 33 CURVE",
"405 0 LINE",
"625 0 LINE",
"627 44 LINE",
"556 40 LINE",
"559 57 OFFCURVE",
"561 83 OFFCURVE",
"563 119 CURVE SMOOTH"
);
}
);
width = 694;
}
);
unicode = 0427;
},
{
color = 9;
glyphname = "Tse-cy";
lastChange = "2016-09-05 09:05:21 +0000";
layers = (
{
layerId = "13AA25AE-C1F8-404A-9DC4-1A2868689295";
leftMetricsKey = "En-cy";
name = "Light Italic";
paths = (
{
closed = 1;
nodes = (
"622 557 LINE SMOOTH",
"626 628 OFFCURVE",
"632 664 OFFCURVE",
"697 667 CURVE",
"699 700 LINE",
"478 700 LINE",
"476 656 LINE",
"548 660 LINE",
"545 640 OFFCURVE",
"542 615 OFFCURVE",
"541 588 CURVE SMOOTH",
"518 156 LINE SMOOTH",
"514 79 OFFCURVE",
"509 40 OFFCURVE",
"446 40 CURVE",
"193 44 LINE",
"195 57 OFFCURVE",
"197 83 OFFCURVE",
"199 119 CURVE SMOOTH",
"222 556 LINE SMOOTH",
"226 627 OFFCURVE",
"232 664 OFFCURVE",
"297 667 CURVE",
"299 700 LINE",
"78 700 LINE",
"76 656 LINE",
"148 660 LINE",
"145 640 OFFCURVE",
"143 615 OFFCURVE",
"141 588 CURVE SMOOTH",
"118 156 LINE SMOOTH",
"114 85 OFFCURVE",
"118 36 OFFCURVE",
"43 33 CURVE",
"41 0 LINE",
"662 0 LINE",
"664 44 LINE",
"592 40 LINE",
"595 57 OFFCURVE",
"597 83 OFFCURVE",
"599 119 CURVE SMOOTH"
);
},
{
closed = 1;
nodes = (
"615 0 OFFCURVE",
"627 -63 OFFCURVE",
"621 -177 CURVE",
"663 -177 LINE",
"675 45 LINE",
"592 40 LINE",
"549 0 LINE"
);
}
);
width = 726;
}
);
leftMetricsKey = "En-cy";
unicode = 0426;
},
{
color = 4;
glyphname = "Sha-cy";
layers = (
{
layerId = "13AA25AE-C1F8-404A-9DC4-1A2868689295";
name = "Light Italic";
paths = (
{
closed = 1;
nodes = (
"222 556 LINE",
"226 627 OFFCURVE",
"232 664 OFFCURVE",
"297 667 CURVE",
"299 700 LINE",
"78 700 LINE",
"76 656 LINE",
"148 660 LINE",
"145 640 OFFCURVE",
"143 615 OFFCURVE",
"141 588 CURVE SMOOTH",
"118 156 LINE SMOOTH",
"114 85 OFFCURVE",
"118 36 OFFCURVE",
"43 33 CURVE",
"41 0 LINE",
"262 0 LINE",
"192 40 LINE",
"195 57 OFFCURVE",
"197 83 OFFCURVE",
"199 119 CURVE"
);
},
{
closed = 1;
nodes = (
"457 156 LINE",
"454 85 OFFCURVE",
"457 42 OFFCURVE",
"382 40 CURVE",
"380 0 LINE",
"601 0 LINE",
"531 40 LINE",
"534 57 OFFCURVE",
"536 83 OFFCURVE",
"538 119 CURVE SMOOTH",
"561 557 LINE SMOOTH",
"564 628 OFFCURVE",
"570 664 OFFCURVE",
"636 667 CURVE",
"638 700 LINE",
"417 700 LINE",
"415 656 LINE",
"487 660 LINE",
"484 640 OFFCURVE",
"481 615 OFFCURVE",
"479 588 CURVE"
);
},
{
closed = 1;
nodes = (
"849 40 LINE",
"178 40 LINE",
"176 0 LINE",
"847 0 LINE"
);
},
{
closed = 1;
nodes = (
"792 156 LINE",
"790 85 OFFCURVE",
"792 41 OFFCURVE",
"718 40 CURVE",
"716 0 LINE",
"937 0 LINE",
"938 44 LINE",
"867 40 LINE",
"870 57 OFFCURVE",
"872 83 OFFCURVE",
"874 119 CURVE SMOOTH",
"896 557 LINE SMOOTH",
"900 628 OFFCURVE",
"906 664 OFFCURVE",
"972 667 CURVE",
"974 700 LINE",
"752 700 LINE",
"750 656 LINE",
"823 660 LINE",
"820 640 OFFCURVE",
"817 615 OFFCURVE",
"815 588 CURVE"
);
}
);
width = 1006;
}
);
leftMetricsKey = "En-cy";
rightMetricsKey = "En-cy";
unicode = 0428;
},
{
color = 9;
glyphname = "Shcha-cy";
lastChange = "2016-09-05 11:42:17 +0000";
layers = (
{
components = (
{
name = "Sha-cy";
transform = "{1, 0, 0, 1, 0, 0}";
}
);
layerId = "13AA25AE-C1F8-404A-9DC4-1A2868689295";
leftMetricsKey = "En-cy";
rightMetricsKey = "=Tse-cy";
name = "Light Italic";
paths = (
{
closed = 1;
nodes = (
"890 0 OFFCURVE",
"902 -63 OFFCURVE",
"896 -177 CURVE",
"938 -177 LINE",
"950 45 LINE",
"867 40 LINE",
"824 0 LINE"
);
}
);
width = 1001;
}
);
leftMetricsKey = "En-cy";
rightMetricsKey = "=Tse-cy";
unicode = 0429;
},
{
color = 4;
glyphname = "Dzhe-cy";
lastChange = "2016-09-05 09:03:40 +0000";
layers = (
{
components = (
{
name = "Pe-cy";
transform = "{-1, 0, 0, -1, 762, 700}";
}
);
layerId = "13AA25AE-C1F8-404A-9DC4-1A2868689295";
name = "Light Italic";
paths = (
{
closed = 1;
nodes = (
"342 0 OFFCURVE",
"354 -63 OFFCURVE",
"348 -177 CURVE",
"390 -177 LINE",
"400 15 LINE",
"276 0 LINE"
);
}
);
width = 753;
}
);
leftMetricsKey = "En-cy";
rightMetricsKey = "En-cy";
unicode = 040F;
},
{
color = 4;
glyphname = "Ia-cy";
layers = (
{
layerId = "13AA25AE-C1F8-404A-9DC4-1A2868689295";
name = "Light Italic";
paths = (
{
closed = 1;
nodes = (
"375 292 LINE",
"470 293 LINE",
"463 156 LINE SMOOTH",
"459 85 OFFCURVE",
"463 36 OFFCURVE",
"388 33 CURVE",
"386 0 LINE",
"611 0 LINE",
"613 44 LINE",
"541 40 LINE",
"544 60 OFFCURVE",
"547 85 OFFCURVE",
"548 112 CURVE SMOOTH",
"571 544 LINE SMOOTH",
"574 617 OFFCURVE",
"573 665 OFFCURVE",
"646 667 CURVE",
"648 700 LINE",
"380 700 LINE SMOOTH",
"236 700 OFFCURVE",
"163 629 OFFCURVE",
"157 515 CURVE SMOOTH",
"149 376 OFFCURVE",
"251 300 OFFCURVE",
"375 300 CURVE"
);
},
{
closed = 1;
nodes = (
"472 332 LINE",
"465 330 OFFCURVE",
"434 329 OFFCURVE",
"394 329 CURVE SMOOTH",
"311 329 OFFCURVE",
"245 400 OFFCURVE",
"250 506 CURVE SMOOTH",
"256 610 OFFCURVE",
"323 662 OFFCURVE",
"411 662 CURVE SMOOTH",
"424 662 OFFCURVE",
"486 663 OFFCURVE",
"493 660 CURVE",
"489 643 OFFCURVE",
"487 618 OFFCURVE",
"485 582 CURVE SMOOTH"
);
},
{
closed = 1;
nodes = (
"376 307 LINE",
"321 307 LINE",
"284 306 OFFCURVE",
"245 281 OFFCURVE",
"218 244 CURVE SMOOTH",
"134 128 LINE SMOOTH",
"89 65 OFFCURVE",
"67 33 OFFCURVE",
"11 33 CURVE",
"9 0 LINE",
"123 0 LINE",
"153 15 OFFCURVE",
"191 67 OFFCURVE",
"221 111 CURVE SMOOTH",
"302 226 LINE SMOOTH",
"318 249 OFFCURVE",
"345 275 OFFCURVE",
"375 292 CURVE"
);
}
);
width = 681;
}
);
rightMetricsKey = "En-cy";
unicode = 042F;
},
{
color = 4;
glyphname = "Softsign-cy";
layers = (
{
layerId = "13AA25AE-C1F8-404A-9DC4-1A2868689295";
name = "Light Italic";
paths = (
{
closed = 1;
nodes = (
"214 383 LINE",
"223 554 LINE SMOOTH",
"226 625 OFFCURVE",
"227 664 OFFCURVE",
"297 667 CURVE",
"299 700 LINE",
"78 700 LINE",
"76 656 LINE",
"148 660 LINE",
"145 640 OFFCURVE",
"142 615 OFFCURVE",
"141 588 CURVE SMOOTH",
"119 161 LINE SMOOTH",
"115 86 OFFCURVE",
"118 35 OFFCURVE",
"43 33 CURVE",
"41 0 LINE",
"330 0 LINE SMOOTH",
"465 0 OFFCURVE",
"573 68 OFFCURVE",
"573 205 CURVE SMOOTH",
"573 321 OFFCURVE",
"497 390 OFFCURVE",
"298 385 CURVE SMOOTH"
);
},
{
closed = 1;
nodes = (
"212 344 LINE",
"244 346 OFFCURVE",
"275 347 OFFCURVE",
"315 347 CURVE SMOOTH",
"406 347 OFFCURVE",
"485 308 OFFCURVE",
"479 195 CURVE SMOOTH",
"474 90 OFFCURVE",
"402 39 OFFCURVE",
"299 39 CURVE SMOOTH",
"286 39 OFFCURVE",
"224 38 OFFCURVE",
"193 41 CURVE",
"196 58 OFFCURVE",
"198 83 OFFCURVE",
"200 119 CURVE SMOOTH"
);
}
);
width = 598;
}
);
leftMetricsKey = "En-cy";
unicode = 042C;
},
{
color = 4;
glyphname = "Hardsign-cy";
layers = (
{
layerId = "13AA25AE-C1F8-404A-9DC4-1A2868689295";
name = "Light Italic";
paths = (
{
closed = 1;
nodes = (
"342 383 LINE",
"351 554 LINE SMOOTH",
"354 625 OFFCURVE",
"355 664 OFFCURVE",
"425 667 CURVE",
"427 700 LINE",
"53 700 LINE",
"36 489 LINE",
"73 489 LINE",
"79 607 OFFCURVE",
"113 662 OFFCURVE",
"197 662 CURVE SMOOTH",
"278 662 LINE",
"273 642 OFFCURVE",
"271 616 OFFCURVE",
"269 588 CURVE SMOOTH",
"247 161 LINE SMOOTH",
"243 86 OFFCURVE",
"246 35 OFFCURVE",
"171 33 CURVE",
"169 0 LINE",
"458 0 LINE SMOOTH",
"593 0 OFFCURVE",
"701 68 OFFCURVE",
"701 205 CURVE SMOOTH",
"701 321 OFFCURVE",
"625 390 OFFCURVE",
"426 385 CURVE SMOOTH"
);
},
{
closed = 1;
nodes = (
"340 344 LINE",
"372 346 OFFCURVE",
"403 347 OFFCURVE",
"443 347 CURVE SMOOTH",
"534 347 OFFCURVE",
"613 308 OFFCURVE",
"607 195 CURVE SMOOTH",
"602 90 OFFCURVE",
"530 39 OFFCURVE",
"427 39 CURVE SMOOTH",
"414 39 OFFCURVE",
"352 38 OFFCURVE",
"321 41 CURVE",
"324 58 OFFCURVE",
"326 83 OFFCURVE",
"328 119 CURVE SMOOTH"
);
}
);
width = 726;
}
);
leftMetricsKey = T;
rightMetricsKey = "Softsign-cy";
unicode = 042A;
},
{
color = 4;
glyphname = "Yeru-cy";
layers = (
{
anchors = (
{
name = top;
position = "{469, 700}";
}
);
components = (
{
name = I;
transform = "{1, 0, 0, 1, 560, 0}";
}
);
layerId = "13AA25AE-C1F8-404A-9DC4-1A2868689295";
name = "Light Italic";
paths = (
{
closed = 1;
nodes = (
"214 383 LINE",
"223 554 LINE SMOOTH",
"226 625 OFFCURVE",
"227 664 OFFCURVE",
"297 667 CURVE",
"299 700 LINE",
"78 700 LINE",
"76 656 LINE",
"148 660 LINE",
"145 640 OFFCURVE",
"142 615 OFFCURVE",
"141 588 CURVE SMOOTH",
"119 161 LINE SMOOTH",
"115 86 OFFCURVE",
"118 35 OFFCURVE",
"43 33 CURVE",
"41 0 LINE",
"320 0 LINE SMOOTH",
"446 0 OFFCURVE",
"549 68 OFFCURVE",
"549 205 CURVE SMOOTH",
"549 321 OFFCURVE",
"473 390 OFFCURVE",
"288 385 CURVE SMOOTH"
);
},
{
closed = 1;
nodes = (
"212 344 LINE",
"244 346 OFFCURVE",
"271 347 OFFCURVE",
"306 347 CURVE SMOOTH",
"382 347 OFFCURVE",
"461 308 OFFCURVE",
"455 195 CURVE SMOOTH",
"450 90 OFFCURVE",
"378 39 OFFCURVE",
"290 39 CURVE SMOOTH",
"276 39 OFFCURVE",
"224 38 OFFCURVE",
"193 41 CURVE",
"196 58 OFFCURVE",
"198 83 OFFCURVE",
"200 119 CURVE SMOOTH"
);
}
);
width = 892;
}
);
leftMetricsKey = "En-cy";
rightMetricsKey = "En-cy";
unicode = 042B;
},
{
color = 4;
glyphname = "Lje-cy";
layers = (
{
layerId = "13AA25AE-C1F8-404A-9DC4-1A2868689295";
name = "Light Italic";
paths = (
{
closed = 1;
nodes = (
"365 700 LINE",
"340 331 OFFCURVE",
"227 25 OFFCURVE",
"133 25 CURVE SMOOTH",
"127 25 OFFCURVE",
"124 26 OFFCURVE",
"120 28 CURVE",
"126 35 OFFCURVE",
"126 41 OFFCURVE",
"127 50 CURVE SMOOTH",
"130 71 OFFCURVE",
"116 99 OFFCURVE",
"83 99 CURVE SMOOTH",
"54 99 OFFCURVE",
"38 75 OFFCURVE",
"36 48 CURVE SMOOTH",
"34 4 OFFCURVE",
"66 -16 OFFCURVE",
"115 -16 CURVE SMOOTH",
"292 -16 OFFCURVE",
"378 308 OFFCURVE",
"415 700 CURVE"
);
},
{
closed = 1;
nodes = (
"370 627 LINE",
"405 605 LINE",
"410 637 OFFCURVE",
"429 658 OFFCURVE",
"475 659 CURVE",
"378 658 LINE"
);
},
{
closed = 1;
nodes = (
"550 496 LINE",
"532 161 LINE SMOOTH",
"528 86 OFFCURVE",
"531 35 OFFCURVE",
"457 33 CURVE",
"454 0 LINE",
"743 0 LINE SMOOTH",
"869 0 OFFCURVE",
"976 68 OFFCURVE",
"976 205 CURVE SMOOTH",
"976 321 OFFCURVE",
"900 389 OFFCURVE",
"710 385 CURVE SMOOTH",
"627 383 LINE",
"633 496 LINE"
);
},
{
closed = 1;
nodes = (
"625 344 LINE",
"657 346 OFFCURVE",
"688 347 OFFCURVE",
"728 347 CURVE SMOOTH",
"810 347 OFFCURVE",
"888 308 OFFCURVE",
"882 195 CURVE SMOOTH",
"876 90 OFFCURVE",
"805 39 OFFCURVE",
"712 39 CURVE SMOOTH",
"699 39 OFFCURVE",
"637 38 OFFCURVE",
"606 41 CURVE",
"609 58 OFFCURVE",
"611 83 OFFCURVE",
"613 119 CURVE SMOOTH"
);
},
{
closed = 1;
nodes = (
"633 496 LINE",
"636 554 LINE SMOOTH",
"639 625 OFFCURVE",
"641 664 OFFCURVE",
"711 667 CURVE",
"713 700 LINE",
"256 700 LINE",
"254 656 LINE",
"562 660 LINE",
"559 640 OFFCURVE",
"556 615 OFFCURVE",
"555 588 CURVE SMOOTH",
"550 496 LINE"
);
}
);
width = 1001;
}
);
rightMetricsKey = "Softsign-cy";
unicode = 0409;
},
{
color = 4;
glyphname = "Nje-cy";
layers = (
{
components = (
{
name = "Softsign-cy";
transform = "{1, 0, 0, 1, 430, 0}";
}
);
layerId = "13AA25AE-C1F8-404A-9DC4-1A2868689295";
name = "Light Italic";
paths = (
{
closed = 1;
nodes = (
"561 383 LINE",
"212 383 LINE",
"222 556 LINE SMOOTH",
"226 627 OFFCURVE",
"232 664 OFFCURVE",
"297 667 CURVE",
"299 700 LINE",
"78 700 LINE",
"76 656 LINE",
"148 660 LINE",
"145 640 OFFCURVE",
"143 615 OFFCURVE",
"141 588 CURVE SMOOTH",
"118 156 LINE SMOOTH",
"114 85 OFFCURVE",
"118 36 OFFCURVE",
"43 33 CURVE",
"41 0 LINE",
"262 0 LINE",
"264 44 LINE",
"192 40 LINE",
"195 57 OFFCURVE",
"197 83 OFFCURVE",
"199 119 CURVE SMOOTH",
"210 339 LINE",
"559 343 LINE"
);
}
);
width = 1028;
}
);
rightMetricsKey = "Softsign-cy";
unicode = 040A;
},
{
color = 4;
glyphname = "E-cy";
lastChange = "2016-09-05 14:11:22 +0000";
layers = (
{
layerId = "13AA25AE-C1F8-404A-9DC4-1A2868689295";
leftMetricsKey = "=O";
name = "Light Italic";
paths = (
{
closed = 1;
nodes = (
"492 477 LINE",
"488 389 OFFCURVE",
"451 382 OFFCURVE",
"367 383 CURVE SMOOTH",
"124 384 LINE",
"123 344 LINE",
"366 347 LINE SMOOTH",
"452 350 OFFCURVE",
"485 347 OFFCURVE",
"481 259 CURVE",
"514 259 LINE",
"525 477 LINE"
);
},
{
closed = 1;
nodes = (
"178 716 OFFCURVE",
"59 527 OFFCURVE",
"49 339 CURVE SMOOTH",
"39 140 OFFCURVE",
"164 -16 OFFCURVE",
"365 -16 CURVE SMOOTH",
"446 -16 OFFCURVE",
"563 11 OFFCURVE",
"655 127 CURVE",
"630 148 LINE",
"572 74 OFFCURVE",
"480 36 OFFCURVE",
"394 36 CURVE SMOOTH",
"246 36 OFFCURVE",
"132 165 OFFCURVE",
"142 354 CURVE SMOOTH",
"152 550 OFFCURVE",
"273 675 OFFCURVE",
"415 675 CURVE SMOOTH",
"531 675 OFFCURVE",
"606 604 OFFCURVE",
"613 479 CURVE",
"649 479 LINE",
"661 710 LINE",
"607 710 LINE",
"609 656 LINE",
"608 656 LINE",
"549 696 OFFCURVE",
"486 716 OFFCURVE",
"411 716 CURVE SMOOTH"
);
}
);
width = 691;
}
);
leftMetricsKey = "=O";
unicode = 0404;
},
{
color = 9;
glyphname = "Ereversed-cy";
lastChange = "2016-09-05 14:16:58 +0000";
layers = (
{
anchors = (
{
name = top;
position = "{361, 700}";
}
);
background = {
paths = (
{
closed = 1;
nodes = (
"-541 716 OFFCURVE",
"-607 696 OFFCURVE",
"-670 655 CURVE",
"-663 709 LINE",
"-717 709 LINE",
"-729 477 LINE",
"-693 477 LINE",
"-672 602 OFFCURVE",
"-591 675 OFFCURVE",
"-475 675 CURVE SMOOTH",
"-333 675 OFFCURVE",
"-226 550 OFFCURVE",
"-236 354 CURVE SMOOTH",
"-246 165 OFFCURVE",
"-373 36 OFFCURVE",
"-520 36 CURVE SMOOTH",
"-607 36 OFFCURVE",
"-695 76 OFFCURVE",
"-745 151 CURVE",
"-772 130 LINE",
"-692 11 OFFCURVE",
"-579 -16 OFFCURVE",
"-497 -16 CURVE SMOOTH",
"-296 -16 OFFCURVE",
"-149 140 OFFCURVE",
"-138 339 CURVE SMOOTH",
"-128 527 OFFCURVE",
"-233 716 OFFCURVE",
"-466 716 CURVE SMOOTH"
);
},
{
closed = 1;
nodes = (
"-615 259 LINE",
"-582 259 LINE",
"-577 347 OFFCURVE",
"-543 348 OFFCURVE",
"-458 347 CURVE SMOOTH",
"-205 344 LINE",
"-203 384 LINE",
"-571 383 LINE",
"-559 469 LINE",
"-603 469 LINE"
);
}
);
};
layerId = "13AA25AE-C1F8-404A-9DC4-1A2868689295";
rightMetricsKey = "=O";
name = "Light Italic";
paths = (
{
closed = 1;
nodes = (
"284 716 OFFCURVE",
"210 696 OFFCURVE",
"147 651 CURVE",
"154 709 LINE",
"100 709 LINE",
"88 477 LINE",
"124 477 LINE",
"145 602 OFFCURVE",
"209 675 OFFCURVE",
"338 675 CURVE SMOOTH",
"474 675 OFFCURVE",
"574 550 OFFCURVE",
"564 354 CURVE SMOOTH",
"554 165 OFFCURVE",
"437 36 OFFCURVE",
"290 36 CURVE SMOOTH",
"203 36 OFFCURVE",
"105 76 OFFCURVE",
"55 151 CURVE",
"28 130 LINE",
"108 11 OFFCURVE",
"227 -16 OFFCURVE",
"309 -16 CURVE SMOOTH",
"520 -16 OFFCURVE",
"651 163 OFFCURVE",
"662 362 CURVE SMOOTH",
"672 540 OFFCURVE",
"572 716 OFFCURVE",
"349 716 CURVE SMOOTH"
);
},
{
closed = 1;
nodes = (
"185 259 LINE",
"218 259 LINE",
"223 347 OFFCURVE",
"257 348 OFFCURVE",
"342 347 CURVE SMOOTH",
"595 344 LINE",
"597 384 LINE",
"229 383 LINE",
"241 469 LINE",
"197 469 LINE"
);
}
);
width = 706;
}
);
rightMetricsKey = "=O";
unicode = 042D;
},
{
color = 4;
glyphname = "Tshe-cy";
layers = (
{
components = (
{
name = T;
transform = "{1, 0, 0, 1, 0, 0}";
}
);
layerId = "13AA25AE-C1F8-404A-9DC4-1A2868689295";
name = "Light Italic";
paths = (
{
closed = 1;
nodes = (
"359 340 LINE",
"393 361 OFFCURVE",
"440 376 OFFCURVE",
"513 376 CURVE SMOOTH",
"598 376 OFFCURVE",
"647 327 OFFCURVE",
"643 250 CURVE SMOOTH",
"637 144 LINE SMOOTH",
"633 73 OFFCURVE",
"627 36 OFFCURVE",
"562 33 CURVE",
"560 0 LINE",
"781 0 LINE",
"783 44 LINE",
"711 40 LINE",
"714 60 OFFCURVE",
"717 85 OFFCURVE",
"718 112 CURVE SMOOTH",
"724 229 LINE SMOOTH",
"731 357 OFFCURVE",
"673 427 OFFCURVE",
"549 427 CURVE SMOOTH",
"468 427 OFFCURVE",
"405 412 OFFCURVE",
"361 389 CURVE"
);
}
);
width = 826;
}
);
leftMetricsKey = "Te-cy";
rightMetricsKey = "=|Che-cy";
unicode = 040B;
},
{
color = 4;
glyphname = "Iu-cy";
layers = (
{
layerId = "13AA25AE-C1F8-404A-9DC4-1A2868689295";
name = "Light Italic";
paths = (
{
closed = 1;
nodes = (
"346 378 LINE",
"212 378 LINE",
"222 556 LINE SMOOTH",
"226 627 OFFCURVE",
"232 664 OFFCURVE",
"297 667 CURVE",
"299 700 LINE",
"78 700 LINE",
"76 656 LINE",
"148 660 LINE",
"145 640 OFFCURVE",
"143 615 OFFCURVE",
"141 588 CURVE SMOOTH",
"118 156 LINE SMOOTH",
"114 85 OFFCURVE",
"118 36 OFFCURVE",
"43 33 CURVE",
"41 0 LINE",
"262 0 LINE",
"264 44 LINE",
"192 40 LINE",
"195 57 OFFCURVE",
"197 83 OFFCURVE",
"199 119 CURVE SMOOTH",
"210 334 LINE",
"344 338 LINE"
);
},
{
closed = 1;
nodes = (
"798 676 OFFCURVE",
"881 534 OFFCURVE",
"881 353 CURVE SMOOTH",
"881 179 OFFCURVE",
"790 25 OFFCURVE",
"632 25 CURVE SMOOTH",
"485 25 OFFCURVE",
"422 184 OFFCURVE",
"424 349 CURVE SMOOTH",
"426 522 OFFCURVE",
"517 676 OFFCURVE",
"653 676 CURVE SMOOTH"
);
},
{
closed = 1;
nodes = (
"329 156 OFFCURVE",
"424 -16 OFFCURVE",
"627 -16 CURVE SMOOTH",
"858 -16 OFFCURVE",
"977 187 OFFCURVE",
"977 369 CURVE SMOOTH",
"977 546 OFFCURVE",
"879 716 OFFCURVE",
"659 716 CURVE SMOOTH",
"467 716 OFFCURVE",
"329 542 OFFCURVE",
"329 327 CURVE SMOOTH"
);
}
);
width = 1019;
}
);
leftMetricsKey = "En-cy";
rightMetricsKey = O;
unicode = 042E;
},
{
color = 9;
glyphname = "Dje-cy";
lastChange = "2016-09-05 09:17:30 +0000";
layers = (
{
components = (
{
name = T;
transform = "{1, 0, 0, 1, 0, 0}";
}
);
layerId = "13AA25AE-C1F8-404A-9DC4-1A2868689295";
name = "Light Italic";
paths = (
{
closed = 1;
nodes = (
"728 346 OFFCURVE",
"667 427 OFFCURVE",
"525 427 CURVE SMOOTH",
"464 427 OFFCURVE",
"390 412 OFFCURVE",
"347 389 CURVE",
"346 343 LINE",
"380 364 OFFCURVE",
"441 379 OFFCURVE",
"493 379 CURVE SMOOTH",
"593 379 OFFCURVE",
"647 331 OFFCURVE",
"640 217 CURVE SMOOTH",
"631 71 OFFCURVE",
"589 21 OFFCURVE",
"533 21 CURVE SMOOTH",
"519 21 OFFCURVE",
"497 25 OFFCURVE",
"476 31 CURVE",
"465 0 LINE",
"497 -11 OFFCURVE",
"529 -16 OFFCURVE",
"559 -16 CURVE SMOOTH",
"643 -16 OFFCURVE",
"718 51 OFFCURVE",
"724 220 CURVE SMOOTH"
);
}
);
width = 776;
}
);
leftMetricsKey = "Te-cy";
unicode = 0402;
},
{
color = 9;
glyphname = "Yat-cy";
lastChange = "2016-09-05 09:40:51 +0000";
layers = (
{
anchors = (
{
name = bottom;
position = "{1022, 0}";
},
{
name = center;
position = "{1029, 351}";
},
{
name = top;
position = "{1056, 702}";
}
);
background = {
paths = (
{
closed = 1;
nodes = (
"318 383 LINE",
"327 554 LINE SMOOTH",
"330 625 OFFCURVE",
"331 664 OFFCURVE",
"401 667 CURVE",
"403 700 LINE",
"182 700 LINE",
"180 656 LINE",
"252 660 LINE",
"249 640 OFFCURVE",
"246 615 OFFCURVE",
"245 588 CURVE SMOOTH",
"223 161 LINE SMOOTH",
"219 86 OFFCURVE",
"222 35 OFFCURVE",
"147 33 CURVE",
"145 0 LINE",
"434 0 LINE SMOOTH",
"569 0 OFFCURVE",
"677 68 OFFCURVE",
"677 205 CURVE SMOOTH",
"677 321 OFFCURVE",
"601 390 OFFCURVE",
"402 385 CURVE SMOOTH"
);
}
);
};
layerId = "13AA25AE-C1F8-404A-9DC4-1A2868689295";
leftMetricsKey = "=T";
name = "Light Italic";
paths = (
{
closed = 1;
nodes = (
"411 576 LINE SMOOTH",
"514 577 OFFCURVE",
"536 549 OFFCURVE",
"532 451 CURVE",
"570 451 LINE",
"575 612 LINE",
"51 612 LINE",
"34 451 LINE",
"71 451 LINE",
"77 539 OFFCURVE",
"111 573 OFFCURVE",
"195 574 CURVE SMOOTH"
);
},
{
closed = 1;
nodes = (
"318 383 LINE",
"329 593 LINE SMOOTH",
"333 664 OFFCURVE",
"333 703 OFFCURVE",
"403 706 CURVE",
"405 739 LINE",
"184 739 LINE",
"182 695 LINE",
"254 699 LINE",
"251 679 OFFCURVE",
"248 654 OFFCURVE",
"247 627 CURVE SMOOTH",
"223 161 LINE SMOOTH",
"219 86 OFFCURVE",
"222 35 OFFCURVE",
"147 33 CURVE",
"145 0 LINE",
"434 0 LINE SMOOTH",
"569 0 OFFCURVE",
"677 68 OFFCURVE",
"677 205 CURVE SMOOTH",
"677 321 OFFCURVE",
"601 390 OFFCURVE",
"402 385 CURVE SMOOTH"
);
},
{
closed = 1;
nodes = (
"316 344 LINE",
"348 346 OFFCURVE",
"379 347 OFFCURVE",
"419 347 CURVE SMOOTH",
"510 347 OFFCURVE",
"589 308 OFFCURVE",
"583 195 CURVE SMOOTH",
"578 90 OFFCURVE",
"506 39 OFFCURVE",
"403 39 CURVE SMOOTH",
"390 39 OFFCURVE",
"328 38 OFFCURVE",
"297 41 CURVE",
"300 58 OFFCURVE",
"302 83 OFFCURVE",
"304 119 CURVE SMOOTH"
);
}
);
width = 725;
}
);
leftMetricsKey = "=T";
unicode = 0462;
},
{
color = 9;
glyphname = "Yusbig-cy";
lastChange = "2016-09-05 09:12:38 +0000";
layers = (
{
anchors = (
{
name = bottomright;
position = "{906, 0}";
},
{
name = top;
position = "{1259, 702}";
}
);
background = {
paths = (
{
closed = 0;
nodes = (
"308 376 LINE",
"269 353 OFFCURVE",
"247 331 OFFCURVE",
"220 291 CURVE SMOOTH",
"125 149 LINE SMOOTH",
"61 52 OFFCURVE",
"25 33 OFFCURVE",
"-18 33 CURVE",
"-20 0 LINE",
"87 0 LINE SMOOTH",
"107 0 OFFCURVE",
"154 34 OFFCURVE",
"196 98 CURVE SMOOTH",
"302 260 LINE SMOOTH",
"323 291 OFFCURVE",
"339 317 OFFCURVE",
"371 341 CURVE",
"431 340 LINE",
"433 380 LINE",
"358 380 LINE"
);
},
{
closed = 0;
nodes = (
"594 380 LINE",
"520 380 LINE",
"528 544 LINE SMOOTH",
"532 615 OFFCURVE",
"528 664 OFFCURVE",
"604 667 CURVE",
"605 700 LINE",
"380 700 LINE",
"378 656 LINE",
"450 660 LINE",
"447 640 OFFCURVE",
"444 615 OFFCURVE",
"443 588 CURVE SMOOTH",
"420 156 LINE SMOOTH",
"417 85 OFFCURVE",
"420 36 OFFCURVE",
"345 33 CURVE",
"343 0 LINE",
"568 0 LINE",
"571 44 LINE",
"499 40 LINE",
"502 57 OFFCURVE",
"504 83 OFFCURVE",
"506 119 CURVE SMOOTH",
"518 340 LINE",
"577 341 LINE",
"606 317 OFFCURVE",
"620 291 OFFCURVE",
"637 260 CURVE SMOOTH",
"729 98 LINE SMOOTH",
"765 35 OFFCURVE",
"810 0 OFFCURVE",
"830 0 CURVE SMOOTH",
"932 0 LINE",
"934 33 LINE",
"891 33 OFFCURVE",
"857 52 OFFCURVE",
"803 149 CURVE SMOOTH",
"723 291 LINE SMOOTH",
"700 331 OFFCURVE",
"681 353 OFFCURVE",
"645 376 CURVE"
);
}
);
};
layerId = "13AA25AE-C1F8-404A-9DC4-1A2868689295";
leftMetricsKey = "=Zhe-cy";
rightMetricsKey = "=Zhe-cy";
name = "Light Italic";
paths = (
{
closed = 1;
nodes = (
"304 380 OFFCURVE",
"270 365 OFFCURVE",
"220 291 CURVE SMOOTH",
"125 149 LINE SMOOTH",
"61 52 OFFCURVE",
"25 33 OFFCURVE",
"-18 33 CURVE",
"-20 0 LINE",
"87 0 LINE SMOOTH",
"107 0 OFFCURVE",
"154 34 OFFCURVE",
"196 98 CURVE SMOOTH",
"302 260 LINE SMOOTH",
"323 291 OFFCURVE",
"339 317 OFFCURVE",
"371 341 CURVE",
"431 340 LINE",
"433 380 LINE",
"358 380 LINE SMOOTH"
);
},
{
closed = 1;
nodes = (
"615 700 LINE",
"613 654 LINE",
"695 649 LINE",
"676 631 OFFCURVE",
"663 614 OFFCURVE",
"640 583 CURVE SMOOTH",
"590 516 OFFCURVE",
"550 448 OFFCURVE",
"498 373 CURVE",
"496 373 LINE",
"447 437 OFFCURVE",
"406 496 OFFCURVE",
"366 558 CURVE SMOOTH",
"327 619 OFFCURVE",
"353 644 OFFCURVE",
"415 644 CURVE",
"427 700 LINE",
"173 700 LINE",
"171 654 LINE",
"233 642 LINE",
"239 617 OFFCURVE",
"252 584 OFFCURVE",
"280 545 CURVE SMOOTH",
"410 361 LINE",
"540 358 LINE",
"578 413 OFFCURVE",
"618 477 OFFCURVE",
"663 538 CURVE SMOOTH",
"719 615 OFFCURVE",
"766 651 OFFCURVE",
"822 651 CURVE",
"819 700 LINE"
);
},
{
closed = 1;
nodes = (
"680 365 OFFCURVE",
"645 380 OFFCURVE",
"594 380 CURVE SMOOTH",
"524 380 LINE",
"498 360 LINE",
"450 380 LINE",
"433 380 LINE",
"420 156 LINE SMOOTH",
"416 85 OFFCURVE",
"420 36 OFFCURVE",
"345 33 CURVE",
"343 0 LINE",
"568 0 LINE",
"571 44 LINE",
"499 40 LINE",
"502 57 OFFCURVE",
"504 83 OFFCURVE",
"506 119 CURVE SMOOTH",
"518 340 LINE",
"577 341 LINE",
"606 317 OFFCURVE",
"620 291 OFFCURVE",
"637 260 CURVE SMOOTH",
"729 98 LINE SMOOTH",
"765 35 OFFCURVE",
"810 0 OFFCURVE",
"830 0 CURVE SMOOTH",
"932 0 LINE",
"934 33 LINE",
"891 33 OFFCURVE",
"857 52 OFFCURVE",
"803 149 CURVE SMOOTH",
"723 291 LINE SMOOTH"
);
},
{
closed = 1;
nodes = (
"163 700 LINE",
"163 640 LINE",
"822 651 LINE",
"822 700 LINE"
);
}
);
width = 939;
}
);
leftMetricsKey = "=Zhe-cy";
rightMetricsKey = "=Zhe-cy";
unicode = 046A;
},
{
color = 9;
glyphname = "Fita-cy";
lastChange = "2016-09-05 10:44:30 +0000";
layers = (
{
components = (
{
name = O;
transform = "{1, 0, 0, 1, 0, 0}";
}
);
layerId = "13AA25AE-C1F8-404A-9DC4-1A2868689295";
name = "Light Italic";
paths = (
{
closed = 1;
nodes = (
"229 432 OFFCURVE",
"133 369 OFFCURVE",
"111 317 CURVE",
"139 309 LINE",
"161 327 OFFCURVE",
"222 361 OFFCURVE",
"278 361 CURVE SMOOTH",
"349 361 OFFCURVE",
"432 285 OFFCURVE",
"510 285 CURVE SMOOTH",
"580 285 OFFCURVE",
"653 335 OFFCURVE",
"682 408 CURVE",
"661 414 LINE",
"641 384 OFFCURVE",
"586 355 OFFCURVE",
"524 355 CURVE SMOOTH",
"454 355 OFFCURVE",
"378 435 OFFCURVE",
"289 433 CURVE SMOOTH"
);
}
);
width = 788;
}
);
leftMetricsKey = O;
rightMetricsKey = O;
unicode = 0472;
},
{
color = 9;
glyphname = "Izhitsa-cy";
lastChange = "2016-09-05 09:22:53 +0000";
layers = (
{
background = {
paths = (
{
closed = 1;
nodes = (
"347 132 LINE",
"332 177 OFFCURVE",
"305 250 OFFCURVE",
"276 325 CURVE SMOOTH",
"245 410 OFFCURVE",
"222 479 OFFCURVE",
"194 558 CURVE SMOOTH",
"170 624 OFFCURVE",
"183 662 OFFCURVE",
"251 666 CURVE",
"253 700 LINE",
"25 700 LINE",
"23 656 LINE",
"79 658 LINE",
"81 628 OFFCURVE",
"89 590 OFFCURVE",
"115 522 CURVE SMOOTH",
"311 -11 LINE",
"337 -11 LINE",
"443 258 OFFCURVE",
"491 383 OFFCURVE",
"519 453 CURVE SMOOTH",
"551 530 OFFCURVE",
"610 677 OFFCURVE",
"655 677 CURVE SMOOTH",
"662 677 OFFCURVE",
"667 674 OFFCURVE",
"670 667 CURVE",
"661 662 OFFCURVE",
"654 647 OFFCURVE",
"654 636 CURVE SMOOTH",
"653 617 OFFCURVE",
"663 590 OFFCURVE",
"703 590 CURVE SMOOTH",
"730 591 OFFCURVE",
"747 617 OFFCURVE",
"749 646 CURVE SMOOTH",
"752 687 OFFCURVE",
"712 716 OFFCURVE",
"675 716 CURVE SMOOTH",
"584 716 OFFCURVE",
"527 593 OFFCURVE",
"489 498 CURVE SMOOTH",
"435 364 OFFCURVE",
"420 321 OFFCURVE",
"349 132 CURVE"
);
}
);
};
layerId = "13AA25AE-C1F8-404A-9DC4-1A2868689295";
leftMetricsKey = "=V";
name = "Light Italic";
paths = (
{
closed = 1;
nodes = (
"347 132 LINE",
"332 177 OFFCURVE",
"305 250 OFFCURVE",
"276 325 CURVE SMOOTH",
"245 410 OFFCURVE",
"222 479 OFFCURVE",
"194 558 CURVE SMOOTH",
"170 624 OFFCURVE",
"183 662 OFFCURVE",
"251 666 CURVE",
"253 700 LINE",
"25 700 LINE",
"23 656 LINE",
"79 658 LINE",
"81 628 OFFCURVE",
"89 590 OFFCURVE",
"115 522 CURVE SMOOTH",
"311 -11 LINE",
"337 -11 LINE",
"443 258 OFFCURVE",
"490 383 OFFCURVE",
"519 453 CURVE SMOOTH",
"560 552 OFFCURVE",
"610 677 OFFCURVE",
"655 677 CURVE SMOOTH",
"662 677 OFFCURVE",
"667 674 OFFCURVE",
"670 667 CURVE",
"661 662 OFFCURVE",
"654 647 OFFCURVE",
"654 636 CURVE SMOOTH",
"653 617 OFFCURVE",
"663 590 OFFCURVE",
"703 590 CURVE SMOOTH",
"730 591 OFFCURVE",
"749 619 OFFCURVE",
"749 646 CURVE SMOOTH",
"749 692 OFFCURVE",
"712 716 OFFCURVE",
"675 716 CURVE SMOOTH",
"584 716 OFFCURVE",
"531 603 OFFCURVE",
"489 498 CURVE SMOOTH",
"436 365 OFFCURVE",
"420 321 OFFCURVE",
"349 132 CURVE"
);
}
);
width = 698;
}
);
leftMetricsKey = "=V";
unicode = 0474;
},
{
color = 9;
glyphname = "Ghestroke-cy";
lastChange = "2016-09-05 14:29:12 +0000";
layers = (
{
components = (
{
name = "Ge-cy";
transform = "{1, 0, 0, 1, 0, 0}";
}
);
guideLines = (
{
position = "{-105, 371}";
},
{
angle = 90;
position = "{28, 480}";
}
);
layerId = "13AA25AE-C1F8-404A-9DC4-1A2868689295";
rightMetricsKey = "=Ge-cy";
name = "Light Italic";
paths = (
{
closed = 1;
nodes = (
"38 373 LINE",
"36 326 LINE",
"362 330 LINE",
"364 373 LINE"
);
}
);
width = 541;
}
);
rightMetricsKey = "=Ge-cy";
unicode = 0492;
},
{
color = 9;
glyphname = "Ghemiddlehook-cy";
lastChange = "2016-09-05 11:37:02 +0000";
layers = (
{
background = {
paths = (
{
closed = 1;
nodes = (
"1223 -223 CURVE SMOOTH",
"1373 -219 OFFCURVE",
"1461 -60 OFFCURVE",
"1470 107 CURVE SMOOTH",
"1480 301 OFFCURVE",
"1398 407 OFFCURVE",
"1231 407 CURVE SMOOTH",
"1184 407 OFFCURVE",
"1120 392 OFFCURVE",
"1080 369 CURVE",
"1077 322 LINE",
"1108 343 OFFCURVE",
"1154 358 OFFCURVE",
"1204 358 CURVE SMOOTH",
"1328 358 OFFCURVE",
"1383 268 OFFCURVE",
"1371 99 CURVE SMOOTH",
"1359 -86 OFFCURVE",
"1315 -189 OFFCURVE",
"1200 -189 CURVE SMOOTH",
"1186 -189 OFFCURVE",
"1169 -186 OFFCURVE",
"1154 -183 CURVE",
"1147 -213 LINE",
"1173 -221 OFFCURVE",
"1199 -224 OFFCURVE"
);
}
);
};
components = (
{
name = "Ge-cy";
transform = "{1, 0, 0, 1, 0, 0}";
}
);
layerId = "13AA25AE-C1F8-404A-9DC4-1A2868689295";
leftMetricsKey = "=H";
name = "Light Italic";
paths = (
{
closed = 1;
nodes = (
"277 -221 OFFCURVE",
"303 -224 OFFCURVE",
"327 -223 CURVE SMOOTH",
"517 -218 OFFCURVE",
"573 31 OFFCURVE",
"573 134 CURVE SMOOTH",
"573 321 OFFCURVE",
"487 407 OFFCURVE",
"347 407 CURVE SMOOTH",
"300 407 OFFCURVE",
"224 392 OFFCURVE",
"184 369 CURVE",
"181 324 LINE",
"212 345 OFFCURVE",
"270 360 OFFCURVE",
"320 360 CURVE SMOOTH",
"420 360 OFFCURVE",
"478 301 OFFCURVE",
"478 127 CURVE SMOOTH",
"478 46 OFFCURVE",
"456 -189 OFFCURVE",
"314 -189 CURVE SMOOTH",
"300 -189 OFFCURVE",
"273 -186 OFFCURVE",
"258 -183 CURVE",
"251 -213 LINE"
);
}
);
width = 625;
}
);
leftMetricsKey = H;
unicode = 0494;
},
{
color = 9;
glyphname = "Zhedescender-cy";
lastChange = "2016-09-05 11:00:40 +0000";
layers = (
{
anchors = (
{
name = bottomright;
position = "{906, 0}";
},
{
name = top;
position = "{493, 700}";
}
);
background = {
paths = (
{
closed = 1;
nodes = (
"891 33 OFFCURVE",
"857 52 OFFCURVE",
"803 149 CURVE SMOOTH",
"723 291 LINE SMOOTH",
"700 331 OFFCURVE",
"681 353 OFFCURVE",
"645 376 CURVE",
"744 532 LINE SMOOTH",
"813 644 OFFCURVE",
"865 660 OFFCURVE",
"950 667 CURVE",
"952 700 LINE",
"737 700 LINE",
"734 659 LINE",
"795 661 LINE",
"767 639 OFFCURVE",
"737 604 OFFCURVE",
"720 577 CURVE SMOOTH",
"594 380 LINE",
"520 380 LINE",
"528 544 LINE SMOOTH",
"532 615 OFFCURVE",
"528 664 OFFCURVE",
"604 667 CURVE",
"605 700 LINE",
"380 700 LINE",
"378 656 LINE",
"450 660 LINE",
"447 640 OFFCURVE",
"444 615 OFFCURVE",
"443 588 CURVE SMOOTH",
"420 156 LINE SMOOTH",
"417 85 OFFCURVE",
"420 36 OFFCURVE",
"345 33 CURVE",
"343 0 LINE",
"568 0 LINE",
"571 44 LINE",
"499 40 LINE",
"502 57 OFFCURVE",
"504 83 OFFCURVE",
"506 119 CURVE SMOOTH",
"518 340 LINE",
"577 341 LINE",
"606 317 OFFCURVE",
"620 291 OFFCURVE",
"637 260 CURVE SMOOTH",
"729 98 LINE SMOOTH",
"765 35 OFFCURVE",
"810 0 OFFCURVE",
"830 0 CURVE SMOOTH",
"932 0 LINE",
"934 33 LINE"
);
}
);
};
layerId = "13AA25AE-C1F8-404A-9DC4-1A2868689295";
leftMetricsKey = "=Zhe-cy";
name = "Light Italic";
paths = (
{
closed = 1;
nodes = (
"967 42 OFFCURVE",
"945 39 OFFCURVE",
"926 39 CURVE SMOOTH",
"886 39 OFFCURVE",
"855 55 OFFCURVE",
"803 149 CURVE SMOOTH",
"723 291 LINE SMOOTH",
"700 331 OFFCURVE",
"681 353 OFFCURVE",
"645 376 CURVE",
"744 532 LINE SMOOTH",
"813 644 OFFCURVE",
"865 660 OFFCURVE",
"950 667 CURVE",
"952 700 LINE",
"737 700 LINE",
"734 659 LINE",
"795 661 LINE",
"767 639 OFFCURVE",
"737 604 OFFCURVE",
"720 577 CURVE SMOOTH",
"594 380 LINE",
"520 380 LINE",
"528 544 LINE SMOOTH",
"532 615 OFFCURVE",
"528 664 OFFCURVE",
"604 667 CURVE",
"605 700 LINE",
"380 700 LINE",
"378 656 LINE",
"450 660 LINE",
"447 640 OFFCURVE",
"444 615 OFFCURVE",
"443 588 CURVE SMOOTH",
"420 156 LINE SMOOTH",
"417 85 OFFCURVE",
"420 36 OFFCURVE",
"345 33 CURVE",
"343 0 LINE",
"568 0 LINE",
"571 44 LINE",
"499 40 LINE",
"502 57 OFFCURVE",
"504 83 OFFCURVE",
"506 119 CURVE SMOOTH",
"518 340 LINE",
"577 341 LINE",
"606 317 OFFCURVE",
"620 291 OFFCURVE",
"637 260 CURVE SMOOTH",
"729 98 LINE SMOOTH",
"765 35 OFFCURVE",
"803 0 OFFCURVE",
"844 0 CURVE SMOOTH",
"857 0 LINE SMOOTH",
"919 0 OFFCURVE",
"933 -63 OFFCURVE",
"927 -178 CURVE",
"969 -178 LINE",
"980 44 LINE"
);
},
{
closed = 1;
nodes = (
"35 700 LINE",
"33 667 LINE",
"116 660 OFFCURVE",
"166 644 OFFCURVE",
"225 532 CURVE SMOOTH",
"308 376 LINE",
"269 353 OFFCURVE",
"247 331 OFFCURVE",
"220 291 CURVE SMOOTH",
"125 149 LINE SMOOTH",
"61 52 OFFCURVE",
"25 33 OFFCURVE",
"-18 33 CURVE",
"-20 0 LINE",
"87 0 LINE SMOOTH",
"107 0 OFFCURVE",
"154 34 OFFCURVE",
"196 98 CURVE SMOOTH",
"302 260 LINE SMOOTH",
"323 291 OFFCURVE",
"339 317 OFFCURVE",
"371 341 CURVE",
"431 340 LINE",
"433 380 LINE",
"358 380 LINE",
"253 577 LINE SMOOTH",
"239 604 OFFCURVE",
"213 639 OFFCURVE",
"186 661 CURVE",
"247 659 LINE",
"250 700 LINE"
);
}
);
width = 971;
}
);
leftMetricsKey = "=Zhe-cy";
unicode = 0496;
},
{
color = 9;
glyphname = "Zedescender-cy";
lastChange = "2016-09-05 11:57:51 +0000";
layers = (
{
components = (
{
name = "Ze-cy";
transform = "{1, 0, 0, 1, 0, 0}";
}
);
layerId = "13AA25AE-C1F8-404A-9DC4-1A2868689295";
name = "Light Italic";
paths = (
{
closed = 1;
nodes = (
"246 -1 LINE",
"236 -186 LINE SMOOTH",
"302 -186 LINE",
"301 0 LINE"
);
}
);
width = 595;
}
);
unicode = 0498;
},
{
color = 9;
glyphname = "Kadescender-cy";
lastChange = "2016-09-05 11:25:51 +0000";
layers = (
{
anchors = (
{
name = bottom;
position = "{320, 0}";
},
{
name = bottomright;
position = "{634, 0}";
},
{
name = center;
position = "{339, 350}";
},
{
name = top;
position = "{368, 702}";
}
);
background = {
paths = (
{
closed = 1;
nodes = (
"587 0 LINE SMOOTH",
"649 0 OFFCURVE",
"663 -63 OFFCURVE",
"657 -178 CURVE",
"699 -178 LINE",
"710 44 LINE",
"697 42 OFFCURVE",
"675 39 OFFCURVE",
"656 39 CURVE SMOOTH",
"613 39 OFFCURVE",
"591 44 OFFCURVE",
"521 142 CURVE SMOOTH",
"416 291 LINE SMOOTH",
"394 322 OFFCURVE",
"375 353 OFFCURVE",
"338 376 CURVE",
"444 532 LINE SMOOTH",
"518 641 OFFCURVE",
"569 660 OFFCURVE",
"653 667 CURVE",
"655 700 LINE",
"440 700 LINE",
"438 659 LINE",
"501 661 LINE",
"501 660 LINE",
"469 638 OFFCURVE",
"442 604 OFFCURVE",
"424 577 CURVE SMOOTH",
"291 380 LINE",
"213 380 LINE",
"222 554 LINE SMOOTH",
"226 625 OFFCURVE",
"232 664 OFFCURVE",
"297 667 CURVE",
"299 700 LINE",
"78 700 LINE",
"76 656 LINE",
"148 660 LINE",
"145 640 OFFCURVE",
"143 615 OFFCURVE",
"141 588 CURVE SMOOTH",
"118 156 LINE",
"115 85 OFFCURVE",
"118 36 OFFCURVE",
"43 33 CURVE",
"41 0 LINE",
"262 0 LINE",
"264 44 LINE",
"192 40 LINE",
"195 57 OFFCURVE",
"197 83 OFFCURVE",
"199 119 CURVE SMOOTH",
"211 340 LINE",
"264 341 LINE",
"287 326 OFFCURVE",
"313 293 OFFCURVE",
"335 260 CURVE SMOOTH",
"446 98 LINE SMOOTH",
"483 47 OFFCURVE",
"522 0 OFFCURVE",
"542 0 CURVE SMOOTH",
"574 0 LINE"
);
}
);
};
layerId = "13AA25AE-C1F8-404A-9DC4-1A2868689295";
leftMetricsKey = "=K";
rightMetricsKey = "=Zhe-cy";
name = "Light Italic";
paths = (
{
closed = 1;
nodes = (
"587 0 LINE SMOOTH",
"649 0 OFFCURVE",
"663 -63 OFFCURVE",
"657 -178 CURVE",
"699 -178 LINE",
"710 44 LINE",
"697 42 OFFCURVE",
"675 39 OFFCURVE",
"656 39 CURVE SMOOTH",
"613 39 OFFCURVE",
"591 44 OFFCURVE",
"521 142 CURVE SMOOTH",
"416 291 LINE SMOOTH",
"394 322 OFFCURVE",
"375 353 OFFCURVE",
"338 376 CURVE",
"444 532 LINE SMOOTH",
"518 641 OFFCURVE",
"569 660 OFFCURVE",
"653 667 CURVE",
"655 700 LINE",
"440 700 LINE",
"438 659 LINE",
"501 661 LINE",
"501 660 LINE",
"469 638 OFFCURVE",
"442 604 OFFCURVE",
"424 577 CURVE SMOOTH",
"291 380 LINE",
"213 380 LINE",
"222 554 LINE SMOOTH",
"226 625 OFFCURVE",
"232 664 OFFCURVE",
"297 667 CURVE",
"299 700 LINE",
"78 700 LINE",
"76 656 LINE",
"148 660 LINE",
"145 640 OFFCURVE",
"143 615 OFFCURVE",
"141 588 CURVE SMOOTH",
"118 156 LINE",
"115 85 OFFCURVE",
"118 36 OFFCURVE",
"43 33 CURVE",
"41 0 LINE",
"262 0 LINE",
"264 44 LINE",
"192 40 LINE",
"195 57 OFFCURVE",
"197 83 OFFCURVE",
"199 119 CURVE SMOOTH",
"211 340 LINE",
"264 341 LINE",
"287 326 OFFCURVE",
"313 293 OFFCURVE",
"335 260 CURVE SMOOTH",
"446 98 LINE SMOOTH",
"488 37 OFFCURVE",
"521 0 OFFCURVE",
"572 0 CURVE SMOOTH"
);
}
);
width = 715;
}
);
leftMetricsKey = "=Ka";
rightMetricsKey = "=Zhe-cy";
unicode = 049A;
},
{
color = 9;
glyphname = "Kaverticalstroke-cy";
lastChange = "2016-09-05 11:40:51 +0000";
layers = (
{
anchors = (
{
name = bottom;
position = "{330, 0}";
},
{
name = bottomright;
position = "{644, 0}";
},
{
name = center;
position = "{349, 350}";
},
{
name = top;
position = "{378, 702}";
}
);
components = (
{
name = "verticalbar-cy.case";
transform = "{1, 0, 0, 1, 154, 46}";
}
);
layerId = "13AA25AE-C1F8-404A-9DC4-1A2868689295";
leftMetricsKey = "=K";
rightMetricsKey = "=K";
name = "Light Italic";
paths = (
{
closed = 1;
nodes = (
"470 700 LINE",
"468 659 LINE",
"531 661 LINE",
"531 660 LINE",
"499 638 OFFCURVE",
"472 604 OFFCURVE",
"454 577 CURVE SMOOTH",
"321 380 LINE",
"213 380 LINE",
"222 554 LINE SMOOTH",
"226 625 OFFCURVE",
"232 664 OFFCURVE",
"297 667 CURVE",
"299 700 LINE",
"78 700 LINE",
"76 656 LINE",
"148 660 LINE",
"145 640 OFFCURVE",
"143 615 OFFCURVE",
"141 588 CURVE SMOOTH",
"118 156 LINE",
"115 85 OFFCURVE",
"118 36 OFFCURVE",
"43 33 CURVE",
"41 0 LINE",
"262 0 LINE",
"264 44 LINE",
"192 40 LINE",
"195 57 OFFCURVE",
"197 83 OFFCURVE",
"199 119 CURVE SMOOTH",
"211 340 LINE",
"294 341 LINE",
"317 326 OFFCURVE",
"343 293 OFFCURVE",
"365 260 CURVE SMOOTH",
"476 98 LINE",
"513 47 OFFCURVE",
"552 0 OFFCURVE",
"572 0 CURVE SMOOTH",
"690 0 LINE",
"692 33 LINE",
"649 33 OFFCURVE",
"621 41 OFFCURVE",
"551 142 CURVE",
"446 291 LINE SMOOTH",
"424 322 OFFCURVE",
"405 353 OFFCURVE",
"368 376 CURVE",
"474 532 LINE SMOOTH",
"548 641 OFFCURVE",
"599 660 OFFCURVE",
"683 667 CURVE",
"685 700 LINE"
);
}
);
width = 697;
}
);
leftMetricsKey = "=K";
rightMetricsKey = "=K";
unicode = 049C;
},
{
color = 9;
glyphname = "Kastroke-cy";
lastChange = "2016-09-08 11:57:27 +0000";
layers = (
{
components = (
{
name = K;
transform = "{1, 0, 0, 1, 13, 0}";
}
);
layerId = "13AA25AE-C1F8-404A-9DC4-1A2868689295";
rightMetricsKey = K;
name = "Light Italic";
paths = (
{
closed = 1;
nodes = (
"49 601 LINE",
"47 563 LINE",
"353 567 LINE",
"355 601 LINE"
);
}
);
width = 680;
}
);
rightMetricsKey = K;
unicode = 049E;
},
{
color = 4;
glyphname = "Kabashkir-cy";
layers = (
{
layerId = "13AA25AE-C1F8-404A-9DC4-1A2868689295";
name = "Light Italic";
paths = (
{
closed = 1;
nodes = (
"65 700 LINE",
"48 489 LINE",
"85 489 LINE",
"91 607 OFFCURVE",
"125 659 OFFCURVE",
"209 659 CURVE SMOOTH",
"315 660 LINE",
"317 700 LINE"
);
},
{
closed = 1;
nodes = (
"575 700 LINE",
"573 659 LINE",
"634 661 LINE",
"605 639 OFFCURVE",
"577 603 OFFCURVE",
"558 577 CURVE SMOOTH",
"423 380 LINE",
"348 380 LINE",
"357 544 LINE SMOOTH",
"360 615 OFFCURVE",
"357 664 OFFCURVE",
"432 667 CURVE",
"434 700 LINE",
"209 700 LINE",
"279 660 LINE",
"276 640 OFFCURVE",
"273 615 OFFCURVE",
"272 588 CURVE SMOOTH",
"249 156 LINE SMOOTH",
"245 85 OFFCURVE",
"249 36 OFFCURVE",
"174 33 CURVE",
"172 0 LINE",
"397 0 LINE",
"399 44 LINE",
"327 40 LINE",
"330 57 OFFCURVE",
"332 83 OFFCURVE",
"334 119 CURVE SMOOTH",
"346 340 LINE",
"395 341 LINE",
"418 326 OFFCURVE",
"442 293 OFFCURVE",
"466 260 CURVE SMOOTH",
"577 98 LINE SMOOTH",
"613 47 OFFCURVE",
"653 0 OFFCURVE",
"673 0 CURVE SMOOTH",
"795 0 LINE",
"797 33 LINE",
"754 33 OFFCURVE",
"726 41 OFFCURVE",
"655 142 CURVE SMOOTH",
"551 291 LINE SMOOTH",
"529 322 OFFCURVE",
"509 353 OFFCURVE",
"473 376 CURVE",
"579 532 LINE SMOOTH",
"653 641 OFFCURVE",
"704 660 OFFCURVE",
"788 667 CURVE",
"790 700 LINE"
);
}
);
width = 800;
}
);
leftMetricsKey = "Te-cy";
rightMetricsKey = "Ka-cy";
unicode = 04A0;
},
{
color = 9;
glyphname = "Endescender-cy";
lastChange = "2016-09-05 11:43:18 +0000";
layers = (
{
components = (
{
name = "En-cy";
transform = "{1, 0, 0, 1, 0, 0}";
}
);
layerId = "13AA25AE-C1F8-404A-9DC4-1A2868689295";
leftMetricsKey = "=En-cy";
rightMetricsKey = "=Tse-cy";
name = "Light Italic";
paths = (
{
closed = 1;
nodes = (
"656 0 OFFCURVE",
"668 -63 OFFCURVE",
"662 -177 CURVE",
"704 -177 LINE",
"716 45 LINE",
"633 40 LINE",
"590 0 LINE"
);
}
);
width = 767;
}
);
leftMetricsKey = "=En-cy";
rightMetricsKey = "=Tse-cy";
unicode = 04A2;
},
{
color = 9;
glyphname = "Pemiddlehook-cy";
lastChange = "2016-09-05 11:38:30 +0000";
layers = (
{
components = (
{
name = "Pe-cy";
transform = "{1, 0, 0, 1, 0, 0}";
}
);
layerId = "13AA25AE-C1F8-404A-9DC4-1A2868689295";
name = "Light Italic";
paths = (
{
closed = 0;
nodes = (
"745 -222 LINE"
);
},
{
closed = 1;
nodes = (
"699 -221 OFFCURVE",
"725 -224 OFFCURVE",
"749 -223 CURVE SMOOTH",
"939 -218 OFFCURVE",
"995 31 OFFCURVE",
"995 134 CURVE SMOOTH",
"995 321 OFFCURVE",
"909 407 OFFCURVE",
"769 407 CURVE SMOOTH",
"722 407 OFFCURVE",
"646 392 OFFCURVE",
"606 369 CURVE",
"603 324 LINE",
"634 345 OFFCURVE",
"692 360 OFFCURVE",
"742 360 CURVE SMOOTH",
"842 360 OFFCURVE",
"900 301 OFFCURVE",
"900 127 CURVE SMOOTH",
"900 46 OFFCURVE",
"878 -189 OFFCURVE",
"736 -189 CURVE SMOOTH",
"722 -189 OFFCURVE",
"695 -186 OFFCURVE",
"680 -183 CURVE",
"673 -213 LINE"
);
}
);
width = 1022;
}
);
leftMetricsKey = "En-cy";
unicode = 04A6;
},
{
color = 9;
glyphname = "Pedescender-cy";
lastChange = "2016-09-05 11:44:09 +0000";
layers = (
{
components = (
{
name = "Pe-cy";
transform = "{1, 0, 0, 1, 0, 0}";
}
);
layerId = "13AA25AE-C1F8-404A-9DC4-1A2868689295";
leftMetricsKey = "=Pe-cy";
rightMetricsKey = "=Tse-cy";
name = "Light Italic";
paths = (
{
closed = 1;
nodes = (
"637 0 OFFCURVE",
"649 -63 OFFCURVE",
"643 -177 CURVE",
"685 -177 LINE",
"697 45 LINE",
"614 40 LINE",
"571 0 LINE"
);
}
);
width = 748;
}
);
leftMetricsKey = "=Pe-cy";
rightMetricsKey = "=Tse-cy";
unicode = 0524;
},
{
color = 9;
glyphname = "Haabkhasian-cy";
lastChange = "2016-09-05 11:57:19 +0000";
layers = (
{
layerId = "13AA25AE-C1F8-404A-9DC4-1A2868689295";
leftMetricsKey = "=O";
name = "Light Italic";
paths = (
{
closed = 1;
nodes = (
"695 -4 OFFCURVE",
"665 -16 OFFCURVE",
"624 -16 CURVE SMOOTH",
"395 -16 OFFCURVE",
"290 145 OFFCURVE",
"298 301 CURVE SMOOTH",
"308 475 OFFCURVE",
"410 565 OFFCURVE",
"522 566 CURVE SMOOTH",
"650 567 OFFCURVE",
"729 492 OFFCURVE",
"721 329 CURVE SMOOTH",
"715 212 OFFCURVE",
"596 -16 OFFCURVE",
"380 -16 CURVE SMOOTH",
"136 -16 OFFCURVE",
"49 149 OFFCURVE",
"49 318 CURVE SMOOTH",
"49 523 OFFCURVE",
"191 716 OFFCURVE",
"417 716 CURVE SMOOTH",
"471 716 OFFCURVE",
"532 702 OFFCURVE",
"576 676 CURVE",
"558 643 LINE",
"515 666 OFFCURVE",
"463 673 OFFCURVE",
"430 673 CURVE SMOOTH",
"282 673 OFFCURVE",
"145 546 OFFCURVE",
"145 324 CURVE SMOOTH",
"145 180 OFFCURVE",
"205 24 OFFCURVE",
"384 24 CURVE SMOOTH",
"564 24 OFFCURVE",
"621 230 OFFCURVE",
"628 327 CURVE SMOOTH",
"639 486 OFFCURVE",
"583 527 OFFCURVE",
"520 527 CURVE SMOOTH",
"451 527 OFFCURVE",
"400 463 OFFCURVE",
"392 323 CURVE SMOOTH",
"385 206 OFFCURVE",
"449 27 OFFCURVE",
"627 27 CURVE SMOOTH",
"657 27 OFFCURVE",
"678 31 OFFCURVE",
"705 45 CURVE",
"719 10 LINE"
);
}
);
width = 757;
}
);
leftMetricsKey = O;
unicode = 04A8;
},
{
color = 9;
glyphname = "Esdescender-cy";
lastChange = "2016-09-05 11:58:36 +0000";
layers = (
{
components = (
{
name = "Es-cy";
transform = "{1, 0, 0, 1, 0, 0}";
}
);
layerId = "13AA25AE-C1F8-404A-9DC4-1A2868689295";
name = "Light Italic";
paths = (
{
closed = 1;
nodes = (
"339 -1 LINE",
"329 -186 LINE SMOOTH",
"395 -186 LINE",
"394 0 LINE"
);
}
);
width = 686;
}
);
unicode = 04AA;
},
{
color = 9;
glyphname = "Tedescender-cy";
lastChange = "2016-09-05 11:59:49 +0000";
layers = (
{
components = (
{
name = T;
transform = "{1, 0, 0, 1, 0, 0}";
}
);
layerId = "13AA25AE-C1F8-404A-9DC4-1A2868689295";
leftMetricsKey = "=T";
rightMetricsKey = "=T";
name = "Light Italic";
paths = (
{
closed = 1;
nodes = (
"366 0 OFFCURVE",
"379 -63 OFFCURVE",
"373 -177 CURVE",
"415 -177 LINE",
"427 45 LINE",
"343 40 LINE",
"300 0 LINE"
);
}
);
width = 636;
}
);
leftMetricsKey = T;
rightMetricsKey = T;
unicode = 04AC;
},
{
color = 9;
glyphname = "Ustraitstroke-cy";
lastChange = "2016-09-08 11:57:53 +0000";
layers = (
{
components = (
{
name = Y;
transform = "{1, 0, 0, 1, 0, 0}";
}
);
layerId = "13AA25AE-C1F8-404A-9DC4-1A2868689295";
leftMetricsKey = "=Y";
rightMetricsKey = "=Y";
name = "Light Italic";
paths = (
{
closed = 1;
nodes = (
"131 265 LINE",
"516 269 LINE",
"518 303 LINE",
"133 303 LINE"
);
}
);
width = 641;
}
);
leftMetricsKey = "=Y";
rightMetricsKey = "=Y";
unicode = 04B0;
},
{
color = 9;
glyphname = "Hadescender-cy";
lastChange = "2016-09-05 12:05:19 +0000";
layers = (
{
layerId = "13AA25AE-C1F8-404A-9DC4-1A2868689295";
name = "Light Italic";
paths = (
{
closed = 1;
nodes = (
"463 700 LINE",
"460 656 LINE",
"545 660 LINE",
"523 641 OFFCURVE",
"486 592 OFFCURVE",
"450 544 CURVE SMOOTH",
"346 405 LINE",
"298 477 OFFCURVE",
"254 544 OFFCURVE",
"232 584 CURVE SMOOTH",
"211 621 OFFCURVE",
"186 662 OFFCURVE",
"259 665 CURVE SMOOTH",
"303 667 LINE",
"305 700 LINE",
"46 700 LINE",
"43 656 LINE",
"98 658 LINE",
"118 604 OFFCURVE",
"135 584 OFFCURVE",
"297 339 CURVE",
"157 153 LINE SMOOTH",
"109 87 OFFCURVE",
"78 46 OFFCURVE",
"14 33 CURVE",
"12 0 LINE",
"208 0 LINE",
"210 44 LINE",
"127 39 LINE",
"162 77 OFFCURVE",
"189 117 OFFCURVE",
"215 153 CURVE SMOOTH",
"251 203 OFFCURVE",
"286 252 OFFCURVE",
"322 300 CURVE",
"378 215 OFFCURVE",
"430 147 OFFCURVE",
"459 106 CURVE SMOOTH",
"481 73 OFFCURVE",
"490 30 OFFCURVE",
"413 33 CURVE",
"411 0 LINE",
"656 0 LINE",
"601 40 LINE",
"536 135 LINE SMOOTH",
"508 176 OFFCURVE",
"438 272 OFFCURVE",
"372 368 CURVE",
"494 528 LINE SMOOTH",
"539 588 OFFCURVE",
"593 658 OFFCURVE",
"658 667 CURVE",
"660 700 LINE"
);
},
{
closed = 1;
nodes = (
"624 0 OFFCURVE",
"636 -63 OFFCURVE",
"630 -177 CURVE",
"672 -177 LINE",
"684 45 LINE",
"601 40 LINE",
"558 0 LINE"
);
}
);
width = 685;
}
);
leftMetricsKey = X;
unicode = 04B2;
},
{
color = 9;
glyphname = "Chedescender-cy";
lastChange = "2016-09-05 12:07:10 +0000";
layers = (
{
components = (
{
name = "Che-cy";
transform = "{1, 0, 0, 1, 0, 0}";
}
);
layerId = "13AA25AE-C1F8-404A-9DC4-1A2868689295";
leftMetricsKey = "=Che-cy";
rightMetricsKey = "=Tse-cy";
name = "Light Italic";
paths = (
{
closed = 1;
nodes = (
"579 0 OFFCURVE",
"591 -63 OFFCURVE",
"585 -177 CURVE",
"627 -177 LINE",
"639 45 LINE",
"556 40 LINE",
"513 0 LINE"
);
}
);
width = 690;
}
);
leftMetricsKey = "=Che-cy";
rightMetricsKey = "=Tse-cy";
unicode = 04B6;
},
{
color = 9;
glyphname = "Cheverticalstroke-cy";
lastChange = "2016-09-05 12:09:14 +0000";
layers = (
{
components = (
{
name = "Che-cy";
transform = "{1, 0, 0, 1, 0, 0}";
}
);
layerId = "13AA25AE-C1F8-404A-9DC4-1A2868689295";
name = "Light Italic";
paths = (
{
closed = 1;
nodes = (
"336 186 LINE",
"374 186 LINE",
"387 436 LINE",
"349 436 LINE"
);
}
);
width = 694;
}
);
unicode = 04B8;
},
{
color = 9;
glyphname = "Shhadescender-cy";
lastChange = "2016-09-05 12:06:33 +0000";
layers = (
{
components = (
{
name = "Che-cy";
transform = "{-1, -0, 0, -1, 704, 700}";
}
);
layerId = "13AA25AE-C1F8-404A-9DC4-1A2868689295";
leftMetricsKey = H;
name = "Light Italic";
paths = (
{
closed = 1;
nodes = (
"602 0 OFFCURVE",
"614 -63 OFFCURVE",
"608 -177 CURVE",
"650 -177 LINE",
"662 45 LINE",
"579 40 LINE",
"536 0 LINE"
);
}
);
width = 673;
}
);
leftMetricsKey = H;
unicode = 0526;
},
{
color = 9;
glyphname = "Cheabkhasian-cy";
lastChange = "2016-09-08 11:42:02 +0000";
layers = (
{
layerId = "13AA25AE-C1F8-404A-9DC4-1A2868689295";
name = "Light Italic";
paths = (
{
closed = 1;
nodes = (
"320 44 OFFCURVE",
"221 156 OFFCURVE",
"231 347 CURVE SMOOTH",
"244 595 OFFCURVE",
"385 675 OFFCURVE",
"483 675 CURVE SMOOTH",
"635 675 OFFCURVE",
"699 531 OFFCURVE",
"671 360 CURVE SMOOTH",
"670 355 OFFCURVE",
"675 357 OFFCURVE",
"674 351 CURVE",
"767 352 LINE",
"769 372 OFFCURVE",
"769 378 OFFCURVE",
"770 388 CURVE SMOOTH",
"779 539 OFFCURVE",
"723 716 OFFCURVE",
"483 716 CURVE SMOOTH",
"284 716 OFFCURVE",
"146 543 OFFCURVE",
"135 332 CURVE SMOOTH",
"126 162 OFFCURVE",
"216 -17 OFFCURVE",
"454 -17 CURVE SMOOTH",
"539 -17 OFFCURVE",
"659 11 OFFCURVE",
"754 130 CURVE",
"727 155 LINE",
"667 80 OFFCURVE",
"573 44 OFFCURVE",
"482 44 CURVE SMOOTH"
);
},
{
closed = 1;
nodes = (
"73 390 OFFCURVE",
"28 426 OFFCURVE",
"30 457 CURVE SMOOTH",
"30 463 OFFCURVE",
"32 468 OFFCURVE",
"37 474 CURVE",
"43 467 OFFCURVE",
"53 464 OFFCURVE",
"58 464 CURVE SMOOTH",
"78 464 OFFCURVE",
"107 479 OFFCURVE",
"109 512 CURVE SMOOTH",
"110 539 OFFCURVE",
"93 561 OFFCURVE",
"57 561 CURVE SMOOTH",
"14 561 OFFCURVE",
"-18 518 OFFCURVE",
"-18 474 CURVE SMOOTH",
"-18 399 OFFCURVE",
"46 351 OFFCURVE",
"186 351 CURVE SMOOTH",
"687 351 LINE",
"690 395 LINE",
"184 391 LINE SMOOTH"
);
}
);
width = 813;
}
);
unicode = 04BC;
},
{
color = 9;
glyphname = "Chedescenderabkhasian-cy";
lastChange = "2016-09-08 11:42:39 +0000";
layers = (
{
components = (
{
name = "Cheabkhasian-cy";
transform = "{1, 0, 0, 1, -0, 0}";
}
);
layerId = "13AA25AE-C1F8-404A-9DC4-1A2868689295";
leftMetricsKey = "Cheabkhasian-cy";
rightMetricsKey = "Cheabkhasian-cy";
name = "Light Italic";
paths = (
{
closed = 1;
nodes = (
"402 -1 LINE",
"392 -186 LINE SMOOTH",
"458 -186 LINE",
"457 0 LINE"
);
}
);
width = 813;
}
);
leftMetricsKey = "Cheabkhasian-cy";
rightMetricsKey = "Cheabkhasian-cy";
unicode = 04BE;
},
{
color = 9;
glyphname = "Kahook-cy";
lastChange = "2016-09-05 12:13:51 +0000";
layers = (
{
background = {
paths = (
{
closed = 1;
nodes = (
"420 291 LINE SMOOTH",
"399 322 OFFCURVE",
"378 353 OFFCURVE",
"342 376 CURVE",
"448 532 LINE SMOOTH",
"522 641 OFFCURVE",
"573 660 OFFCURVE",
"657 667 CURVE",
"659 700 LINE",
"444 700 LINE",
"442 659 LINE",
"503 661 LINE",
"474 639 OFFCURVE",
"446 603 OFFCURVE",
"427 577 CURVE SMOOTH",
"292 380 LINE",
"217 380 LINE",
"226 544 LINE SMOOTH",
"229 615 OFFCURVE",
"226 664 OFFCURVE",
"301 667 CURVE",
"303 700 LINE",
"78 700 LINE",
"75 656 LINE",
"148 660 LINE",
"145 640 OFFCURVE",
"142 615 OFFCURVE",
"141 588 CURVE SMOOTH",
"118 156 LINE SMOOTH",
"114 85 OFFCURVE",
"118 36 OFFCURVE",
"43 33 CURVE",
"41 0 LINE",
"266 0 LINE",
"268 44 LINE",
"196 40 LINE",
"199 57 OFFCURVE",
"201 83 OFFCURVE",
"203 119 CURVE SMOOTH",
"215 340 LINE",
"264 341 LINE",
"287 326 OFFCURVE",
"311 293 OFFCURVE",
"335 260 CURVE SMOOTH",
"488 44 LINE SMOOTH",
"527 -9 OFFCURVE",
"545 -60 OFFCURVE",
"541 -103 CURVE SMOOTH",
"536 -149 OFFCURVE",
"504 -186 OFFCURVE",
"435 -207 CURVE",
"443 -238 LINE",
"560 -201 OFFCURVE",
"610 -142 OFFCURVE",
"613 -69 CURVE SMOOTH",
"616 -13 OFFCURVE",
"595 42 OFFCURVE",
"553 102 CURVE SMOOTH"
);
}
);
};
layerId = "13AA25AE-C1F8-404A-9DC4-1A2868689295";
leftMetricsKey = "=K";
name = "Light Italic";
paths = (
{
closed = 1;
nodes = (
"621 5 OFFCURVE",
"604 92 OFFCURVE",
"516 212 CURVE SMOOTH",
"437 320 OFFCURVE",
"383 350 OFFCURVE",
"342 376 CURVE",
"448 532 LINE SMOOTH",
"522 641 OFFCURVE",
"573 660 OFFCURVE",
"657 667 CURVE",
"659 700 LINE",
"444 700 LINE",
"442 659 LINE",
"503 661 LINE",
"474 639 OFFCURVE",
"446 603 OFFCURVE",
"427 577 CURVE SMOOTH",
"292 380 LINE",
"217 380 LINE",
"226 544 LINE SMOOTH",
"229 615 OFFCURVE",
"226 664 OFFCURVE",
"301 667 CURVE",
"303 700 LINE",
"78 700 LINE",
"75 656 LINE",
"148 660 LINE",
"145 640 OFFCURVE",
"142 615 OFFCURVE",
"141 588 CURVE SMOOTH",
"118 156 LINE SMOOTH",
"114 85 OFFCURVE",
"118 36 OFFCURVE",
"43 33 CURVE",
"41 0 LINE",
"266 0 LINE",
"268 44 LINE",
"196 40 LINE",
"199 57 OFFCURVE",
"201 83 OFFCURVE",
"203 119 CURVE SMOOTH",
"215 340 LINE",
"264 341 LINE",
"291 324 OFFCURVE",
"370 265 OFFCURVE",
"440 168 CURVE SMOOTH",
"533 41 OFFCURVE",
"546 -37 OFFCURVE",
"546 -73 CURVE SMOOTH",
"546 -116 OFFCURVE",
"530 -177 OFFCURVE",
"439 -207 CURVE",
"447 -238 LINE",
"564 -201 OFFCURVE",
"613 -132 OFFCURVE",
"617 -59 CURVE SMOOTH"
);
}
);
width = 645;
}
);
leftMetricsKey = "=K";
unicode = 04C3;
},
{
color = 9;
glyphname = "Eltail-cy";
lastChange = "2016-09-05 12:16:35 +0000";
layers = (
{
components = (
{
name = "El-cy";
transform = "{1, 0, 0, 1, 14, 0}";
}
);
layerId = "13AA25AE-C1F8-404A-9DC4-1A2868689295";
leftMetricsKey = "=El-cy";
rightMetricsKey = "=Tse-cy";
name = "Light Italic";
paths = (
{
closed = 1;
nodes = (
"566 40 LINE",
"535 0 LINE",
"575 0 OFFCURVE",
"572 -18 OFFCURVE",
"526 -177 CURVE",
"567 -177 LINE",
"658 45 LINE"
);
}
);
width = 709;
}
);
leftMetricsKey = "=El-cy";
rightMetricsKey = "=Tse-cy";
unicode = 04C5;
},
{
color = 9;
glyphname = "Enhook-cy";
lastChange = "2016-09-05 12:19:47 +0000";
layers = (
{
anchors = (
{
name = bottomright;
position = "{740, 0}";
},
{
name = center;
position = "{395, 351}";
},
{
name = top;
position = "{410, 702}";
}
);
background = {
paths = (
{
closed = 0;
nodes = (
"640 119 LINE",
"663 557 LINE SMOOTH",
"667 628 OFFCURVE",
"673 664 OFFCURVE",
"738 667 CURVE",
"740 700 LINE",
"519 700 LINE",
"517 656 LINE",
"589 660 LINE",
"586 640 OFFCURVE",
"583 615 OFFCURVE",
"582 588 CURVE SMOOTH",
"571 378 LINE",
"212 378 LINE",
"222 556 LINE SMOOTH",
"226 627 OFFCURVE",
"232 664 OFFCURVE",
"297 667 CURVE",
"299 700 LINE",
"78 700 LINE",
"76 656 LINE",
"148 660 LINE",
"145 640 OFFCURVE",
"143 615 OFFCURVE",
"141 588 CURVE SMOOTH",
"118 156 LINE SMOOTH",
"114 85 OFFCURVE",
"118 36 OFFCURVE",
"43 33 CURVE",
"41 0 LINE",
"262 0 LINE",
"264 44 LINE",
"192 40 LINE",
"195 57 OFFCURVE",
"197 83 OFFCURVE",
"199 119 CURVE SMOOTH",
"210 334 LINE",
"569 338 LINE",
"559 156 LINE"
);
}
);
};
layerId = "13AA25AE-C1F8-404A-9DC4-1A2868689295";
leftMetricsKey = H;
rightMetricsKey = H;
name = "Light Italic";
paths = (
{
closed = 1;
nodes = (
"545 -105 OFFCURVE",
"521 -192 OFFCURVE",
"426 -192 CURVE SMOOTH",
"410 -192 OFFCURVE",
"387 -188 OFFCURVE",
"367 -182 CURVE",
"356 -212 LINE",
"393 -223 OFFCURVE",
"430 -229 OFFCURVE",
"458 -229 CURVE SMOOTH",
"589 -229 OFFCURVE",
"627 -131 OFFCURVE",
"635 14 CURVE SMOOTH",
"663 557 LINE SMOOTH",
"667 628 OFFCURVE",
"673 664 OFFCURVE",
"738 667 CURVE",
"740 700 LINE",
"519 700 LINE",
"517 656 LINE",
"589 660 LINE",
"586 640 OFFCURVE",
"583 615 OFFCURVE",
"582 588 CURVE SMOOTH",
"571 378 LINE",
"212 378 LINE",
"222 556 LINE SMOOTH",
"226 627 OFFCURVE",
"232 664 OFFCURVE",
"297 667 CURVE",
"299 700 LINE",
"78 700 LINE",
"76 656 LINE",
"148 660 LINE",
"145 640 OFFCURVE",
"143 615 OFFCURVE",
"141 588 CURVE SMOOTH",
"118 156 LINE SMOOTH",
"114 85 OFFCURVE",
"118 36 OFFCURVE",
"43 33 CURVE",
"41 0 LINE",
"262 0 LINE",
"264 44 LINE",
"192 40 LINE",
"195 57 OFFCURVE",
"197 83 OFFCURVE",
"199 119 CURVE SMOOTH",
"210 334 LINE",
"569 338 LINE",
"551 9 LINE SMOOTH"
);
}
);
width = 773;
}
);
leftMetricsKey = H;
rightMetricsKey = H;
unicode = 04C7;
},
{
color = 9;
glyphname = "Entail-cy";
lastChange = "2016-09-05 12:22:50 +0000";
layers = (
{
components = (
{
name = "En-cy";
transform = "{1, 0, 0, 1, 0, 0}";
}
);
layerId = "13AA25AE-C1F8-404A-9DC4-1A2868689295";
leftMetricsKey = "=H";
rightMetricsKey = "=Tse-cy";
name = "Light Italic";
paths = (
{
closed = 1;
nodes = (
"633 40 LINE",
"602 0 LINE",
"642 0 OFFCURVE",
"639 -18 OFFCURVE",
"593 -177 CURVE",
"634 -177 LINE",
"725 45 LINE"
);
}
);
width = 776;
}
);
leftMetricsKey = H;
rightMetricsKey = "=Tse-cy";
unicode = 04C9;
},
{
color = 9;
glyphname = "Chekhakassian-cy";
lastChange = "2016-09-09 09:41:48 +0000";
layers = (
{
anchors = (
{
name = bottomright;
position = "{661, 0}";
},
{
name = center;
position = "{352, 350}";
},
{
name = top;
position = "{370, 700}";
}
);
background = {
paths = (
{
closed = 1;
nodes = (
"585 557 LINE SMOOTH",
"589 628 OFFCURVE",
"595 664 OFFCURVE",
"661 667 CURVE",
"663 700 LINE",
"441 700 LINE",
"439 656 LINE",
"512 660 LINE",
"509 640 OFFCURVE",
"506 615 OFFCURVE",
"504 588 CURVE SMOOTH",
"492 360 LINE",
"456 339 OFFCURVE",
"404 324 OFFCURVE",
"324 324 CURVE SMOOTH",
"239 324 OFFCURVE",
"188 371 OFFCURVE",
"193 451 CURVE SMOOTH",
"199 556 LINE SMOOTH",
"203 627 OFFCURVE",
"209 664 OFFCURVE",
"274 667 CURVE",
"276 700 LINE",
"55 700 LINE",
"53 656 LINE",
"125 660 LINE",
"122 640 OFFCURVE",
"120 615 OFFCURVE",
"118 588 CURVE SMOOTH",
"112 472 LINE SMOOTH",
"105 343 OFFCURVE",
"163 273 OFFCURVE",
"287 273 CURVE SMOOTH",
"375 273 OFFCURVE",
"443 288 OFFCURVE",
"490 311 CURVE",
"481 156 LINE SMOOTH",
"479 85 OFFCURVE",
"481 36 OFFCURVE",
"407 33 CURVE",
"405 0 LINE",
"625 0 LINE",
"627 44 LINE",
"556 40 LINE",
"559 57 OFFCURVE",
"561 83 OFFCURVE",
"563 119 CURVE SMOOTH"
);
}
);
};
layerId = "13AA25AE-C1F8-404A-9DC4-1A2868689295";
leftMetricsKey = "=Che-cy";
rightMetricsKey = "=Che-cy";
name = "Light Italic";
paths = (
{
closed = 1;
nodes = (
"390 39 OFFCURVE",
"369 37 OFFCURVE",
"350 38 CURVE",
"338 -177 LINE",
"380 -177 LINE",
"397 -34 OFFCURVE",
"411 0 OFFCURVE",
"497 0 CURVE SMOOTH",
"625 0 LINE",
"627 44 LINE",
"556 40 LINE",
"559 57 OFFCURVE",
"561 83 OFFCURVE",
"563 119 CURVE SMOOTH",
"585 557 LINE SMOOTH",
"589 628 OFFCURVE",
"595 664 OFFCURVE",
"661 667 CURVE",
"663 700 LINE",
"441 700 LINE",
"439 656 LINE",
"512 660 LINE",
"509 640 OFFCURVE",
"506 615 OFFCURVE",
"504 588 CURVE SMOOTH",
"492 360 LINE",
"456 339 OFFCURVE",
"404 324 OFFCURVE",
"324 324 CURVE SMOOTH",
"239 324 OFFCURVE",
"188 371 OFFCURVE",
"193 451 CURVE SMOOTH",
"199 556 LINE SMOOTH",
"203 627 OFFCURVE",
"209 664 OFFCURVE",
"274 667 CURVE",
"276 700 LINE",
"55 700 LINE",
"53 656 LINE",
"125 660 LINE",
"122 640 OFFCURVE",
"120 615 OFFCURVE",
"118 588 CURVE SMOOTH",
"112 472 LINE SMOOTH",
"105 343 OFFCURVE",
"163 273 OFFCURVE",
"287 273 CURVE SMOOTH",
"375 273 OFFCURVE",
"443 288 OFFCURVE",
"490 311 CURVE",
"481 156 LINE SMOOTH",
"477 80 OFFCURVE",
"470 49 OFFCURVE",
"409 41 CURVE SMOOTH"
);
}
);
width = 694;
}
);
leftMetricsKey = "=Che-cy";
rightMetricsKey = "=Che-cy";
unicode = 04CB;
},
{
color = 9;
glyphname = "Emtail-cy";
lastChange = "2016-09-05 12:26:14 +0000";
layers = (
{
components = (
{
name = M;
transform = "{1, 0, 0, 1, 0, 0}";
}
);
layerId = "13AA25AE-C1F8-404A-9DC4-1A2868689295";
leftMetricsKey = "=Em-cy";
name = "Light Italic";
paths = (
{
closed = 1;
nodes = (
"795 40 LINE",
"764 0 LINE",
"804 0 OFFCURVE",
"801 -18 OFFCURVE",
"755 -177 CURVE",
"796 -177 LINE",
"887 45 LINE"
);
}
);
width = 923;
}
);
leftMetricsKey = "=Em-cy";
unicode = 04CD;
},
{
color = 9;
glyphname = "Schwa-cy";
lastChange = "2016-09-08 11:44:57 +0000";
layers = (
{
layerId = "13AA25AE-C1F8-404A-9DC4-1A2868689295";
rightMetricsKey = "=O";
name = "Light Italic";
paths = (
{
closed = 1;
nodes = (
"637 370 LINE",
"142 370 LINE",
"140 326 LINE",
"635 330 LINE"
);
},
{
closed = 1;
nodes = (
"572 -15 OFFCURVE",
"716 158 OFFCURVE",
"727 369 CURVE SMOOTH",
"736 539 OFFCURVE",
"643 716 OFFCURVE",
"405 716 CURVE SMOOTH",
"335 716 OFFCURVE",
"239 702 OFFCURVE",
"169 655 CURVE",
"177 709 LINE",
"123 709 LINE",
"112 487 LINE",
"148 487 LINE",
"168 606 OFFCURVE",
"261 675 OFFCURVE",
"376 675 CURVE SMOOTH",
"538 675 OFFCURVE",
"639 545 OFFCURVE",
"629 354 CURVE SMOOTH",
"619 170 OFFCURVE",
"518 25 OFFCURVE",
"372 25 CURVE",
"215 25 OFFCURVE",
"134 198 OFFCURVE",
"154 361 CURVE SMOOTH",
"154 366 OFFCURVE",
"154 364 OFFCURVE",
"154 370 CURVE",
"56 369 LINE",
"55 345 OFFCURVE",
"55 353 OFFCURVE",
"55 343 CURVE SMOOTH",
"45 155 OFFCURVE",
"129 -15 OFFCURVE",
"376 -15 CURVE"
);
}
);
width = 768;
}
);
rightMetricsKey = "=O";
unicode = 04D8;
},
{
color = 9;
glyphname = "Dzeabkhasian-cy";
lastChange = "2016-09-06 15:50:34 +0000";
layers = (
{
layerId = "13AA25AE-C1F8-404A-9DC4-1A2868689295";
name = "Light Italic";
paths = (
{
closed = 1;
nodes = (
"302 400 LINE",
"382 495 OFFCURVE",
"425 549 OFFCURVE",
"505 632 CURVE",
"509 700 LINE",
"85 700 LINE",
"77 552 LINE",
"101 552 LINE",
"104 606 OFFCURVE",
"136 630 OFFCURVE",
"190 630 CURVE SMOOTH",
"442 631 LINE",
"387 561 OFFCURVE",
"363 526 OFFCURVE",
"300 465 CURVE SMOOTH",
"264 431 OFFCURVE",
"242 406 OFFCURVE",
"196 406 CURVE"
);
},
{
closed = 1;
nodes = (
"243 363 LINE",
"385 362 OFFCURVE",
"452 301 OFFCURVE",
"446 202 CURVE SMOOTH",
"440 89 OFFCURVE",
"360 31 OFFCURVE",
"256 31 CURVE SMOOTH",
"175 31 OFFCURVE",
"107 71 OFFCURVE",
"46 146 CURVE",
"19 125 LINE",
"81 26 OFFCURVE",
"183 -17 OFFCURVE",
"285 -17 CURVE SMOOTH",
"421 -17 OFFCURVE",
"536 74 OFFCURVE",
"543 208 CURVE SMOOTH",
"549 331 OFFCURVE",
"440 401 OFFCURVE",
"290 401 CURVE"
);
},
{
closed = 1;
nodes = (
"171 406 LINE",
"169 362 LINE",
"245 363 LINE",
"296 402 LINE"
);
}
);
width = 579;
}
);
unicode = 04E0;
},
{
color = 9;
glyphname = "Obarred-cy";
lastChange = "2016-09-05 13:58:55 +0000";
layers = (
{
anchors = (
{
name = top;
position = "{436, 700}";
}
);
components = (
{
name = "O-cy";
transform = "{1, 0, 0, 1, 0, 0}";
}
);
layerId = "13AA25AE-C1F8-404A-9DC4-1A2868689295";
name = "Light Italic";
paths = (
{
closed = 1;
nodes = (
"659 376 LINE",
"131 376 LINE",
"131 336 LINE",
"659 340 LINE"
);
}
);
width = 788;
}
);
unicode = 04E8;
},
{
color = 9;
glyphname = "Gedescender-cy";
lastChange = "2016-09-05 14:18:43 +0000";
layers = (
{
components = (
{
name = "Ge-cy";
transform = "{1, 0, 0, 1, 0, 0}";
}
);
layerId = "13AA25AE-C1F8-404A-9DC4-1A2868689295";
leftMetricsKey = "=Ge-cy";
rightMetricsKey = "=Ge-cy";
name = "Light Italic";
paths = (
{
closed = 1;
nodes = (
"150 0 OFFCURVE",
"171 0 OFFCURVE",
"173 0 CURVE",
"235 -2 OFFCURVE",
"247 -65 OFFCURVE",
"241 -177 CURVE",
"283 -177 LINE",
"295 45 LINE",
"192 40 LINE",
"149 0 LINE"
);
}
);
width = 541;
}
);
leftMetricsKey = "=Ge-cy";
rightMetricsKey = "=Ge-cy";
unicode = 04F6;
},
{
color = 9;
glyphname = "Gestrokehook-cy";
lastChange = "2016-09-05 14:33:00 +0000";
layers = (
{
anchors = (
{
name = bottomright;
position = "{-675, 0}";
},
{
name = center;
position = "{-580, 350}";
},
{
name = top;
position = "{-562, 700}";
}
);
background = {
paths = (
{
closed = 1;
nodes = (
"54 373 LINE",
"52 326 LINE",
"378 330 LINE",
"380 373 LINE"
);
},
{
closed = 0;
nodes = (
"134 156 LINE",
"131 85 OFFCURVE",
"134 36 OFFCURVE",
"59 33 CURVE",
"57 0 LINE",
"308 0 LINE",
"310 44 LINE",
"208 40 LINE",
"211 57 OFFCURVE",
"214 83 OFFCURVE",
"215 119 CURVE"
);
},
{
closed = 0;
nodes = (
"215 119 LINE",
"238 552 LINE",
"241 622 OFFCURVE",
"245 661 OFFCURVE",
"313 663 CURVE SMOOTH",
"386 665 LINE SMOOTH",
"461 667 OFFCURVE",
"523 643 OFFCURVE",
"517 525 CURVE",
"550 525 LINE",
"554 700 LINE",
"94 700 LINE",
"92 656 LINE",
"165 660 LINE",
"162 640 OFFCURVE",
"159 615 OFFCURVE",
"158 588 CURVE SMOOTH",
"134 156 LINE"
);
}
);
};
layerId = "13AA25AE-C1F8-404A-9DC4-1A2868689295";
rightMetricsKey = "=Ge-cy";
name = "Light Italic";
paths = (
{
closed = 1;
nodes = (
"54 373 LINE",
"52 326 LINE",
"378 330 LINE",
"380 373 LINE"
);
},
{
closed = 1;
nodes = (
"120 -105 OFFCURVE",
"95 -192 OFFCURVE",
"0 -192 CURVE SMOOTH",
"-16 -192 OFFCURVE",
"-39 -188 OFFCURVE",
"-59 -182 CURVE",
"-70 -212 LINE",
"-33 -223 OFFCURVE",
"4 -229 OFFCURVE",
"32 -229 CURVE SMOOTH",
"163 -229 OFFCURVE",
"201 -131 OFFCURVE",
"209 14 CURVE SMOOTH",
"238 552 LINE",
"241 622 OFFCURVE",
"245 661 OFFCURVE",
"313 663 CURVE SMOOTH",
"386 665 LINE SMOOTH",
"461 667 OFFCURVE",
"523 643 OFFCURVE",
"517 525 CURVE",
"550 525 LINE",
"554 700 LINE",
"94 700 LINE",
"92 656 LINE",
"165 660 LINE",
"162 640 OFFCURVE",
"160 615 OFFCURVE",
"158 588 CURVE SMOOTH",
"126 9 LINE SMOOTH"
);
}
);
width = 558;
}
);
rightMetricsKey = F;
unicode = 04FA;
},
{
color = 9;
glyphname = "Hahook-cy";
lastChange = "2016-09-05 14:26:34 +0000";
layers = (
{
background = {
paths = (
{
closed = 1;
nodes = (
"515 141 OFFCURVE",
"426 271 OFFCURVE",
"359 368 CURVE",
"481 528 LINE SMOOTH",
"527 588 OFFCURVE",
"581 658 OFFCURVE",
"645 667 CURVE",
"647 700 LINE",
"450 700 LINE",
"448 656 LINE",
"532 660 LINE",
"510 641 OFFCURVE",
"474 592 OFFCURVE",
"438 544 CURVE SMOOTH",
"334 405 LINE",
"286 476 OFFCURVE",
"241 544 OFFCURVE",
"219 584 CURVE SMOOTH",
"198 621 OFFCURVE",
"174 662 OFFCURVE",
"246 665 CURVE SMOOTH",
"290 667 LINE",
"292 700 LINE",
"32 700 LINE",
"30 656 LINE",
"86 658 LINE",
"105 604 OFFCURVE",
"118 581 OFFCURVE",
"284 338 CURVE",
"145 153 LINE SMOOTH",
"96 87 OFFCURVE",
"66 46 OFFCURVE",
"2 33 CURVE",
"0 0 LINE",
"196 0 LINE",
"198 44 LINE",
"115 39 LINE",
"149 77 OFFCURVE",
"176 117 OFFCURVE",
"202 153 CURVE SMOOTH",
"239 203 OFFCURVE",
"274 252 OFFCURVE",
"310 301 CURVE",
"369 215 OFFCURVE",
"456 86 OFFCURVE",
"483 44 CURVE SMOOTH",
"516 -10 OFFCURVE",
"528 -60 OFFCURVE",
"524 -103 CURVE SMOOTH",
"519 -149 OFFCURVE",
"498 -187 OFFCURVE",
"429 -208 CURVE",
"436 -238 LINE",
"553 -201 OFFCURVE",
"603 -142 OFFCURVE",
"606 -69 CURVE SMOOTH",
"609 -13 OFFCURVE",
"586 43 OFFCURVE",
"544 101 CURVE SMOOTH"
);
}
);
};
layerId = "13AA25AE-C1F8-404A-9DC4-1A2868689295";
leftMetricsKey = "=X";
name = "Light Italic";
paths = (
{
closed = 1;
nodes = (
"517 142 OFFCURVE",
"426 271 OFFCURVE",
"359 368 CURVE",
"481 528 LINE SMOOTH",
"527 588 OFFCURVE",
"581 658 OFFCURVE",
"645 667 CURVE",
"647 700 LINE",
"450 700 LINE",
"448 656 LINE",
"532 660 LINE",
"510 641 OFFCURVE",
"474 592 OFFCURVE",
"438 544 CURVE SMOOTH",
"334 405 LINE",
"286 476 OFFCURVE",
"241 544 OFFCURVE",
"219 584 CURVE SMOOTH",
"198 621 OFFCURVE",
"174 662 OFFCURVE",
"246 665 CURVE SMOOTH",
"290 667 LINE",
"292 700 LINE",
"32 700 LINE",
"30 656 LINE",
"86 658 LINE",
"105 604 OFFCURVE",
"118 581 OFFCURVE",
"284 338 CURVE",
"145 153 LINE SMOOTH",
"96 87 OFFCURVE",
"66 46 OFFCURVE",
"2 33 CURVE",
"0 0 LINE",
"196 0 LINE",
"198 44 LINE",
"115 39 LINE",
"149 77 OFFCURVE",
"176 117 OFFCURVE",
"202 153 CURVE SMOOTH",
"239 203 OFFCURVE",
"274 252 OFFCURVE",
"310 301 CURVE",
"369 215 OFFCURVE",
"456 86 OFFCURVE",
"483 44 CURVE SMOOTH",
"516 -10 OFFCURVE",
"528 -46 OFFCURVE",
"528 -88 CURVE SMOOTH",
"528 -134 OFFCURVE",
"498 -187 OFFCURVE",
"429 -208 CURVE",
"436 -238 LINE",
"554 -203 OFFCURVE",
"603 -142 OFFCURVE",
"606 -69 CURVE SMOOTH",
"609 -3 OFFCURVE",
"576 53 OFFCURVE",
"544 101 CURVE SMOOTH"
);
}
);
width = 623;
}
);
leftMetricsKey = "=X";
unicode = 04FC;
},
{
color = 9;
glyphname = "Hastroke-cy";
lastChange = "2016-09-05 14:28:02 +0000";
layers = (
{
components = (
{
name = X;
transform = "{1, 0, 0.052, 1, -5, 0}";
}
);
layerId = "13AA25AE-C1F8-404A-9DC4-1A2868689295";
leftMetricsKey = "=X";
rightMetricsKey = "=X";
name = "Light Italic";
paths = (
{
closed = 1;
nodes = (
"99 327 LINE",
"547 331 LINE",
"549 373 LINE",
"101 373 LINE"
);
}
);
width = 651;
}
);
leftMetricsKey = "=X";
rightMetricsKey = "=X";
unicode = 04FE;
},
{
color = 9;
glyphname = "Reversedze-cy";
lastChange = "2016-09-08 11:47:57 +0000";
layers = (
{
layerId = "13AA25AE-C1F8-404A-9DC4-1A2868689295";
name = "Light Italic";
paths = (
{
closed = 1;
nodes = (
"359 345 LINE",
"236 344 OFFCURVE",
"159 284 OFFCURVE",
"156 185 CURVE SMOOTH",
"152 72 OFFCURVE",
"242 32 OFFCURVE",
"341 32 CURVE SMOOTH",
"427 32 OFFCURVE",
"520 73 OFFCURVE",
"570 142 CURVE",
"596 122 LINE",
"529 30 OFFCURVE",
"433 -16 OFFCURVE",
"326 -16 CURVE SMOOTH",
"189 -16 OFFCURVE",
"58 37 OFFCURVE",
"61 181 CURVE SMOOTH",
"63 275 OFFCURVE",
"157 373 OFFCURVE",
"299 373 CURVE"
);
},
{
closed = 1;
nodes = (
"429 386 LINE",
"427 345 LINE",
"332 345 LINE",
"344 385 LINE"
);
},
{
closed = 1;
nodes = (
"392 716 OFFCURVE",
"450 697 OFFCURVE",
"505 655 CURVE",
"503 709 LINE",
"557 709 LINE",
"546 502 LINE",
"510 502 LINE",
"500 610 OFFCURVE",
"430 676 OFFCURVE",
"325 676 CURVE SMOOTH",
"256 676 OFFCURVE",
"196 630 OFFCURVE",
"191 532 CURVE SMOOTH",
"187 457 OFFCURVE",
"244 382 OFFCURVE",
"357 385 CURVE",
"342 347 LINE",
"267 371 LINE",
"268 373 LINE",
"159 373 OFFCURVE",
"102 453 OFFCURVE",
"105 527 CURVE SMOOTH",
"108 628 OFFCURVE",
"196 716 OFFCURVE",
"325 716 CURVE SMOOTH"
);
}
);
width = 608;
}
);
unicode = 0510;
},
{
color = 9;
glyphname = "Elhook-cy";
lastChange = "2016-09-08 12:02:51 +0000";
layers = (
{
background = {
paths = (
{
closed = 0;
nodes = (
"558 119 LINE",
"581 554 LINE SMOOTH",
"583 625 OFFCURVE",
"585 664 OFFCURVE",
"656 667 CURVE",
"658 700 LINE",
"201 700 LINE",
"199 656 LINE",
"279 657 LINE",
"263 222 OFFCURVE",
"175 28 OFFCURVE",
"103 28 CURVE SMOOTH",
"97 28 OFFCURVE",
"93 30 OFFCURVE",
"89 32 CURVE",
"96 39 OFFCURVE",
"99 46 OFFCURVE",
"99 58 CURVE SMOOTH",
"99 84 OFFCURVE",
"82 100 OFFCURVE",
"54 100 CURVE SMOOTH",
"23 100 OFFCURVE",
"3 80 OFFCURVE",
"1 48 CURVE SMOOTH",
"-1 4 OFFCURVE",
"31 -16 OFFCURVE",
"81 -16 CURVE SMOOTH",
"229 -16 OFFCURVE",
"295 191 OFFCURVE",
"325 610 CURVE SMOOTH",
"326 640 OFFCURVE",
"330 656 OFFCURVE",
"370 658 CURVE SMOOTH",
"507 660 LINE",
"503 640 OFFCURVE",
"500 615 OFFCURVE",
"500 588 CURVE SMOOTH",
"477 156 LINE"
);
}
);
};
layerId = "13AA25AE-C1F8-404A-9DC4-1A2868689295";
leftMetricsKey = "El-cy";
rightMetricsKey = "En-cy";
name = "Light Italic";
paths = (
{
closed = 1;
nodes = (
"462 -105 OFFCURVE",
"438 -192 OFFCURVE",
"343 -192 CURVE SMOOTH",
"327 -192 OFFCURVE",
"304 -188 OFFCURVE",
"284 -182 CURVE",
"273 -212 LINE",
"310 -223 OFFCURVE",
"347 -229 OFFCURVE",
"375 -229 CURVE SMOOTH",
"506 -229 OFFCURVE",
"544 -131 OFFCURVE",
"552 14 CURVE SMOOTH",
"581 554 LINE SMOOTH",
"585 625 OFFCURVE",
"585 664 OFFCURVE",
"656 667 CURVE",
"658 700 LINE",
"201 700 LINE",
"199 656 LINE",
"279 657 LINE",
"263 222 OFFCURVE",
"175 28 OFFCURVE",
"103 28 CURVE SMOOTH",
"97 28 OFFCURVE",
"93 30 OFFCURVE",
"89 32 CURVE",
"96 39 OFFCURVE",
"99 46 OFFCURVE",
"99 58 CURVE SMOOTH",
"99 84 OFFCURVE",
"82 100 OFFCURVE",
"54 100 CURVE SMOOTH",
"23 100 OFFCURVE",
"3 80 OFFCURVE",
"1 48 CURVE SMOOTH",
"-1 4 OFFCURVE",
"31 -16 OFFCURVE",
"81 -16 CURVE SMOOTH",
"229 -16 OFFCURVE",
"295 191 OFFCURVE",
"325 610 CURVE SMOOTH",
"326 640 OFFCURVE",
"330 656 OFFCURVE",
"370 658 CURVE SMOOTH",
"507 660 LINE",
"503 640 OFFCURVE",
"501 615 OFFCURVE",
"500 588 CURVE SMOOTH",
"468 9 LINE SMOOTH"
);
}
);
width = 691;
}
);
leftMetricsKey = "El-cy";
rightMetricsKey = El;
unicode = 0512;
},
{
color = 9;
glyphname = "Semisoftsign-cy";
lastChange = "2016-09-05 14:36:46 +0000";
layers = (
{
components = (
{
name = "Softsign-cy";
transform = "{1, 0, 0, 1, 8, 0}";
}
);
layerId = "13AA25AE-C1F8-404A-9DC4-1A2868689295";
rightMetricsKey = "=Softsign-cy";
name = "Light Italic";
paths = (
{
closed = 1;
nodes = (
"37 566 LINE",
"35 519 LINE",
"411 523 LINE",
"413 566 LINE"
);
}
);
width = 607;
}
);
rightMetricsKey = "=Softsign-cy";
unicode = 048C;
},
{
color = 9;
glyphname = "Ertick-cy";
lastChange = "2016-09-05 14:38:05 +0000";
layers = (
{
components = (
{
name = P;
transform = "{1, 0, 0, 1, 0, 0}";
}
);
layerId = "13AA25AE-C1F8-404A-9DC4-1A2868689295";
leftMetricsKey = "=P";
rightMetricsKey = "=P";
name = "Light Italic";
paths = (
{
closed = 1;
nodes = (
"408 182 LINE",
"441 202 LINE",
"324 429 LINE",
"291 409 LINE"
);
}
);
width = 597;
}
);
leftMetricsKey = "=P";
rightMetricsKey = "=P";
unicode = 048E;
},
{
color = 9;
glyphname = "De-cy.loclBGR";
lastChange = "2016-09-05 10:31:55 +0000";
layers = (
{
anchors = (
{
name = ogonek;
position = "{-59, 5}";
},
{
name = top;
position = "{-292, 702}";
}
);
guideLines = (
{
angle = 90;
position = "{654, -27}";
},
{
angle = 90;
position = "{-22, -108}";
},
{
position = "{264, -180}";
}
);
layerId = "13AA25AE-C1F8-404A-9DC4-1A2868689295";
leftMetricsKey = "=A";
rightMetricsKey = "=A";
name = "Light Italic";
paths = (
{
closed = 1;
nodes = (
"561.081 42.8624 LINE",
"563.715 72.9502 OFFCURVE",
"548.914 122.266 OFFCURVE",
"540 150 CURVE SMOOTH",
"357 719 LINE",
"335 719 LINE",
"120 158 LINE SMOOTH",
"88 75 OFFCURVE",
"67 38 OFFCURVE",
"-12 37 CURVE",
"-24 -180 LINE",
"18 -180 LINE",
"23 -65 OFFCURVE",
"44 0 OFFCURVE",
"110 0 CURVE SMOOTH",
"518 0 LINE SMOOTH",
"583 0 OFFCURVE",
"597 -65 OFFCURVE",
"591 -180 CURVE",
"633 -180 LINE",
"644 44 LINE"
);
},
{
closed = 1;
nodes = (
"168 138 OFFCURVE",
"246 381 OFFCURVE",
"279 468 CURVE SMOOTH",
"321 580 LINE",
"323 580 LINE",
"360 471 OFFCURVE",
"398 326 OFFCURVE",
"460 128 CURVE SMOOTH",
"472 89 OFFCURVE",
"479 41 OFFCURVE",
"409.209 40.7788 CURVE SMOOTH",
"121 39 LINE",
"134 60 OFFCURVE",
"143 78 OFFCURVE",
"155 107 CURVE SMOOTH"
);
}
);
width = 657;
}
);
leftMetricsKey = "\UFFE2\UFF80\UFF93\UFFC3\UFFAA";
rightMetricsKey = "\UFFE2\UFF80\UFF93\UFFC3\UFFAA";
},
{
color = 9;
glyphname = "El-cy.loclBGR";
lastChange = "2016-09-05 10:36:26 +0000";
layers = (
{
anchors = (
{
name = ogonek;
position = "{555, 5}";
},
{
name = top;
position = "{322, 702}";
}
);
layerId = "13AA25AE-C1F8-404A-9DC4-1A2868689295";
leftMetricsKey = "=A";
rightMetricsKey = "=A";
name = "Light Italic";
paths = (
{
closed = 1;
nodes = (
"229 381 OFFCURVE",
"263 468 CURVE SMOOTH",
"305 580 LINE",
"307 580 LINE",
"345 469 OFFCURVE",
"362 418 OFFCURVE",
"452 128 CURVE SMOOTH",
"463 92 OFFCURVE",
"475 35 OFFCURVE",
"400 33 CURVE",
"399 0 LINE",
"616 0 LINE",
"618 44 LINE",
"553 40 LINE",
"556 70 OFFCURVE",
"542 122 OFFCURVE",
"532 150 CURVE SMOOTH",
"341 719 LINE",
"319 719 LINE",
"93 158 LINE SMOOTH",
"63 83 OFFCURVE",
"37 34 OFFCURVE",
"-13 33 CURVE",
"-14 0 LINE",
"169 0 LINE",
"171 44 LINE",
"96 40 LINE",
"108 62 OFFCURVE",
"115 77 OFFCURVE",
"127 109 CURVE SMOOTH",
"139 140 OFFCURVE"
);
}
);
width = 631;
}
);
leftMetricsKey = A;
rightMetricsKey = "-A";
},
{
color = 9;
glyphname = "Ef-cy.loclBGR";
lastChange = "2016-09-05 10:44:06 +0000";
layers = (
{
anchors = (
{
name = ogonek;
position = "{502, 0}";
},
{
name = top;
position = "{437, 702}";
}
);
background = {
paths = (
{
closed = 1;
nodes = (
"177 648 OFFCURVE",
"61 520 OFFCURVE",
"51 335 CURVE SMOOTH",
"42 164 OFFCURVE",
"166 72 OFFCURVE",
"402 72 CURVE",
"404 113 LINE",
"224 113 OFFCURVE",
"140 178 OFFCURVE",
"150 354 CURVE SMOOTH",
"159 520 OFFCURVE",
"253 608 OFFCURVE",
"419 608 CURVE",
"422 648 LINE"
);
},
{
closed = 1;
nodes = (
"322 759 LINE",
"319 715 LINE",
"392 719 LINE",
"388 699 OFFCURVE",
"386 674 OFFCURVE",
"385 647 CURVE SMOOTH",
"356 112 LINE",
"352 41 OFFCURVE",
"356 -8 OFFCURVE",
"281 -11 CURVE",
"279 -44 LINE",
"499 -44 LINE",
"501 0 LINE",
"429 -4 LINE",
"432 13 OFFCURVE",
"435 39 OFFCURVE",
"436 75 CURVE SMOOTH",
"465 603 LINE SMOOTH",
"469 674 OFFCURVE",
"465 723 OFFCURVE",
"540 726 CURVE",
"542 759 LINE"
);
},
{
closed = 1;
nodes = (
"650 72 OFFCURVE",
"768 177 OFFCURVE",
"777 350 CURVE SMOOTH",
"787 534 OFFCURVE",
"661 648 OFFCURVE",
"422 648 CURVE",
"420 607 LINE",
"597 607 OFFCURVE",
"688 520 OFFCURVE",
"678 332 CURVE SMOOTH",
"669 178 OFFCURVE",
"574 112 OFFCURVE",
"405 112 CURVE",
"402 72 LINE"
);
}
);
};
guideLines = (
{
position = "{740, 827}";
},
{
position = "{1027, -137}";
},
{
position = "{932, 716}";
},
{
position = "{983, -16}";
}
);
layerId = "13AA25AE-C1F8-404A-9DC4-1A2868689295";
leftMetricsKey = "=O";
rightMetricsKey = "=O";
name = "Light Italic";
paths = (
{
closed = 1;
nodes = (
"171 717 OFFCURVE",
"59 520 OFFCURVE",
"49 335 CURVE SMOOTH",
"40 164 OFFCURVE",
"151 -16 OFFCURVE",
"400 -16 CURVE",
"402 25 LINE",
"209 25 OFFCURVE",
"138 178 OFFCURVE",
"148 354 CURVE SMOOTH",
"157 520 OFFCURVE",
"247 677 OFFCURVE",
"426 677 CURVE",
"429 717 LINE"
);
},
{
closed = 1;
nodes = (
"658 -16 OFFCURVE",
"771 177 OFFCURVE",
"780 350 CURVE SMOOTH",
"790 534 OFFCURVE",
"678 717 OFFCURVE",
"429 717 CURVE",
"427 676 LINE",
"614 676 OFFCURVE",
"691 520 OFFCURVE",
"681 332 CURVE SMOOTH",
"672 178 OFFCURVE",
"582 24 OFFCURVE",
"403 24 CURVE",
"400 -16 LINE"
);
},
{
closed = 1;
nodes = (
"326 827 LINE",
"324 783 LINE",
"396 787 LINE",
"393 767 OFFCURVE",
"390 742 OFFCURVE",
"389 715 CURVE SMOOTH",
"351 19 LINE",
"348 -52 OFFCURVE",
"351 -101 OFFCURVE",
"276 -104 CURVE",
"274 -137 LINE",
"495 -137 LINE",
"497 -93 LINE",
"425 -97 LINE",
"428 -80 OFFCURVE",
"430 -54 OFFCURVE",
"432 -18 CURVE SMOOTH",
"470 681 LINE SMOOTH",
"474 752 OFFCURVE",
"475 791 OFFCURVE",
"545 794 CURVE",
"547 827 LINE"
);
}
);
width = 822;
}
);
leftMetricsKey = O;
rightMetricsKey = O;
},
{
color = 9;
glyphname = "Zedescender-cy.loclBSH";
lastChange = "2016-09-05 11:08:22 +0000";
layers = (
{
components = (
{
name = "Ze-cy";
transform = "{1, 0, 0, 1, 0, 0}";
}
);
layerId = "13AA25AE-C1F8-404A-9DC4-1A2868689295";
leftMetricsKey = "=Ze-cy";
rightMetricsKey = "=Ze-cy";
name = "Light Italic";
paths = (
{
closed = 1;
nodes = (
"255 -5 OFFCURVE",
"299 -64 OFFCURVE",
"293 -92 CURVE",
"285 -89 OFFCURVE",
"277 -87 OFFCURVE",
"264 -87 CURVE SMOOTH",
"235 -87 OFFCURVE",
"206 -108 OFFCURVE",
"204 -149 CURVE SMOOTH",
"202 -184 OFFCURVE",
"234 -205 OFFCURVE",
"271 -205 CURVE SMOOTH",
"316 -205 OFFCURVE",
"345 -168 OFFCURVE",
"347 -124 CURVE SMOOTH",
"349 -79 OFFCURVE",
"319 -17 OFFCURVE",
"260 20 CURVE",
"216 11 LINE"
);
}
);
width = 595;
}
);
leftMetricsKey = "=\U2013\U00D8\U2014\U00C9-\U2014\U00C5\U2013\U03A9";
rightMetricsKey = "=Ze-cy";
},
{
color = 9;
glyphname = "Esdescender-cy.loclBSH";
lastChange = "2016-09-05 12:03:07 +0000";
layers = (
{
components = (
{
name = "Es-cy";
transform = "{1, 0, 0, 1, 0, 0}";
}
);
layerId = "13AA25AE-C1F8-404A-9DC4-1A2868689295";
name = "Light Italic";
paths = (
{
closed = 1;
nodes = (
"340 -5 OFFCURVE",
"384 -64 OFFCURVE",
"378 -92 CURVE",
"370 -89 OFFCURVE",
"362 -87 OFFCURVE",
"349 -87 CURVE SMOOTH",
"320 -87 OFFCURVE",
"291 -108 OFFCURVE",
"289 -149 CURVE SMOOTH",
"287 -184 OFFCURVE",
"319 -205 OFFCURVE",
"356 -205 CURVE SMOOTH",
"401 -205 OFFCURVE",
"430 -168 OFFCURVE",
"432 -124 CURVE SMOOTH",
"434 -79 OFFCURVE",
"404 -17 OFFCURVE",
"345 20 CURVE",
"301 11 LINE"
);
}
);
width = 686;
}
);
},
{
color = 4;
glyphname = "be-cy";
layers = (
{
layerId = "13AA25AE-C1F8-404A-9DC4-1A2868689295";
name = "Light Italic";
paths = (
{
closed = 1;
nodes = (
"76 352 LINE",
"95 481 OFFCURVE",
"138 562 OFFCURVE",
"252 596 CURVE SMOOTH",
"294 608 OFFCURVE",
"352 608 OFFCURVE",
"402 625 CURVE SMOOTH",
"461 645 OFFCURVE",
"501 684 OFFCURVE",
"522 749 CURVE",
"493 759 LINE",
"475 723 OFFCURVE",
"442 717 OFFCURVE",
"406 708 CURVE SMOOTH",
"365 697 OFFCURVE",
"300 699 OFFCURVE",
"243 678 CURVE SMOOTH",
"111 629 OFFCURVE",
"51 474 OFFCURVE",
"40 299 CURVE SMOOTH",
"25 86 OFFCURVE",
"120 -10 OFFCURVE",
"244 -10 CURVE SMOOTH",
"359 -10 OFFCURVE",
"465 94 OFFCURVE",
"473 250 CURVE SMOOTH",
"481 400 OFFCURVE",
"384 481 OFFCURVE",
"284 481 CURVE SMOOTH",
"183 481 OFFCURVE",
"119 430 OFFCURVE",
"83 352 CURVE"
);
},
{
closed = 1;
nodes = (
"162 28 OFFCURVE",
"119 120 OFFCURVE",
"126 254 CURVE SMOOTH",
"132 353 OFFCURVE",
"178 445 OFFCURVE",
"269 445 CURVE SMOOTH",
"355 445 OFFCURVE",
"391 346 OFFCURVE",
"385 246 CURVE SMOOTH",
"379 121 OFFCURVE",
"333 28 OFFCURVE",
"240 28 CURVE SMOOTH"
);
}
);
width = 521;
}
);
unicode = 0431;
},
{
color = 4;
glyphname = "ve-cy";
layers = (
{
layerId = "13AA25AE-C1F8-404A-9DC4-1A2868689295";
name = "Light Italic";
paths = (
{
closed = 1;
nodes = (
"215 249 LINE",
"347 280 OFFCURVE",
"402 349 OFFCURVE",
"402 413 CURVE SMOOTH",
"402 482 OFFCURVE",
"338 511 OFFCURVE",
"271 511 CURVE SMOOTH",
"118 511 OFFCURVE",
"39 360 OFFCURVE",
"39 205 CURVE SMOOTH",
"39 75 OFFCURVE",
"97 -11 OFFCURVE",
"221 -11 CURVE SMOOTH",
"339 -11 OFFCURVE",
"426 66 OFFCURVE",
"426 166 CURVE SMOOTH",
"426 240 OFFCURVE",
"375 315 OFFCURVE",
"210 259 CURVE",
"218 236 LINE",
"299 261 OFFCURVE",
"341 210 OFFCURVE",
"341 141 CURVE SMOOTH",
"341 72 OFFCURVE",
"305 27 OFFCURVE",
"244 27 CURVE SMOOTH",
"164 27 OFFCURVE",
"130 102 OFFCURVE",
"126 212 CURVE",
"218 236 LINE"
);
},
{
closed = 1;
nodes = (
"301 477 OFFCURVE",
"315 449 OFFCURVE",
"315 406 CURVE SMOOTH",
"315 330 OFFCURVE",
"270 283 OFFCURVE",
"127 250 CURVE",
"135 373 OFFCURVE",
"184 477 OFFCURVE",
"261 477 CURVE SMOOTH"
);
}
);
width = 467;
}
);
leftMetricsKey = o;
unicode = 0432;
},
{
color = 4;
glyphname = "ge-cy";
layers = (
{
anchors = (
{
name = bottomright;
position = "{383, 0}";
},
{
name = center;
position = "{208, 256}";
},
{
name = top;
position = "{261, 512}";
}
);
layerId = "13AA25AE-C1F8-404A-9DC4-1A2868689295";
name = "Light Italic";
paths = (
{
closed = 1;
nodes = (
"361 57 OFFCURVE",
"299 28 OFFCURVE",
"239 28 CURVE SMOOTH",
"187 28 OFFCURVE",
"154 50 OFFCURVE",
"156 102 CURVE SMOOTH",
"159 156 OFFCURVE",
"192 202 OFFCURVE",
"261 246 CURVE SMOOTH",
"350 302 OFFCURVE",
"410 336 OFFCURVE",
"413 403 CURVE SMOOTH",
"416 467 OFFCURVE",
"353 515 OFFCURVE",
"260 515 CURVE SMOOTH",
"208 515 OFFCURVE",
"153 500 OFFCURVE",
"113 467 CURVE",
"118 511 LINE",
"76 511 LINE",
"67 336 LINE",
"99 336 LINE",
"108 415 OFFCURVE",
"158 479 OFFCURVE",
"233 479 CURVE SMOOTH",
"284 479 OFFCURVE",
"313 458 OFFCURVE",
"310 403 CURVE SMOOTH",
"308 356 OFFCURVE",
"293 337 OFFCURVE",
"229 293 CURVE SMOOTH",
"127 217 OFFCURVE",
"54 189 OFFCURVE",
"49 104 CURVE SMOOTH",
"45 24 OFFCURVE",
"125 -16 OFFCURVE",
"230 -16 CURVE SMOOTH",
"316 -16 OFFCURVE",
"375 20 OFFCURVE",
"426 102 CURVE",
"401 122 LINE"
);
}
);
width = 416;
}
);
unicode = 0433;
},
{
color = 4;
glyphname = "gheupturn-cy";
layers = (
{
layerId = "13AA25AE-C1F8-404A-9DC4-1A2868689295";
name = "Light Italic";
paths = (
{
closed = 1;
nodes = (
"429 460 LINE",
"441 611 LINE",
"403 611 LINE",
"397 527 OFFCURVE",
"369 500 OFFCURVE",
"261 500 CURVE",
"259 460 LINE"
);
},
{
closed = 1;
nodes = (
"261 500 LINE",
"56 500 LINE",
"53 459 LINE",
"116 462 LINE",
"111 439 OFFCURVE",
"110 421 OFFCURVE",
"109 394 CURVE SMOOTH",
"105 335 LINE",
"97 152 LINE SMOOTH",
"91 80 OFFCURVE",
"90 30 OFFCURVE",
"29 30 CURVE",
"28 0 LINE",
"232 0 LINE",
"234 41 LINE",
"171 38 LINE",
"176 61 OFFCURVE",
"177 79 OFFCURVE",
"179 106 CURVE SMOOTH",
"192 348 LINE SMOOTH",
"196 420 OFFCURVE",
"201 460 OFFCURVE",
"259 460 CURVE SMOOTH"
);
}
);
width = 435;
}
);
unicode = 0491;
},
{
color = 4;
glyphname = "de-cy";
layers = (
{
layerId = "13AA25AE-C1F8-404A-9DC4-1A2868689295";
name = "Light Italic";
paths = (
{
closed = 1;
nodes = (
"107 674 LINE",
"142 708 OFFCURVE",
"179 721 OFFCURVE",
"214 721 CURVE SMOOTH",
"290 721 OFFCURVE",
"352 630 OFFCURVE",
"368 453 CURVE",
"348 480 OFFCURVE",
"313 492 OFFCURVE",
"272 492 CURVE SMOOTH",
"144 492 OFFCURVE",
"41 377 OFFCURVE",
"38 209 CURVE SMOOTH",
"35 64 OFFCURVE",
"111 -11 OFFCURVE",
"213 -11 CURVE SMOOTH",
"328 -11 OFFCURVE",
"444 78 OFFCURVE",
"451 343 CURVE SMOOTH",
"456 561 OFFCURVE",
"392 758 OFFCURVE",
"224 758 CURVE SMOOTH",
"175 758 OFFCURVE",
"136 738 OFFCURVE",
"88 697 CURVE"
);
},
{
closed = 1;
nodes = (
"332 455 OFFCURVE",
"373 393 OFFCURVE",
"368 304 CURVE SMOOTH",
"361 180 OFFCURVE",
"327 27 OFFCURVE",
"232 27 CURVE SMOOTH",
"161 27 OFFCURVE",
"120 110 OFFCURVE",
"122 220 CURVE SMOOTH",
"125 368 OFFCURVE",
"204 455 OFFCURVE",
"273 455 CURVE SMOOTH"
);
}
);
width = 488;
}
);
leftMetricsKey = o;
unicode = 0434;
},
{
color = 4;
glyphname = "zhe-cy";
layers = (
{
anchors = (
{
name = bottomright;
position = "{814, 0}";
},
{
name = top;
position = "{437, 512}";
}
);
layerId = "13AA25AE-C1F8-404A-9DC4-1A2868689295";
name = "Light Italic";
paths = (
{
closed = 1;
nodes = (
"292 243 LINE",
"543 244 LINE",
"543 272 LINE",
"293 272 LINE"
);
},
{
closed = 1;
nodes = (
"812 460 OFFCURVE",
"768 511 OFFCURVE",
"700 511 CURVE SMOOTH",
"589 511 OFFCURVE",
"527 373 OFFCURVE",
"524 208 CURVE SMOOTH",
"521 68 OFFCURVE",
"570 -11 OFFCURVE",
"660 -11 CURVE SMOOTH",
"723 -11 OFFCURVE",
"764 31 OFFCURVE",
"811 147 CURVE",
"777 164 LINE",
"743 68 OFFCURVE",
"714 27 OFFCURVE",
"672 27 CURVE SMOOTH",
"631 27 OFFCURVE",
"599 84 OFFCURVE",
"601 231 CURVE SMOOTH",
"603 337 OFFCURVE",
"633 474 OFFCURVE",
"699 474 CURVE SMOOTH",
"729 474 OFFCURVE",
"741 452 OFFCURVE",
"741 423 CURVE",
"730 412 OFFCURVE",
"726 400 OFFCURVE",
"726 382 CURVE SMOOTH",
"726 361 OFFCURVE",
"739 342 OFFCURVE",
"768 343 CURVE SMOOTH",
"791 343 OFFCURVE",
"810 362 OFFCURVE",
"810 394 CURVE SMOOTH"
);
},
{
closed = 1;
nodes = (
"397 511 LINE",
"399 491 OFFCURVE",
"400 473 OFFCURVE",
"400 457 CURVE SMOOTH",
"402 381 OFFCURVE",
"390 310 OFFCURVE",
"381 231 CURVE SMOOTH",
"367 105 OFFCURVE",
"365 60 OFFCURVE",
"365 26 CURVE SMOOTH",
"365 15 OFFCURVE",
"365 9 OFFCURVE",
"366 0 CURVE",
"449 0 LINE",
"447 20 OFFCURVE",
"446 39 OFFCURVE",
"446 55 CURVE SMOOTH",
"443 164 OFFCURVE",
"479 372 OFFCURVE",
"479 485 CURVE SMOOTH",
"479 496 OFFCURVE",
"479 502 OFFCURVE",
"478 511 CURVE"
);
},
{
closed = 1;
nodes = (
"19 40 OFFCURVE",
"73 -11 OFFCURVE",
"129 -11 CURVE SMOOTH",
"240 -11 OFFCURVE",
"312 127 OFFCURVE",
"319 292 CURVE SMOOTH",
"326 432 OFFCURVE",
"272 511 OFFCURVE",
"198 511 CURVE SMOOTH",
"139 512 OFFCURVE",
"97 485 OFFCURVE",
"46 370 CURVE",
"76 353 LINE",
"110 439 OFFCURVE",
"140 462 OFFCURVE",
"177 462 CURVE SMOOTH",
"218 462 OFFCURVE",
"249 409 OFFCURVE",
"242 269 CURVE SMOOTH",
"236 163 OFFCURVE",
"203 27 OFFCURVE",
"136 27 CURVE SMOOTH",
"110 27 OFFCURVE",
"95 40 OFFCURVE",
"90 77 CURVE",
"102 88 OFFCURVE",
"108 100 OFFCURVE",
"108 118 CURVE SMOOTH",
"109 139 OFFCURVE",
"95 158 OFFCURVE",
"66 157 CURVE SMOOTH",
"43 157 OFFCURVE",
"24 138 OFFCURVE",
"22 106 CURVE SMOOTH"
);
}
);
width = 847;
}
);
leftMetricsKey = "=|c";
rightMetricsKey = c;
unicode = 0436;
},
{
color = 4;
glyphname = "ze-cy";
lastChange = "2016-09-07 14:11:46 +0000";
layers = (
{
anchors = (
{
name = bottom;
position = "{206, 0}";
},
{
name = top;
position = "{228, 512}";
}
);
layerId = "13AA25AE-C1F8-404A-9DC4-1A2868689295";
name = "Light Italic";
paths = (
{
closed = 1;
nodes = (
"173 234 LINE",
"275 264 OFFCURVE",
"321 216 OFFCURVE",
"321 142 CURVE SMOOTH",
"321 72 OFFCURVE",
"276 23 OFFCURVE",
"188 23 CURVE SMOOTH",
"141 23 OFFCURVE",
"108 40 OFFCURVE",
"101 77 CURVE",
"112 89 OFFCURVE",
"114 103 OFFCURVE",
"114 115 CURVE SMOOTH",
"114 130 OFFCURVE",
"103 156 OFFCURVE",
"71 155 CURVE SMOOTH",
"45 155 OFFCURVE",
"29 135 OFFCURVE",
"29 106 CURVE SMOOTH",
"29 40 OFFCURVE",
"93 -11 OFFCURVE",
"186 -11 CURVE SMOOTH",
"308 -11 OFFCURVE",
"396 66 OFFCURVE",
"396 159 CURVE SMOOTH",
"396 223 OFFCURVE",
"352 272 OFFCURVE",
"266 277 CURVE",
"346 313 OFFCURVE",
"382 363 OFFCURVE",
"382 414 CURVE SMOOTH",
"382 480 OFFCURVE",
"323 511 OFFCURVE",
"242 511 CURVE SMOOTH",
"149 512 OFFCURVE",
"62 460 OFFCURVE",
"67 390 CURVE SMOOTH",
"67 362 OFFCURVE",
"86 345 OFFCURVE",
"110 345 CURVE SMOOTH",
"134 345 OFFCURVE",
"151 362 OFFCURVE",
"151 384 CURVE SMOOTH",
"151 406 OFFCURVE",
"144 421 OFFCURVE",
"117 425 CURVE",
"135 455 OFFCURVE",
"171 477 OFFCURVE",
"221 477 CURVE SMOOTH",
"277 477 OFFCURVE",
"303 452 OFFCURVE",
"303 401 CURVE SMOOTH",
"303 342 OFFCURVE",
"265 300 OFFCURVE",
"162 269 CURVE"
);
}
);
width = 438;
}
);
rightMetricsKey = "ve-cy";
unicode = 0437;
},
{
color = 9;
glyphname = "iishorttail-cy";
lastChange = "2016-09-09 10:03:09 +0000";
layers = (
{
anchors = (
{
name = bottomright;
position = "{578, 0}";
},
{
name = ogonek;
position = "{539, 5}";
},
{
name = top;
position = "{328, 512}";
}
);
components = (
{
name = "brevecomb-cy";
transform = "{1, 0, 0, 1, 63, -1}";
},
{
name = "ii-cy";
transform = "{1, 0, 0, 1, 7, 0}";
}
);
layerId = "13AA25AE-C1F8-404A-9DC4-1A2868689295";
leftMetricsKey = "=en-cy";
name = "Light Italic";
paths = (
{
closed = 1;
nodes = (
"568 136 LINE",
"536 59 LINE",
"524 9 LINE",
"535 3 LINE",
"521 -20 OFFCURVE",
"512 -50 OFFCURVE",
"524 -78 CURVE SMOOTH",
"533 -100 OFFCURVE",
"537 -128 OFFCURVE",
"488 -189 CURVE",
"511 -212 LINE",
"596 -139 OFFCURVE",
"616 -70 OFFCURVE",
"581 -13 CURVE SMOOTH",
"564 13 OFFCURVE",
"567 41 OFFCURVE",
"576 67 CURVE SMOOTH",
"589 104 LINE",
"587 128 LINE"
);
}
);
width = 612;
}
);
leftMetricsKey = "=en-cy";
unicode = 048B;
},
{
color = 4;
glyphname = "ka-cy";
layers = (
{
anchors = (
{
name = bottomright;
position = "{541, 0}";
},
{
name = center;
position = "{287, 256}";
},
{
name = top;
position = "{300, 512}";
}
);
layerId = "13AA25AE-C1F8-404A-9DC4-1A2868689295";
name = "Light Italic";
paths = (
{
closed = 1;
nodes = (
"173 243 LINE",
"280 244 LINE SMOOTH",
"328 244 OFFCURVE",
"348 214 OFFCURVE",
"356 120 CURVE SMOOTH",
"365 15 OFFCURVE",
"392 -11 OFFCURVE",
"438 -11 CURVE SMOOTH",
"505 -11 OFFCURVE",
"539 45 OFFCURVE",
"551 102 CURVE",
"523 107 LINE",
"511 58 OFFCURVE",
"495 43 OFFCURVE",
"474 45 CURVE SMOOTH",
"445 48 OFFCURVE",
"439 75 OFFCURVE",
"432 145 CURVE SMOOTH",
"425 211 OFFCURVE",
"393 263 OFFCURVE",
"307 263 CURVE",
"307 272 LINE",
"174 272 LINE"
);
},
{
closed = 1;
nodes = (
"233 254 LINE",
"278 254 LINE",
"323 254 OFFCURVE",
"363 299 OFFCURVE",
"386 363 CURVE SMOOTH",
"405 414 OFFCURVE",
"417 435 OFFCURVE",
"436 447 CURVE",
"439 420 OFFCURVE",
"458 405 OFFCURVE",
"491 405 CURVE SMOOTH",
"521 405 OFFCURVE",
"538 429 OFFCURVE",
"538 456 CURVE SMOOTH",
"538 489 OFFCURVE",
"517 511 OFFCURVE",
"482 511 CURVE SMOOTH",
"421 511 OFFCURVE",
"386 475 OFFCURVE",
"351 380 CURVE SMOOTH",
"321 300 OFFCURVE",
"292 272 OFFCURVE",
"233 272 CURVE"
);
},
{
closed = 1;
nodes = (
"181 99 OFFCURVE",
"188 189 OFFCURVE",
"211 346 CURVE SMOOTH",
"227 450 OFFCURVE",
"220 511 OFFCURVE",
"146 511 CURVE SMOOTH",
"66 511 OFFCURVE",
"23 417 OFFCURVE",
"13 370 CURVE",
"41 364 LINE",
"62 435 OFFCURVE",
"94 461 OFFCURVE",
"116 461 CURVE SMOOTH",
"144 461 OFFCURVE",
"143 430 OFFCURVE",
"142 403 CURVE SMOOTH",
"141 382 OFFCURVE",
"136 361 OFFCURVE",
"120 231 CURVE SMOOTH",
"104 105 OFFCURVE",
"101 60 OFFCURVE",
"101 26 CURVE SMOOTH",
"100 15 OFFCURVE",
"100 9 OFFCURVE",
"101 0 CURVE",
"184 0 LINE",
"183 20 OFFCURVE",
"182 39 OFFCURVE",
"182 55 CURVE SMOOTH"
);
}
);
width = 574;
}
);
leftMetricsKey = "en-cy";
unicode = 043A;
},
{
color = 4;
glyphname = "el-cy";
layers = (
{
layerId = "13AA25AE-C1F8-404A-9DC4-1A2868689295";
name = "Light Italic";
paths = (
{
closed = 1;
nodes = (
"280 475 LINE",
"254 276 OFFCURVE",
"173 28 OFFCURVE",
"83 38 CURVE",
"84 42 OFFCURVE",
"85 46 OFFCURVE",
"85 53 CURVE SMOOTH",
"85 76 OFFCURVE",
"63 92 OFFCURVE",
"42 92 CURVE SMOOTH",
"15 92 OFFCURVE",
"-4 69 OFFCURVE",
"-4 44 CURVE SMOOTH",
"-4 15 OFFCURVE",
"23 -10 OFFCURVE",
"61 -10 CURVE SMOOTH",
"210 -10 OFFCURVE",
"288 216 OFFCURVE",
"333 475 CURVE"
);
},
{
closed = 1;
nodes = (
"397 500 LINE",
"398 480 OFFCURVE",
"399 462 OFFCURVE",
"399 442 CURVE SMOOTH",
"399 323 OFFCURVE",
"364 147 OFFCURVE",
"364 79 CURVE SMOOTH",
"364 25 OFFCURVE",
"387 -11 OFFCURVE",
"441 -11 CURVE SMOOTH",
"521 -11 OFFCURVE",
"563 83 OFFCURVE",
"571 130 CURVE",
"543 136 LINE",
"523 65 OFFCURVE",
"492 40 OFFCURVE",
"470 40 CURVE SMOOTH",
"449 40 OFFCURVE",
"443 60 OFFCURVE",
"443 84 CURVE SMOOTH",
"443 146 OFFCURVE",
"482 398 OFFCURVE",
"482 474 CURVE SMOOTH",
"482 485 OFFCURVE",
"482 491 OFFCURVE",
"481 500 CURVE"
);
},
{
closed = 1;
nodes = (
"330 461 LINE",
"322 417 LINE",
"326 440 OFFCURVE",
"334 461 OFFCURVE",
"357 461 CURVE"
);
},
{
closed = 1;
nodes = (
"189 500 LINE",
"186 460 LINE",
"463 462 LINE",
"466 500 LINE"
);
}
);
width = 584;
}
);
rightMetricsKey = "en-cy";
unicode = 043B;
},
{
color = 4;
glyphname = "em-cy";
layers = (
{
layerId = "13AA25AE-C1F8-404A-9DC4-1A2868689295";
name = "Light Italic";
paths = (
{
closed = 1;
nodes = (
"265 475 LINE",
"185 157 OFFCURVE",
"129 35 OFFCURVE",
"83 38 CURVE",
"84 42 OFFCURVE",
"85 46 OFFCURVE",
"85 53 CURVE SMOOTH",
"85 76 OFFCURVE",
"63 92 OFFCURVE",
"42 92 CURVE SMOOTH",
"15 92 OFFCURVE",
"-4 69 OFFCURVE",
"-4 44 CURVE SMOOTH",
"-4 15 OFFCURVE",
"23 -10 OFFCURVE",
"61 -10 CURVE SMOOTH",
"175 -10 OFFCURVE",
"212 124 OFFCURVE",
"299 428 CURVE",
"310 428 LINE",
"333 475 LINE"
);
},
{
closed = 1;
nodes = (
"610 500 LINE",
"610 428 LINE",
"616 428 LINE",
"602 318 OFFCURVE",
"563 148 OFFCURVE",
"563 79 CURVE SMOOTH",
"563 25 OFFCURVE",
"585 -11 OFFCURVE",
"637 -11 CURVE SMOOTH",
"720 -11 OFFCURVE",
"761 83 OFFCURVE",
"770 130 CURVE",
"742 136 LINE",
"722 65 OFFCURVE",
"690 40 OFFCURVE",
"667 40 CURVE SMOOTH",
"647 40 OFFCURVE",
"642 60 OFFCURVE",
"642 84 CURVE SMOOTH",
"642 146 OFFCURVE",
"686 398 OFFCURVE",
"686 474 CURVE SMOOTH",
"686 485 OFFCURVE",
"686 491 OFFCURVE",
"685 500 CURVE"
);
},
{
closed = 1;
nodes = (
"175 500 LINE",
"171 460 LINE",
"322 461 LINE",
"320 500 LINE"
);
},
{
closed = 1;
nodes = (
"614 428 LINE",
"626 500 LINE",
"593 500 LINE",
"478 163 OFFCURVE",
"415 42 OFFCURVE",
"391 42 CURVE SMOOTH",
"378 42 OFFCURVE",
"377 56 OFFCURVE",
"375 100 CURVE SMOOTH",
"370 222 OFFCURVE",
"376 342 OFFCURVE",
"376 466 CURVE SMOOTH",
"376 478 OFFCURVE",
"375 489 OFFCURVE",
"373 500 CURVE",
"298 500 LINE",
"301 428 LINE",
"307 428 LINE",
"297 368 OFFCURVE",
"296 204 OFFCURVE",
"296 109 CURVE SMOOTH",
"296 21 OFFCURVE",
"313 -11 OFFCURVE",
"361 -11 CURVE SMOOTH",
"443 -11 OFFCURVE",
"490 91 OFFCURVE",
"610 428 CURVE"
);
}
);
width = 782;
}
);
leftMetricsKey = "el-cy";
rightMetricsKey = "en-cy";
unicode = 043C;
},
{
color = 4;
glyphname = "en-cy";
lastChange = "2016-09-09 12:49:53 +0000";
layers = (
{
anchors = (
{
name = bottomright;
position = "{564, 0}";
}
);
layerId = "13AA25AE-C1F8-404A-9DC4-1A2868689295";
name = "Light Italic";
paths = (
{
closed = 1;
nodes = (
"215 362 LINE SMOOTH",
"224 438 OFFCURVE",
"221 511 OFFCURVE",
"146 511 CURVE SMOOTH",
"66 511 OFFCURVE",
"23 417 OFFCURVE",
"13 370 CURVE",
"41 364 LINE",
"63 435 OFFCURVE",
"94 461 OFFCURVE",
"116 461 CURVE SMOOTH",
"139 461 OFFCURVE",
"143 440 OFFCURVE",
"142 416 CURVE SMOOTH",
"142 386 OFFCURVE",
"141 382 OFFCURVE",
"120 226 CURVE SMOOTH",
"103 100 OFFCURVE",
"97 60 OFFCURVE",
"96 26 CURVE SMOOTH",
"96 15 OFFCURVE",
"96 9 OFFCURVE",
"97 0 CURVE",
"181 0 LINE",
"178 19 OFFCURVE",
"177 38 OFFCURVE",
"180 63 CURVE SMOOTH"
);
},
{
closed = 1;
nodes = (
"433 218 LINE",
"436 256 LINE",
"179 256 LINE",
"175 216 LINE"
);
},
{
closed = 1;
nodes = (
"412 323 OFFCURVE",
"377 147 OFFCURVE",
"377 79 CURVE SMOOTH",
"377 25 OFFCURVE",
"400 -11 OFFCURVE",
"454 -11 CURVE SMOOTH",
"534 -11 OFFCURVE",
"575 83 OFFCURVE",
"584 130 CURVE",
"556 136 LINE",
"536 65 OFFCURVE",
"505 40 OFFCURVE",
"483 40 CURVE SMOOTH",
"462 40 OFFCURVE",
"456 60 OFFCURVE",
"456 84 CURVE SMOOTH",
"456 146 OFFCURVE",
"495 398 OFFCURVE",
"495 474 CURVE SMOOTH",
"495 485 OFFCURVE",
"495 491 OFFCURVE",
"494 500 CURVE",
"410 500 LINE",
"411 480 OFFCURVE",
"412 462 OFFCURVE",
"412 442 CURVE SMOOTH"
);
}
);
width = 595;
}
);
unicode = 043D;
},
